%TF.GenerationSoftware,KiCad,Pcbnew,7.0.7*%
%TF.CreationDate,2024-01-09T13:38:50+07:00*%
%TF.ProjectId,Unified Daughterboard,556e6966-6965-4642-9044-617567687465,rev?*%
%TF.SameCoordinates,Original*%
%TF.FileFunction,Copper,L1,Top*%
%TF.FilePolarity,Positive*%
%FSLAX46Y46*%
G04 Gerber Fmt 4.6, Leading zero omitted, Abs format (unit mm)*
G04 Created by KiCad (PCBNEW 7.0.7) date 2024-01-09 13:38:50*
%MOMM*%
%LPD*%
G01*
G04 APERTURE LIST*
G04 Aperture macros list*
%AMRoundRect*
0 Rectangle with rounded corners*
0 $1 Rounding radius*
0 $2 $3 $4 $5 $6 $7 $8 $9 X,Y pos of 4 corners*
0 Add a 4 corners polygon primitive as box body*
4,1,4,$2,$3,$4,$5,$6,$7,$8,$9,$2,$3,0*
0 Add four circle primitives for the rounded corners*
1,1,$1+$1,$2,$3*
1,1,$1+$1,$4,$5*
1,1,$1+$1,$6,$7*
1,1,$1+$1,$8,$9*
0 Add four rect primitives between the rounded corners*
20,1,$1+$1,$2,$3,$4,$5,0*
20,1,$1+$1,$4,$5,$6,$7,0*
20,1,$1+$1,$6,$7,$8,$9,0*
20,1,$1+$1,$8,$9,$2,$3,0*%
G04 Aperture macros list end*
%TA.AperFunction,SMDPad,CuDef*%
%ADD10RoundRect,0.250000X0.625000X-0.375000X0.625000X0.375000X-0.625000X0.375000X-0.625000X-0.375000X0*%
%TD*%
%TA.AperFunction,WasherPad*%
%ADD11C,3.500001*%
%TD*%
%TA.AperFunction,SMDPad,CuDef*%
%ADD12R,0.900000X0.500000*%
%TD*%
%TA.AperFunction,SMDPad,CuDef*%
%ADD13R,1.200000X1.800000*%
%TD*%
%TA.AperFunction,SMDPad,CuDef*%
%ADD14R,0.600000X1.550000*%
%TD*%
%TA.AperFunction,SMDPad,CuDef*%
%ADD15RoundRect,0.250000X-0.625000X0.375000X-0.625000X-0.375000X0.625000X-0.375000X0.625000X0.375000X0*%
%TD*%
%TA.AperFunction,ComponentPad*%
%ADD16C,3.500001*%
%TD*%
%TA.AperFunction,SMDPad,CuDef*%
%ADD17RoundRect,0.125000X0.000000X-0.150000X0.000000X-0.150000X0.000000X0.150000X0.000000X0.150000X0*%
%TD*%
%TA.AperFunction,SMDPad,CuDef*%
%ADD18R,0.250000X0.550000*%
%TD*%
%TA.AperFunction,SMDPad,CuDef*%
%ADD19R,0.300000X0.550000*%
%TD*%
%TA.AperFunction,SMDPad,CuDef*%
%ADD20RoundRect,0.150000X0.150000X0.575000X-0.150000X0.575000X-0.150000X-0.575000X0.150000X-0.575000X0*%
%TD*%
%TA.AperFunction,SMDPad,CuDef*%
%ADD21RoundRect,0.075000X0.075000X0.650000X-0.075000X0.650000X-0.075000X-0.650000X0.075000X-0.650000X0*%
%TD*%
%TA.AperFunction,ComponentPad*%
%ADD22O,1.100000X2.200000*%
%TD*%
%TA.AperFunction,ComponentPad*%
%ADD23O,1.300000X1.900000*%
%TD*%
%TA.AperFunction,SMDPad,CuDef*%
%ADD24R,1.800000X1.200000*%
%TD*%
%TA.AperFunction,SMDPad,CuDef*%
%ADD25R,1.550000X0.600000*%
%TD*%
%TA.AperFunction,ViaPad*%
%ADD26C,0.450000*%
%TD*%
%TA.AperFunction,ViaPad*%
%ADD27C,0.600000*%
%TD*%
%TA.AperFunction,ViaPad*%
%ADD28C,0.500000*%
%TD*%
%TA.AperFunction,Conductor*%
%ADD29C,0.500000*%
%TD*%
%TA.AperFunction,Conductor*%
%ADD30C,0.200000*%
%TD*%
G04 APERTURE END LIST*
D10*
%TO.P,L1,1,1*%
%TO.N,GND*%
X104200000Y-66400000D03*
%TO.P,L1,2,2*%
%TO.N,GNDPWR*%
X104200000Y-63600000D03*
%TD*%
D11*
%TO.P,MH3,*%
%TO.N,*%
X90000000Y-70000000D03*
%TD*%
%TO.P,MH1,*%
%TO.N,*%
X90000000Y-57500000D03*
%TD*%
D12*
%TO.P,R1,1*%
%TO.N,CC1*%
X99400000Y-63650000D03*
%TO.P,R1,2*%
%TO.N,GNDPWR*%
X99400000Y-65150000D03*
%TD*%
D13*
%TO.P,J3,*%
%TO.N,*%
X94200000Y-70850000D03*
X99800000Y-70850000D03*
D14*
%TO.P,J3,1,Pin_1*%
%TO.N,VCC*%
X95500000Y-66975000D03*
%TO.P,J3,2,Pin_2*%
%TO.N,DA-*%
X96500000Y-66975000D03*
%TO.P,J3,3,Pin_3*%
%TO.N,DA+*%
X97500000Y-66975000D03*
%TO.P,J3,4,Pin_4*%
%TO.N,GND*%
X98500000Y-66975000D03*
%TD*%
D11*
%TO.P,MH4,*%
%TO.N,*%
X104000000Y-70000000D03*
%TD*%
D15*
%TO.P,F1,1*%
%TO.N,VBUS*%
X101800000Y-63600000D03*
%TO.P,F1,2*%
%TO.N,VCC*%
X101800000Y-66400000D03*
%TD*%
D16*
%TO.P,MH2,1,Pin_1*%
%TO.N,GNDPWR*%
X104000000Y-57500000D03*
%TD*%
D17*
%TO.P,U1,1,IO1*%
%TO.N,DA+*%
X96000000Y-64985000D03*
D18*
%TO.P,U1,2,IO2*%
%TO.N,DA-*%
X96500000Y-64985000D03*
D19*
%TO.P,U1,3,GND*%
%TO.N,GNDPWR*%
X97000000Y-64985000D03*
D18*
%TO.P,U1,4,D2+*%
%TO.N,DA+*%
X97500000Y-64985000D03*
%TO.P,U1,5,D2-*%
%TO.N,DA-*%
X98000000Y-64985000D03*
%TO.P,U1,6,NC*%
X98000000Y-64215000D03*
%TO.P,U1,7,NC*%
%TO.N,DA+*%
X97500000Y-64215000D03*
D19*
%TO.P,U1,8,GND*%
%TO.N,GNDPWR*%
X97000000Y-64215000D03*
D18*
%TO.P,U1,9,NC*%
%TO.N,DA-*%
X96500000Y-64215000D03*
%TO.P,U1,10,NC*%
%TO.N,DA+*%
X96000000Y-64215000D03*
%TD*%
D20*
%TO.P,J1,A1,GND*%
%TO.N,GNDPWR*%
X100248000Y-61375000D03*
%TO.P,J1,A4,VBUS*%
%TO.N,VBUS*%
X99448000Y-61375000D03*
D21*
%TO.P,J1,A5,CC1*%
%TO.N,CC1*%
X98248000Y-61375000D03*
%TO.P,J1,A6,D+*%
%TO.N,DA+*%
X97252000Y-61375000D03*
%TO.P,J1,A7,D-*%
%TO.N,DA-*%
X96748000Y-61375000D03*
%TO.P,J1,A8,SBU1*%
%TO.N,unconnected-(J1-SBU1-PadA8)*%
X95748000Y-61375000D03*
D20*
%TO.P,J1,B1,GND*%
%TO.N,GNDPWR*%
X93748000Y-61375000D03*
%TO.P,J1,B4,VBUS*%
%TO.N,VBUS*%
X94548000Y-61375000D03*
D21*
%TO.P,J1,B5,CC2*%
%TO.N,CC2*%
X95248000Y-61375000D03*
%TO.P,J1,B6,D+*%
%TO.N,DA+*%
X96248000Y-61375000D03*
%TO.P,J1,B7,D-*%
%TO.N,DA-*%
X97748000Y-61375000D03*
%TO.P,J1,B8,SBU2*%
%TO.N,unconnected-(J1-SBU2-PadB8)*%
X98748000Y-61375000D03*
D22*
%TO.P,J1,S,SHIELD*%
%TO.N,GNDPWR*%
X101298000Y-60600000D03*
D23*
X101298000Y-56400000D03*
D22*
X92698000Y-60600000D03*
D23*
X92698000Y-56400000D03*
%TD*%
D12*
%TO.P,R2,1*%
%TO.N,CC2*%
X94600000Y-63650000D03*
%TO.P,R2,2*%
%TO.N,GNDPWR*%
X94600000Y-65150000D03*
%TD*%
D24*
%TO.P,J4,*%
%TO.N,*%
X89148000Y-61600000D03*
X89148000Y-67200000D03*
D25*
%TO.P,J4,1,Pin_1*%
%TO.N,VCC*%
X93023000Y-62900000D03*
%TO.P,J4,2,Pin_2*%
%TO.N,DA-*%
X93023000Y-63900000D03*
%TO.P,J4,3,Pin_3*%
%TO.N,DA+*%
X93023000Y-64900000D03*
%TO.P,J4,4,Pin_4*%
%TO.N,GND*%
X93023000Y-65900000D03*
%TD*%
D23*
%TO.P,J2,S,SHIELD*%
%TO.N,GNDPWR*%
X92698000Y-56400500D03*
D22*
X92698000Y-60600500D03*
D23*
X101298000Y-56400500D03*
D22*
X101298000Y-60600500D03*
%TD*%
D26*
%TO.N,GNDPWR*%
X97000000Y-64600000D03*
D27*
X99400000Y-64600000D03*
X94600000Y-64600000D03*
%TO.N,VBUS*%
X94548000Y-62648000D03*
X99448000Y-62648000D03*
D28*
%TO.N,CC1*%
X98748000Y-59980000D03*
%TO.N,DA+*%
X96248000Y-59301516D03*
X97797500Y-59881000D03*
X97500000Y-66975000D03*
X93023000Y-64900000D03*
X95598000Y-63880000D03*
%TO.N,DA-*%
X97248000Y-59378623D03*
X93023000Y-63900000D03*
X98400000Y-65600000D03*
X96500000Y-66975000D03*
%TO.N,CC2*%
X95248000Y-59980000D03*
D27*
%TO.N,GND*%
X93023000Y-65900000D03*
X98500000Y-66975000D03*
%TD*%
D29*
%TO.N,GNDPWR*%
X99400000Y-65150000D02*
X99400000Y-64600000D01*
X94600000Y-65150000D02*
X94600000Y-64600000D01*
%TO.N,VCC*%
X91400000Y-63400000D02*
X91400000Y-66475000D01*
X99392893Y-68600000D02*
X96000000Y-68600000D01*
X101800000Y-66400000D02*
X99746446Y-68453554D01*
X92775000Y-62900000D02*
X91900000Y-62900000D01*
X95500000Y-68100000D02*
X95500000Y-66975000D01*
X91900000Y-66975000D02*
X95500000Y-66975000D01*
X91900000Y-62900000D02*
G75*
G03*
X91400000Y-63400000I0J-500000D01*
G01*
X95500000Y-68100000D02*
G75*
G03*
X96000000Y-68600000I500000J0D01*
G01*
X91400000Y-66475000D02*
G75*
G03*
X91900000Y-66975000I500000J0D01*
G01*
X99392893Y-68599995D02*
G75*
G03*
X99746446Y-68453554I7J499995D01*
G01*
%TO.N,VBUS*%
X99448000Y-62648000D02*
X99448000Y-60825000D01*
X101800000Y-63600000D02*
X101140893Y-62940893D01*
X94548000Y-60825000D02*
X94548000Y-62648000D01*
X100433786Y-62648000D02*
X99448000Y-62648000D01*
D30*
X94548000Y-60825000D02*
X94548000Y-60819670D01*
D29*
X101140900Y-62940886D02*
G75*
G03*
X100433786Y-62648000I-707100J-707114D01*
G01*
D30*
%TO.N,CC1*%
X98394447Y-60333553D02*
X98748000Y-59980000D01*
X98248000Y-60825000D02*
X98248000Y-60687107D01*
X98248000Y-60825000D02*
X98248000Y-62083786D01*
X98540893Y-62790893D02*
X99400000Y-63650000D01*
X98248010Y-62083786D02*
G75*
G03*
X98540893Y-62790893I999990J-14D01*
G01*
X98394444Y-60333550D02*
G75*
G03*
X98248000Y-60687107I353556J-353550D01*
G01*
%TO.N,DA+*%
X96248000Y-60825000D02*
X96248000Y-63272761D01*
X97500000Y-63793553D02*
X97500000Y-64215000D01*
X96174776Y-63449538D02*
X96073223Y-63551091D01*
X96000000Y-64215000D02*
X95933000Y-64215000D01*
X96000000Y-64215000D02*
X96000000Y-64985000D01*
X97325224Y-63515224D02*
X97426777Y-63616777D01*
X96000000Y-63727867D02*
X96000000Y-64215000D01*
X96248000Y-59301516D02*
X96248000Y-60825000D01*
X97252000Y-60825000D02*
X97252000Y-60633607D01*
X97500000Y-64215000D02*
X97500000Y-64985000D01*
X97398447Y-60280053D02*
X97797500Y-59881000D01*
X95933000Y-64215000D02*
X95598000Y-63880000D01*
X97500000Y-64985000D02*
X97500000Y-66975000D01*
X97252000Y-60825000D02*
X97252000Y-63338447D01*
X96174796Y-63449558D02*
G75*
G03*
X96248000Y-63272761I-176796J176758D01*
G01*
X97398444Y-60280050D02*
G75*
G03*
X97252000Y-60633607I353556J-353550D01*
G01*
X97251968Y-63338447D02*
G75*
G03*
X97325225Y-63515223I250032J47D01*
G01*
X97500032Y-63793553D02*
G75*
G03*
X97426776Y-63616778I-250032J-47D01*
G01*
X96073239Y-63551107D02*
G75*
G03*
X96000000Y-63727867I176761J-176793D01*
G01*
%TO.N,DA-*%
X96674776Y-63515224D02*
X96573223Y-63616777D01*
X97248000Y-59378623D02*
X96894446Y-59732177D01*
X96500000Y-64985000D02*
X96500000Y-66975000D01*
X98000000Y-64985000D02*
X98000000Y-64992893D01*
X96500000Y-63793553D02*
X96500000Y-64215000D01*
X97821224Y-63445538D02*
X97926777Y-63551091D01*
X98000000Y-63727867D02*
X98000000Y-64215000D01*
X96748000Y-60825000D02*
X96748000Y-63338447D01*
X98000000Y-64215000D02*
X98000000Y-64985000D01*
X96748000Y-60085730D02*
X96748000Y-60825000D01*
X97748000Y-60825000D02*
X97748000Y-63268761D01*
X96500000Y-64215000D02*
X96500000Y-64985000D01*
X98146447Y-65346447D02*
X98400000Y-65600000D01*
X96573246Y-63616800D02*
G75*
G03*
X96500000Y-63793553I176754J-176800D01*
G01*
X97748028Y-63268761D02*
G75*
G03*
X97821224Y-63445538I249972J-39D01*
G01*
X96674753Y-63515201D02*
G75*
G03*
X96748000Y-63338447I-176753J176801D01*
G01*
X98000023Y-63727867D02*
G75*
G03*
X97926777Y-63551091I-250023J-33D01*
G01*
X98000005Y-64992893D02*
G75*
G03*
X98146447Y-65346447I499995J-7D01*
G01*
X96894431Y-59732162D02*
G75*
G03*
X96748000Y-60085730I353569J-353538D01*
G01*
%TO.N,CC2*%
X95248000Y-60825000D02*
X95248000Y-62587786D01*
X95248000Y-60825000D02*
X95248000Y-59980000D01*
X94955107Y-63294893D02*
X94600000Y-63650000D01*
X94955114Y-63294900D02*
G75*
G03*
X95248000Y-62587786I-707114J707100D01*
G01*
D29*
%TO.N,GND*%
X99900000Y-66975000D02*
X98500000Y-66975000D01*
X102692893Y-65100000D02*
X100900000Y-65100000D01*
X100400000Y-65600000D02*
X100400000Y-66475000D01*
X104200000Y-66400000D02*
X103046446Y-65246446D01*
X99900000Y-66975000D02*
G75*
G03*
X100400000Y-66475000I0J500000D01*
G01*
X100900000Y-65100000D02*
G75*
G03*
X100400000Y-65600000I0J-500000D01*
G01*
X103046449Y-65246443D02*
G75*
G03*
X102692893Y-65100000I-353549J-353557D01*
G01*
%TD*%
%TA.AperFunction,Conductor*%
%TO.N,GNDPWR*%
G36*
X95184793Y-64095554D02*
G01*
X95210169Y-64122853D01*
X95212212Y-64121541D01*
X95215119Y-64126065D01*
X95299948Y-64223964D01*
X95299952Y-64223968D01*
X95384388Y-64278231D01*
X95408931Y-64294004D01*
X95533228Y-64330500D01*
X95592379Y-64330500D01*
X95640717Y-64348093D01*
X95645550Y-64352522D01*
X95652471Y-64359442D01*
X95674213Y-64406060D01*
X95674500Y-64412620D01*
X95674500Y-64509748D01*
X95686132Y-64568229D01*
X95686825Y-64569266D01*
X95687545Y-64571640D01*
X95688968Y-64575075D01*
X95688629Y-64575215D01*
X95699500Y-64611048D01*
X95699500Y-64692555D01*
X95692454Y-64724336D01*
X95680742Y-64749451D01*
X95680740Y-64749457D01*
X95674500Y-64796862D01*
X95674500Y-65173135D01*
X95680741Y-65220546D01*
X95729250Y-65324575D01*
X95729256Y-65324583D01*
X95810416Y-65405743D01*
X95810424Y-65405749D01*
X95914450Y-65454257D01*
X95914452Y-65454257D01*
X95914455Y-65454259D01*
X95961861Y-65460500D01*
X96038138Y-65460499D01*
X96085545Y-65454259D01*
X96092519Y-65451006D01*
X96143762Y-65446523D01*
X96185900Y-65476027D01*
X96199500Y-65519161D01*
X96199500Y-65933956D01*
X96181907Y-65982294D01*
X96138972Y-66007711D01*
X96121770Y-66011132D01*
X96121768Y-66011133D01*
X96055445Y-66055450D01*
X96053174Y-66057722D01*
X96049440Y-66059462D01*
X96049291Y-66059563D01*
X96049275Y-66059539D01*
X96006554Y-66079462D01*
X95956867Y-66066148D01*
X95946826Y-66057722D01*
X95944554Y-66055450D01*
X95944552Y-66055449D01*
X95944552Y-66055448D01*
X95878231Y-66011133D01*
X95878229Y-66011132D01*
X95819749Y-65999500D01*
X95819748Y-65999500D01*
X95180252Y-65999500D01*
X95180251Y-65999500D01*
X95121770Y-66011132D01*
X95121768Y-66011133D01*
X95055448Y-66055448D01*
X95011133Y-66121768D01*
X95011132Y-66121770D01*
X94999500Y-66180251D01*
X94999500Y-66449300D01*
X94981907Y-66497638D01*
X94937358Y-66523358D01*
X94924300Y-66524500D01*
X93921143Y-66524500D01*
X93872805Y-66506907D01*
X93847085Y-66462358D01*
X93856018Y-66411700D01*
X93879363Y-66386774D01*
X93884194Y-66383546D01*
X93942552Y-66344552D01*
X93986867Y-66278231D01*
X93998500Y-66219748D01*
X93998500Y-65580252D01*
X93997923Y-65577353D01*
X93992582Y-65550500D01*
X93986867Y-65521769D01*
X93942552Y-65455448D01*
X93942550Y-65455446D01*
X93942549Y-65455445D01*
X93940278Y-65453174D01*
X93938537Y-65449440D01*
X93938437Y-65449291D01*
X93938460Y-65449275D01*
X93918538Y-65406554D01*
X93931852Y-65356867D01*
X93940278Y-65346826D01*
X93942549Y-65344554D01*
X93942548Y-65344554D01*
X93942552Y-65344552D01*
X93986867Y-65278231D01*
X93998500Y-65219748D01*
X93998500Y-64580252D01*
X93996108Y-64568229D01*
X93986867Y-64521770D01*
X93986866Y-64521768D01*
X93942552Y-64455448D01*
X93942550Y-64455446D01*
X93942549Y-64455445D01*
X93940278Y-64453174D01*
X93938537Y-64449440D01*
X93938437Y-64449291D01*
X93938460Y-64449275D01*
X93918538Y-64406554D01*
X93931852Y-64356867D01*
X93940278Y-64346826D01*
X93942549Y-64344554D01*
X93942548Y-64344554D01*
X93942552Y-64344552D01*
X93986867Y-64278231D01*
X93998500Y-64219748D01*
X93998500Y-64165924D01*
X94016093Y-64117586D01*
X94060642Y-64091866D01*
X94088369Y-64092168D01*
X94130252Y-64100500D01*
X95069749Y-64100500D01*
X95133952Y-64087729D01*
X95184793Y-64095554D01*
G37*
%TD.AperFunction*%
%TA.AperFunction,Conductor*%
G36*
X97030274Y-63644527D02*
G01*
X97062498Y-63671563D01*
X97068494Y-63680534D01*
X97070864Y-63684845D01*
X97073017Y-63687987D01*
X97073018Y-63687989D01*
X97073105Y-63688076D01*
X97073203Y-63688184D01*
X97074423Y-63689403D01*
X97074424Y-63689405D01*
X97108513Y-63723483D01*
X97108513Y-63723484D01*
X97168371Y-63783343D01*
X97190110Y-63829964D01*
X97186372Y-63854265D01*
X97187578Y-63854505D01*
X97174500Y-63920251D01*
X97174500Y-64509748D01*
X97186132Y-64568230D01*
X97187372Y-64571222D01*
X97187553Y-64575371D01*
X97187578Y-64575496D01*
X97187558Y-64575499D01*
X97189616Y-64622613D01*
X97187373Y-64628776D01*
X97186132Y-64631770D01*
X97174500Y-64690251D01*
X97174500Y-65279748D01*
X97186132Y-65338229D01*
X97186825Y-65339266D01*
X97187545Y-65341640D01*
X97188968Y-65345075D01*
X97188629Y-65345215D01*
X97199500Y-65381048D01*
X97199500Y-65933956D01*
X97181907Y-65982294D01*
X97138972Y-66007711D01*
X97121770Y-66011132D01*
X97121768Y-66011133D01*
X97055445Y-66055450D01*
X97053174Y-66057722D01*
X97049440Y-66059462D01*
X97049291Y-66059563D01*
X97049275Y-66059539D01*
X97006554Y-66079462D01*
X96956867Y-66066148D01*
X96946826Y-66057722D01*
X96944554Y-66055450D01*
X96944552Y-66055449D01*
X96944552Y-66055448D01*
X96878231Y-66011133D01*
X96878229Y-66011132D01*
X96861028Y-66007711D01*
X96817052Y-65981024D01*
X96800500Y-65933956D01*
X96800500Y-65381048D01*
X96811370Y-65345215D01*
X96811032Y-65345075D01*
X96812454Y-65341640D01*
X96813175Y-65339266D01*
X96813867Y-65338231D01*
X96825500Y-65279748D01*
X96825500Y-64690252D01*
X96813867Y-64631769D01*
X96813864Y-64631765D01*
X96812629Y-64628782D01*
X96812447Y-64624633D01*
X96812422Y-64624505D01*
X96812441Y-64624501D01*
X96810382Y-64577391D01*
X96812630Y-64571216D01*
X96813864Y-64568234D01*
X96813867Y-64568231D01*
X96825500Y-64509748D01*
X96825500Y-63920252D01*
X96813867Y-63861769D01*
X96813866Y-63861768D01*
X96812422Y-63854505D01*
X96814836Y-63854024D01*
X96813079Y-63813915D01*
X96831629Y-63783341D01*
X96887145Y-63727827D01*
X96906951Y-63708021D01*
X96906951Y-63708020D01*
X96907947Y-63707025D01*
X96908369Y-63706560D01*
X96925552Y-63689384D01*
X96937460Y-63671566D01*
X96978945Y-63641157D01*
X97030274Y-63644527D01*
G37*
%TD.AperFunction*%
%TA.AperFunction,Conductor*%
G36*
X104001212Y-55500579D02*
G01*
X104083743Y-55505988D01*
X104266975Y-55519094D01*
X104271614Y-55519719D01*
X104389441Y-55543157D01*
X104535023Y-55574826D01*
X104539084Y-55575954D01*
X104600324Y-55596743D01*
X104659424Y-55616805D01*
X104792909Y-55666592D01*
X104796380Y-55668091D01*
X104912631Y-55725420D01*
X104912952Y-55725578D01*
X105035869Y-55792696D01*
X105038724Y-55794423D01*
X105147176Y-55866889D01*
X105148820Y-55868052D01*
X105259396Y-55950828D01*
X105261653Y-55952658D01*
X105307332Y-55992718D01*
X105360104Y-56038997D01*
X105361884Y-56040664D01*
X105459333Y-56138113D01*
X105461001Y-56139894D01*
X105547338Y-56238343D01*
X105549170Y-56240602D01*
X105631946Y-56351178D01*
X105633109Y-56352822D01*
X105705564Y-56461257D01*
X105707302Y-56464128D01*
X105774421Y-56587047D01*
X105831903Y-56703609D01*
X105833411Y-56707101D01*
X105883195Y-56840575D01*
X105924041Y-56960906D01*
X105925179Y-56965003D01*
X105956847Y-57110580D01*
X105980279Y-57228383D01*
X105980906Y-57233040D01*
X105994017Y-57416351D01*
X105999419Y-57498772D01*
X105999500Y-57501231D01*
X105999500Y-68679369D01*
X105981907Y-68727707D01*
X105937358Y-68753427D01*
X105886700Y-68744494D01*
X105861773Y-68721148D01*
X105833857Y-68679369D01*
X105795633Y-68622162D01*
X105691335Y-68503233D01*
X105600427Y-68399572D01*
X105481837Y-68295572D01*
X105377838Y-68204367D01*
X105131673Y-68039885D01*
X105084158Y-68016453D01*
X104866144Y-67908940D01*
X104684297Y-67847212D01*
X104585797Y-67813776D01*
X104585794Y-67813775D01*
X104585793Y-67813775D01*
X104377089Y-67772261D01*
X104295426Y-67756017D01*
X104295424Y-67756016D01*
X104295420Y-67756016D01*
X104000000Y-67736654D01*
X103704579Y-67756016D01*
X103704574Y-67756017D01*
X103414206Y-67813775D01*
X103133855Y-67908940D01*
X102868330Y-68039883D01*
X102622162Y-68204367D01*
X102399572Y-68399572D01*
X102204367Y-68622162D01*
X102039883Y-68868330D01*
X101908940Y-69133855D01*
X101813775Y-69414206D01*
X101756017Y-69704574D01*
X101756016Y-69704579D01*
X101736654Y-69999999D01*
X101736654Y-70000000D01*
X101756016Y-70295420D01*
X101756017Y-70295425D01*
X101813775Y-70585793D01*
X101908940Y-70866144D01*
X102039883Y-71131669D01*
X102039885Y-71131673D01*
X102204367Y-71377838D01*
X102295572Y-71481837D01*
X102399572Y-71600427D01*
X102503572Y-71691632D01*
X102622162Y-71795633D01*
X102721148Y-71861773D01*
X102751565Y-71903257D01*
X102748200Y-71954587D01*
X102712629Y-71991745D01*
X102679369Y-71999500D01*
X100615117Y-71999500D01*
X100566779Y-71981907D01*
X100541059Y-71937358D01*
X100549992Y-71886700D01*
X100552582Y-71882534D01*
X100588867Y-71828231D01*
X100600500Y-71769748D01*
X100600500Y-69930252D01*
X100588867Y-69871769D01*
X100544552Y-69805448D01*
X100478231Y-69761133D01*
X100478229Y-69761132D01*
X100419749Y-69749500D01*
X100419748Y-69749500D01*
X99180252Y-69749500D01*
X99180251Y-69749500D01*
X99121770Y-69761132D01*
X99121768Y-69761133D01*
X99055448Y-69805448D01*
X99011133Y-69871768D01*
X99011132Y-69871770D01*
X98999500Y-69930251D01*
X98999500Y-71769748D01*
X99011132Y-71828229D01*
X99011133Y-71828231D01*
X99047409Y-71882521D01*
X99059636Y-71932486D01*
X99036885Y-71978621D01*
X98989802Y-71999339D01*
X98984883Y-71999500D01*
X95015117Y-71999500D01*
X94966779Y-71981907D01*
X94941059Y-71937358D01*
X94949992Y-71886700D01*
X94952582Y-71882534D01*
X94988867Y-71828231D01*
X95000500Y-71769748D01*
X95000500Y-69930252D01*
X94988867Y-69871769D01*
X94944552Y-69805448D01*
X94878231Y-69761133D01*
X94878229Y-69761132D01*
X94819749Y-69749500D01*
X94819748Y-69749500D01*
X93580252Y-69749500D01*
X93580251Y-69749500D01*
X93521770Y-69761132D01*
X93521768Y-69761133D01*
X93455448Y-69805448D01*
X93411133Y-69871768D01*
X93411132Y-69871770D01*
X93399500Y-69930251D01*
X93399500Y-71769748D01*
X93411132Y-71828229D01*
X93411133Y-71828231D01*
X93447409Y-71882521D01*
X93459636Y-71932486D01*
X93436885Y-71978621D01*
X93389802Y-71999339D01*
X93384883Y-71999500D01*
X91320631Y-71999500D01*
X91272293Y-71981907D01*
X91246573Y-71937358D01*
X91255506Y-71886700D01*
X91278852Y-71861773D01*
X91377838Y-71795633D01*
X91600427Y-71600427D01*
X91795633Y-71377838D01*
X91960115Y-71131673D01*
X92091059Y-70866145D01*
X92186224Y-70585797D01*
X92243983Y-70295426D01*
X92263346Y-70000000D01*
X92243983Y-69704574D01*
X92186224Y-69414203D01*
X92091059Y-69133855D01*
X91960115Y-68868327D01*
X91795633Y-68622162D01*
X91691335Y-68503233D01*
X91600427Y-68399572D01*
X91481837Y-68295572D01*
X91377838Y-68204367D01*
X91131673Y-68039885D01*
X91084158Y-68016453D01*
X90866144Y-67908940D01*
X90684297Y-67847212D01*
X90585797Y-67813776D01*
X90585794Y-67813775D01*
X90585793Y-67813775D01*
X90309029Y-67758722D01*
X90265052Y-67732036D01*
X90248500Y-67684967D01*
X90248500Y-66580251D01*
X90244105Y-66558157D01*
X90949500Y-66558157D01*
X90978381Y-66721951D01*
X91035265Y-66878236D01*
X91118420Y-67022264D01*
X91118422Y-67022267D01*
X91154866Y-67065700D01*
X91225326Y-67149673D01*
X91295786Y-67208794D01*
X91352733Y-67256578D01*
X91352735Y-67256579D01*
X91496763Y-67339734D01*
X91496764Y-67339734D01*
X91496767Y-67339736D01*
X91653053Y-67396620D01*
X91816842Y-67425500D01*
X91832098Y-67425500D01*
X94924300Y-67425500D01*
X94972638Y-67443093D01*
X94998358Y-67487642D01*
X94999500Y-67500700D01*
X94999500Y-67769748D01*
X95011132Y-67828229D01*
X95011134Y-67828234D01*
X95036826Y-67866683D01*
X95049500Y-67908462D01*
X95049500Y-68183157D01*
X95078381Y-68346951D01*
X95135265Y-68503236D01*
X95218420Y-68647264D01*
X95218422Y-68647267D01*
X95254866Y-68690700D01*
X95325326Y-68774673D01*
X95385310Y-68825004D01*
X95452733Y-68881578D01*
X95452735Y-68881579D01*
X95596763Y-68964734D01*
X95596764Y-68964734D01*
X95596767Y-68964736D01*
X95753053Y-69021620D01*
X95916842Y-69050500D01*
X99428114Y-69050500D01*
X99428232Y-69050495D01*
X99467693Y-69050496D01*
X99615463Y-69027093D01*
X99757752Y-68980863D01*
X99891058Y-68912942D01*
X100012097Y-68825004D01*
X100012676Y-68824425D01*
X100012698Y-68824407D01*
X101589577Y-67247526D01*
X101636197Y-67225786D01*
X101642751Y-67225500D01*
X102479272Y-67225500D01*
X102493312Y-67224182D01*
X102509699Y-67222646D01*
X102637882Y-67177793D01*
X102747150Y-67097150D01*
X102827793Y-66987882D01*
X102872646Y-66859699D01*
X102874073Y-66844482D01*
X102875500Y-66829273D01*
X102875500Y-65970726D01*
X102873869Y-65953343D01*
X102872646Y-65940301D01*
X102857366Y-65896633D01*
X102858007Y-65845200D01*
X102891560Y-65806209D01*
X102942326Y-65797909D01*
X102981520Y-65818624D01*
X103102474Y-65939578D01*
X103124214Y-65986198D01*
X103124500Y-65992752D01*
X103124500Y-66829273D01*
X103127353Y-66859692D01*
X103127354Y-66859699D01*
X103127355Y-66859701D01*
X103172205Y-66987879D01*
X103172207Y-66987882D01*
X103252850Y-67097150D01*
X103324017Y-67149673D01*
X103362117Y-67177792D01*
X103362120Y-67177794D01*
X103392889Y-67188560D01*
X103490301Y-67222646D01*
X103504346Y-67223963D01*
X103520727Y-67225500D01*
X103520734Y-67225500D01*
X104879272Y-67225500D01*
X104893312Y-67224182D01*
X104909699Y-67222646D01*
X105037882Y-67177793D01*
X105147150Y-67097150D01*
X105227793Y-66987882D01*
X105272646Y-66859699D01*
X105274073Y-66844482D01*
X105275500Y-66829273D01*
X105275500Y-65970726D01*
X105273869Y-65953343D01*
X105272646Y-65940301D01*
X105227793Y-65812118D01*
X105147150Y-65702850D01*
X105037882Y-65622207D01*
X105037879Y-65622205D01*
X104923588Y-65582214D01*
X104909699Y-65577354D01*
X104909694Y-65577353D01*
X104909692Y-65577353D01*
X104879273Y-65574500D01*
X104879266Y-65574500D01*
X104042751Y-65574500D01*
X103994413Y-65556907D01*
X103989577Y-65552474D01*
X103384844Y-64947741D01*
X103384837Y-64947727D01*
X103312102Y-64874993D01*
X103312099Y-64874990D01*
X103191060Y-64787053D01*
X103191053Y-64787049D01*
X103057754Y-64719133D01*
X103057753Y-64719132D01*
X102915467Y-64672903D01*
X102915464Y-64672902D01*
X102767693Y-64649499D01*
X102767692Y-64649499D01*
X102692886Y-64649500D01*
X100959309Y-64649500D01*
X100900000Y-64649500D01*
X100816842Y-64649500D01*
X100653053Y-64678380D01*
X100653052Y-64678380D01*
X100653048Y-64678381D01*
X100496763Y-64735265D01*
X100352735Y-64818420D01*
X100225326Y-64925326D01*
X100118420Y-65052735D01*
X100035265Y-65196763D01*
X99978381Y-65353048D01*
X99978380Y-65353052D01*
X99978380Y-65353053D01*
X99957447Y-65471771D01*
X99949500Y-65516842D01*
X99949500Y-66449300D01*
X99931907Y-66497638D01*
X99887358Y-66523358D01*
X99874300Y-66524500D01*
X99075700Y-66524500D01*
X99027362Y-66506907D01*
X99001642Y-66462358D01*
X99000500Y-66449300D01*
X99000500Y-66180251D01*
X98988867Y-66121770D01*
X98988866Y-66121768D01*
X98944552Y-66055448D01*
X98878231Y-66011133D01*
X98878229Y-66011132D01*
X98819749Y-65999500D01*
X98819748Y-65999500D01*
X98814594Y-65999500D01*
X98766256Y-65981907D01*
X98740536Y-65937358D01*
X98749469Y-65886700D01*
X98757761Y-65875055D01*
X98763376Y-65868573D01*
X98782882Y-65846063D01*
X98836697Y-65728226D01*
X98855133Y-65600000D01*
X98836697Y-65471774D01*
X98831548Y-65460500D01*
X98782882Y-65353937D01*
X98782880Y-65353934D01*
X98698051Y-65256035D01*
X98698047Y-65256031D01*
X98589068Y-65185995D01*
X98501267Y-65160215D01*
X98464772Y-65149500D01*
X98464771Y-65149500D01*
X98407941Y-65149500D01*
X98359603Y-65131907D01*
X98348282Y-65120080D01*
X98341038Y-65110640D01*
X98325500Y-65064863D01*
X98325500Y-64690251D01*
X98313867Y-64631771D01*
X98313867Y-64631770D01*
X98313867Y-64631769D01*
X98313864Y-64631765D01*
X98312629Y-64628782D01*
X98312447Y-64624633D01*
X98312422Y-64624505D01*
X98312441Y-64624501D01*
X98310382Y-64577391D01*
X98312630Y-64571216D01*
X98313864Y-64568234D01*
X98313867Y-64568231D01*
X98325500Y-64509748D01*
X98325500Y-63920252D01*
X98313867Y-63861769D01*
X98313173Y-63860730D01*
X98312453Y-63858356D01*
X98311032Y-63854926D01*
X98311369Y-63854786D01*
X98300500Y-63818952D01*
X98300500Y-63781525D01*
X98300507Y-63781426D01*
X98300506Y-63775424D01*
X98300507Y-63775422D01*
X98300504Y-63759002D01*
X98300526Y-63758940D01*
X98300522Y-63727827D01*
X98300523Y-63727827D01*
X98300516Y-63673608D01*
X98279348Y-63567257D01*
X98237840Y-63467078D01*
X98237116Y-63465995D01*
X98183505Y-63385777D01*
X98181136Y-63381468D01*
X98178988Y-63378332D01*
X98178984Y-63378328D01*
X98178983Y-63378325D01*
X98178835Y-63378177D01*
X98178765Y-63378099D01*
X98142990Y-63342332D01*
X98070534Y-63269877D01*
X98050972Y-63227929D01*
X98049602Y-63228166D01*
X98049592Y-63228108D01*
X98049263Y-63224262D01*
X98048794Y-63223257D01*
X98048508Y-63216645D01*
X98048508Y-63215446D01*
X98048499Y-63215343D01*
X98048499Y-62876793D01*
X98066092Y-62828457D01*
X98110641Y-62802737D01*
X98161299Y-62811670D01*
X98184535Y-62832591D01*
X98256033Y-62931002D01*
X98271181Y-62946150D01*
X98287076Y-62962047D01*
X98287088Y-62962060D01*
X98328405Y-63003376D01*
X98366337Y-63041309D01*
X98366344Y-63041315D01*
X98727474Y-63402444D01*
X98749214Y-63449064D01*
X98749500Y-63455618D01*
X98749500Y-63919748D01*
X98761132Y-63978229D01*
X98761133Y-63978231D01*
X98805448Y-64044552D01*
X98871769Y-64088867D01*
X98901010Y-64094683D01*
X98930251Y-64100500D01*
X98930252Y-64100500D01*
X99869749Y-64100500D01*
X99894613Y-64095554D01*
X99928231Y-64088867D01*
X99994552Y-64044552D01*
X100038867Y-63978231D01*
X100050500Y-63919748D01*
X100050500Y-63380252D01*
X100049840Y-63376936D01*
X100042957Y-63342332D01*
X100038867Y-63321769D01*
X99994552Y-63255448D01*
X99965783Y-63236225D01*
X99935368Y-63194742D01*
X99938733Y-63143412D01*
X99974305Y-63106255D01*
X100007564Y-63098500D01*
X100374483Y-63098500D01*
X100431944Y-63098500D01*
X100435629Y-63098680D01*
X100533625Y-63108331D01*
X100548082Y-63111207D01*
X100575452Y-63119509D01*
X100636996Y-63138178D01*
X100650604Y-63143814D01*
X100684748Y-63162063D01*
X100719085Y-63200363D01*
X100724500Y-63228383D01*
X100724500Y-64029273D01*
X100726733Y-64053080D01*
X100727354Y-64059699D01*
X100727355Y-64059701D01*
X100772205Y-64187879D01*
X100772207Y-64187882D01*
X100852850Y-64297150D01*
X100962117Y-64377792D01*
X100962120Y-64377794D01*
X100972629Y-64381471D01*
X101090301Y-64422646D01*
X101104346Y-64423963D01*
X101120727Y-64425500D01*
X101120734Y-64425500D01*
X102479272Y-64425500D01*
X102493312Y-64424182D01*
X102509699Y-64422646D01*
X102637882Y-64377793D01*
X102747150Y-64297150D01*
X102827793Y-64187882D01*
X102872646Y-64059699D01*
X102875042Y-64034153D01*
X102875500Y-64029273D01*
X102875500Y-63170726D01*
X102873415Y-63148500D01*
X102872646Y-63140301D01*
X102827793Y-63012118D01*
X102747150Y-62902850D01*
X102637882Y-62822207D01*
X102637879Y-62822205D01*
X102538489Y-62787428D01*
X102509699Y-62777354D01*
X102509694Y-62777353D01*
X102509692Y-62777353D01*
X102479273Y-62774500D01*
X102479266Y-62774500D01*
X101642751Y-62774500D01*
X101594413Y-62756907D01*
X101589577Y-62752474D01*
X101505668Y-62668565D01*
X101505666Y-62668562D01*
X101481474Y-62644370D01*
X101481461Y-62644343D01*
X101392226Y-62555111D01*
X101392222Y-62555107D01*
X101241370Y-62439357D01*
X101076701Y-62344288D01*
X101076697Y-62344286D01*
X101076693Y-62344284D01*
X100901037Y-62271527D01*
X100901024Y-62271523D01*
X100717375Y-62222317D01*
X100717368Y-62222315D01*
X100670238Y-62216111D01*
X100528851Y-62197499D01*
X100528848Y-62197499D01*
X100433780Y-62197500D01*
X99987614Y-62197500D01*
X99939276Y-62179907D01*
X99913556Y-62135358D01*
X99920055Y-62089272D01*
X99938573Y-62051393D01*
X99948500Y-61983260D01*
X99948500Y-60766740D01*
X99948498Y-60766729D01*
X99938801Y-60700172D01*
X99949241Y-60649802D01*
X99989615Y-60617928D01*
X100003389Y-60614774D01*
X100038236Y-60610187D01*
X100178233Y-60552198D01*
X100298451Y-60459951D01*
X100390698Y-60339733D01*
X100448687Y-60199736D01*
X100468466Y-60049500D01*
X100468466Y-60049497D01*
X100468466Y-60049002D01*
X100466480Y-60033914D01*
X100448687Y-59898764D01*
X100390698Y-59758767D01*
X100373926Y-59736909D01*
X100298451Y-59638548D01*
X100178236Y-59546304D01*
X100178235Y-59546303D01*
X100178233Y-59546302D01*
X100087734Y-59508816D01*
X100038237Y-59488313D01*
X100010106Y-59484609D01*
X99925720Y-59473500D01*
X99850280Y-59473500D01*
X99782770Y-59482387D01*
X99737762Y-59488313D01*
X99662023Y-59519686D01*
X99597767Y-59546302D01*
X99597766Y-59546302D01*
X99597763Y-59546304D01*
X99477548Y-59638548D01*
X99385304Y-59758763D01*
X99385302Y-59758766D01*
X99385302Y-59758767D01*
X99346778Y-59851771D01*
X99331360Y-59888994D01*
X99296607Y-59926919D01*
X99245607Y-59933633D01*
X99202224Y-59905995D01*
X99187449Y-59870918D01*
X99184697Y-59851775D01*
X99184697Y-59851774D01*
X99148982Y-59773571D01*
X99130882Y-59733937D01*
X99130880Y-59733934D01*
X99046051Y-59636035D01*
X99046047Y-59636031D01*
X98937068Y-59565995D01*
X98838434Y-59537035D01*
X98812772Y-59529500D01*
X98683228Y-59529500D01*
X98657579Y-59537031D01*
X98558931Y-59565995D01*
X98449952Y-59636031D01*
X98449948Y-59636035D01*
X98365119Y-59733934D01*
X98365115Y-59733940D01*
X98363758Y-59736913D01*
X98327672Y-59773571D01*
X98276465Y-59778457D01*
X98234097Y-59749285D01*
X98226952Y-59736909D01*
X98180382Y-59634937D01*
X98180380Y-59634934D01*
X98095551Y-59537035D01*
X98095547Y-59537031D01*
X97986568Y-59466995D01*
X97898766Y-59441215D01*
X97862272Y-59430500D01*
X97775753Y-59430500D01*
X97727415Y-59412907D01*
X97701695Y-59368358D01*
X97701318Y-59366002D01*
X97684697Y-59250397D01*
X97671818Y-59222197D01*
X97630882Y-59132560D01*
X97630880Y-59132557D01*
X97546051Y-59034658D01*
X97546047Y-59034654D01*
X97437068Y-58964618D01*
X97349266Y-58938838D01*
X97312772Y-58928123D01*
X97183228Y-58928123D01*
X97155016Y-58936406D01*
X97058931Y-58964618D01*
X96949952Y-59034654D01*
X96949948Y-59034658D01*
X96865119Y-59132557D01*
X96865117Y-59132560D01*
X96829834Y-59209818D01*
X96793750Y-59246479D01*
X96742543Y-59251367D01*
X96700173Y-59222197D01*
X96686996Y-59189280D01*
X96684697Y-59173290D01*
X96630882Y-59055453D01*
X96630880Y-59055450D01*
X96546051Y-58957551D01*
X96546047Y-58957547D01*
X96437068Y-58887511D01*
X96349267Y-58861731D01*
X96312772Y-58851016D01*
X96183228Y-58851016D01*
X96155016Y-58859299D01*
X96058931Y-58887511D01*
X95949952Y-58957547D01*
X95949948Y-58957551D01*
X95865119Y-59055450D01*
X95865117Y-59055453D01*
X95811303Y-59173287D01*
X95792867Y-59301515D01*
X95811303Y-59429744D01*
X95865117Y-59547578D01*
X95865121Y-59547585D01*
X95929132Y-59621457D01*
X95947491Y-59669509D01*
X95947500Y-59670702D01*
X95947500Y-60377235D01*
X95929907Y-60425573D01*
X95885358Y-60451293D01*
X95857635Y-60450991D01*
X95850136Y-60449500D01*
X95645866Y-60449500D01*
X95645865Y-60449501D01*
X95638370Y-60450992D01*
X95587529Y-60443167D01*
X95553613Y-60404492D01*
X95548500Y-60377237D01*
X95548500Y-60349186D01*
X95566093Y-60300848D01*
X95566868Y-60299941D01*
X95630878Y-60226069D01*
X95630880Y-60226064D01*
X95630882Y-60226063D01*
X95684697Y-60108226D01*
X95703133Y-59980000D01*
X95684697Y-59851774D01*
X95648982Y-59773571D01*
X95630882Y-59733937D01*
X95630880Y-59733934D01*
X95546051Y-59636035D01*
X95546047Y-59636031D01*
X95437068Y-59565995D01*
X95338434Y-59537035D01*
X95312772Y-59529500D01*
X95183228Y-59529500D01*
X95157579Y-59537031D01*
X95058931Y-59565995D01*
X94949952Y-59636031D01*
X94949948Y-59636035D01*
X94865119Y-59733934D01*
X94865117Y-59733937D01*
X94811303Y-59851771D01*
X94811302Y-59851775D01*
X94808549Y-59870921D01*
X94784254Y-59916262D01*
X94736498Y-59935378D01*
X94687627Y-59919325D01*
X94664641Y-59888997D01*
X94610698Y-59758767D01*
X94593926Y-59736909D01*
X94518451Y-59638548D01*
X94398236Y-59546304D01*
X94398235Y-59546303D01*
X94398233Y-59546302D01*
X94307734Y-59508816D01*
X94258237Y-59488313D01*
X94230106Y-59484609D01*
X94145720Y-59473500D01*
X94070280Y-59473500D01*
X94002770Y-59482387D01*
X93957762Y-59488313D01*
X93882023Y-59519686D01*
X93817767Y-59546302D01*
X93817766Y-59546302D01*
X93817763Y-59546304D01*
X93697548Y-59638548D01*
X93605304Y-59758763D01*
X93605302Y-59758766D01*
X93605302Y-59758767D01*
X93599170Y-59773571D01*
X93547313Y-59898762D01*
X93547312Y-59898764D01*
X93547313Y-59898764D01*
X93527534Y-60049000D01*
X93527534Y-60049001D01*
X93527532Y-60049019D01*
X93527533Y-60049443D01*
X93527532Y-60049489D01*
X93547313Y-60199737D01*
X93558394Y-60226487D01*
X93605302Y-60339733D01*
X93605303Y-60339735D01*
X93605304Y-60339736D01*
X93697548Y-60459951D01*
X93784115Y-60526376D01*
X93817767Y-60552198D01*
X93957764Y-60610187D01*
X93992601Y-60614773D01*
X94038227Y-60638524D01*
X94057912Y-60686048D01*
X94057198Y-60700171D01*
X94047500Y-60766729D01*
X94047500Y-61983268D01*
X94057427Y-62051392D01*
X94089859Y-62117733D01*
X94097500Y-62150761D01*
X94097500Y-62413279D01*
X94090703Y-62444521D01*
X94083605Y-62460062D01*
X94047520Y-62496721D01*
X93996313Y-62501609D01*
X93953944Y-62472438D01*
X93952677Y-62470600D01*
X93942553Y-62455449D01*
X93926198Y-62444521D01*
X93876231Y-62411133D01*
X93876229Y-62411132D01*
X93817749Y-62399500D01*
X93817748Y-62399500D01*
X92228252Y-62399500D01*
X92228251Y-62399500D01*
X92169770Y-62411132D01*
X92169765Y-62411134D01*
X92131317Y-62436826D01*
X92089538Y-62449500D01*
X91959309Y-62449500D01*
X91900000Y-62449500D01*
X91816842Y-62449500D01*
X91653053Y-62478380D01*
X91653052Y-62478380D01*
X91653048Y-62478381D01*
X91496763Y-62535265D01*
X91352735Y-62618420D01*
X91225326Y-62725326D01*
X91118420Y-62852735D01*
X91035265Y-62996763D01*
X90978381Y-63153048D01*
X90978380Y-63153052D01*
X90978380Y-63153053D01*
X90963715Y-63236226D01*
X90949500Y-63316842D01*
X90949500Y-66558157D01*
X90244105Y-66558157D01*
X90236867Y-66521770D01*
X90236866Y-66521768D01*
X90222154Y-66499750D01*
X90192552Y-66455448D01*
X90126231Y-66411133D01*
X90126229Y-66411132D01*
X90067749Y-66399500D01*
X90067748Y-66399500D01*
X88228252Y-66399500D01*
X88228251Y-66399500D01*
X88169770Y-66411132D01*
X88169765Y-66411134D01*
X88117479Y-66446072D01*
X88067513Y-66458299D01*
X88021378Y-66435548D01*
X88000661Y-66388465D01*
X88000500Y-66383546D01*
X88000500Y-62416453D01*
X88018093Y-62368115D01*
X88062642Y-62342395D01*
X88113300Y-62351328D01*
X88117457Y-62353913D01*
X88169769Y-62388867D01*
X88199010Y-62394683D01*
X88228251Y-62400500D01*
X88228252Y-62400500D01*
X90067749Y-62400500D01*
X90087242Y-62396622D01*
X90126231Y-62388867D01*
X90192552Y-62344552D01*
X90236867Y-62278231D01*
X90248500Y-62219748D01*
X90248500Y-60980252D01*
X90236867Y-60921769D01*
X90192552Y-60855448D01*
X90126231Y-60811133D01*
X90126229Y-60811132D01*
X90067749Y-60799500D01*
X90067748Y-60799500D01*
X88228252Y-60799500D01*
X88228251Y-60799500D01*
X88169770Y-60811132D01*
X88169765Y-60811134D01*
X88117479Y-60846072D01*
X88067513Y-60858299D01*
X88021378Y-60835548D01*
X88000661Y-60788465D01*
X88000500Y-60783546D01*
X88000500Y-58820630D01*
X88018093Y-58772292D01*
X88062642Y-58746572D01*
X88113300Y-58755505D01*
X88138224Y-58778848D01*
X88204367Y-58877838D01*
X88248466Y-58928123D01*
X88399572Y-59100427D01*
X88482657Y-59173290D01*
X88622162Y-59295633D01*
X88868327Y-59460115D01*
X89133855Y-59591059D01*
X89414203Y-59686224D01*
X89704574Y-59743983D01*
X90000000Y-59763346D01*
X90295426Y-59743983D01*
X90585797Y-59686224D01*
X90866145Y-59591059D01*
X91131673Y-59460115D01*
X91377838Y-59295633D01*
X91600427Y-59100427D01*
X91795633Y-58877838D01*
X91960115Y-58631673D01*
X92091059Y-58366145D01*
X92186224Y-58085797D01*
X92243983Y-57795426D01*
X92263346Y-57500000D01*
X92243983Y-57204574D01*
X92186224Y-56914203D01*
X92091059Y-56633855D01*
X91960115Y-56368327D01*
X91795633Y-56122162D01*
X91682113Y-55992718D01*
X91600427Y-55899572D01*
X91402024Y-55725578D01*
X91377838Y-55704367D01*
X91278851Y-55638226D01*
X91248435Y-55596743D01*
X91251800Y-55545413D01*
X91287371Y-55508255D01*
X91320631Y-55500500D01*
X103998769Y-55500500D01*
X104001212Y-55500579D01*
G37*
%TD.AperFunction*%
%TD*%
M02*
