M48
; DRILL file {KiCad 7.0.7} date Tue Jan  9 13:38:51 2024
; FORMAT={-:-/ absolute / metric / decimal}
; #@! TF.CreationDate,2024-01-09T13:38:51+07:00
; #@! TF.GenerationSoftware,Kicad,Pcbnew,7.0.7
; #@! TF.FileFunction,Plated,1,2,PTH
FMAT,2
METRIC
; #@! TA.AperFunction,Plated,PTH,ViaDrill
T1C0.300
; #@! TA.AperFunction,Plated,PTH,ViaDrill
T2C0.305
; #@! TA.AperFunction,Plated,PTH,ComponentDrill
T3C0.600
; #@! TA.AperFunction,Plated,PTH,ComponentDrill
T4C2.200
%
G90
G05
T1
X93.023Y-63.9
X93.023Y-64.9
X93.023Y-65.9
X94.548Y-62.648
X94.6Y-64.6
X95.248Y-59.98
X95.598Y-63.88
X96.248Y-59.302
X96.5Y-66.975
X97.248Y-59.379
X97.5Y-66.975
X97.797Y-59.881
X98.4Y-65.6
X98.5Y-66.975
X98.748Y-59.98
X99.4Y-64.6
X99.448Y-62.648
T2
X97.0Y-64.6
T4
X104.0Y-57.5
T3
X92.698Y-56.7G85X92.698Y-56.1
G05
X92.698Y-56.1G85X92.698Y-56.7
G05
X92.698Y-61.15G85X92.698Y-60.05
G05
X92.698Y-60.05G85X92.698Y-61.15
G05
X101.298Y-56.7G85X101.298Y-56.1
G05
X101.298Y-56.1G85X101.298Y-56.7
G05
X101.298Y-61.15G85X101.298Y-60.05
G05
X101.298Y-60.05G85X101.298Y-61.15
G05
T0
M30
