%TF.GenerationSoftware,KiCad,Pcbnew,7.0.7*%
%TF.CreationDate,2024-01-09T13:38:50+07:00*%
%TF.ProjectId,Unified Daughterboard,556e6966-6965-4642-9044-617567687465,rev?*%
%TF.SameCoordinates,Original*%
%TF.FileFunction,Soldermask,Top*%
%TF.FilePolarity,Negative*%
%FSLAX46Y46*%
G04 Gerber Fmt 4.6, Leading zero omitted, Abs format (unit mm)*
G04 Created by KiCad (PCBNEW 7.0.7) date 2024-01-09 13:38:50*
%MOMM*%
%LPD*%
G01*
G04 APERTURE LIST*
G04 Aperture macros list*
%AMRoundRect*
0 Rectangle with rounded corners*
0 $1 Rounding radius*
0 $2 $3 $4 $5 $6 $7 $8 $9 X,Y pos of 4 corners*
0 Add a 4 corners polygon primitive as box body*
4,1,4,$2,$3,$4,$5,$6,$7,$8,$9,$2,$3,0*
0 Add four circle primitives for the rounded corners*
1,1,$1+$1,$2,$3*
1,1,$1+$1,$4,$5*
1,1,$1+$1,$6,$7*
1,1,$1+$1,$8,$9*
0 Add four rect primitives between the rounded corners*
20,1,$1+$1,$2,$3,$4,$5,0*
20,1,$1+$1,$4,$5,$6,$7,0*
20,1,$1+$1,$6,$7,$8,$9,0*
20,1,$1+$1,$8,$9,$2,$3,0*%
G04 Aperture macros list end*
%ADD10RoundRect,0.250000X0.625000X-0.375000X0.625000X0.375000X-0.625000X0.375000X-0.625000X-0.375000X0*%
%ADD11C,3.500001*%
%ADD12R,0.900000X0.500000*%
%ADD13R,1.200000X1.800000*%
%ADD14R,0.600000X1.550000*%
%ADD15RoundRect,0.250000X-0.625000X0.375000X-0.625000X-0.375000X0.625000X-0.375000X0.625000X0.375000X0*%
%ADD16RoundRect,0.125000X0.000000X-0.150000X0.000000X-0.150000X0.000000X0.150000X0.000000X0.150000X0*%
%ADD17R,0.250000X0.550000*%
%ADD18R,0.300000X0.550000*%
%ADD19C,0.650000*%
%ADD20RoundRect,0.150000X0.150000X0.575000X-0.150000X0.575000X-0.150000X-0.575000X0.150000X-0.575000X0*%
%ADD21RoundRect,0.075000X0.075000X0.650000X-0.075000X0.650000X-0.075000X-0.650000X0.075000X-0.650000X0*%
%ADD22O,1.100000X2.200000*%
%ADD23O,1.300000X1.900000*%
%ADD24R,1.800000X1.200000*%
%ADD25R,1.550000X0.600000*%
G04 APERTURE END LIST*
D10*
%TO.C,L1*%
X104200000Y-66400000D03*
X104200000Y-63600000D03*
%TD*%
D11*
%TO.C,MH3*%
X90000000Y-70000000D03*
%TD*%
%TO.C,MH1*%
X90000000Y-57500000D03*
%TD*%
D12*
%TO.C,R1*%
X99400000Y-63650000D03*
X99400000Y-65150000D03*
%TD*%
D13*
%TO.C,J3*%
X94200000Y-70850000D03*
X99800000Y-70850000D03*
D14*
X95500000Y-66975000D03*
X96500000Y-66975000D03*
X97500000Y-66975000D03*
X98500000Y-66975000D03*
%TD*%
D11*
%TO.C,MH4*%
X104000000Y-70000000D03*
%TD*%
D15*
%TO.C,F1*%
X101800000Y-63600000D03*
X101800000Y-66400000D03*
%TD*%
D11*
%TO.C,MH2*%
X104000000Y-57500000D03*
%TD*%
D16*
%TO.C,U1*%
X96000000Y-64985000D03*
D17*
X96500000Y-64985000D03*
D18*
X97000000Y-64985000D03*
D17*
X97500000Y-64985000D03*
X98000000Y-64985000D03*
X98000000Y-64215000D03*
X97500000Y-64215000D03*
D18*
X97000000Y-64215000D03*
D17*
X96500000Y-64215000D03*
X96000000Y-64215000D03*
%TD*%
D19*
%TO.C,J1*%
X99888000Y-60049000D03*
X94108000Y-60049000D03*
D20*
X100248000Y-61375000D03*
X99448000Y-61375000D03*
D21*
X98248000Y-61375000D03*
X97252000Y-61375000D03*
X96748000Y-61375000D03*
X95748000Y-61375000D03*
D20*
X93748000Y-61375000D03*
X94548000Y-61375000D03*
D21*
X95248000Y-61375000D03*
X96248000Y-61375000D03*
X97748000Y-61375000D03*
X98748000Y-61375000D03*
D22*
X101298000Y-60600000D03*
D23*
X101298000Y-56400000D03*
D22*
X92698000Y-60600000D03*
D23*
X92698000Y-56400000D03*
%TD*%
D12*
%TO.C,R2*%
X94600000Y-63650000D03*
X94600000Y-65150000D03*
%TD*%
D24*
%TO.C,J4*%
X89148000Y-61600000D03*
X89148000Y-67200000D03*
D25*
X93023000Y-62900000D03*
X93023000Y-63900000D03*
X93023000Y-64900000D03*
X93023000Y-65900000D03*
%TD*%
D19*
%TO.C,J2*%
X94108000Y-60049500D03*
X99888000Y-60049500D03*
D23*
X92698000Y-56400500D03*
D22*
X92698000Y-60600500D03*
D23*
X101298000Y-56400500D03*
D22*
X101298000Y-60600500D03*
%TD*%
M02*
