%TF.GenerationSoftware,KiCad,Pcbnew,8.0.9*%
%TF.CreationDate,2025-07-19T06:53:02+07:00*%
%TF.ProjectId,Daughterboard,44617567-6874-4657-9262-6f6172642e6b,rev?*%
%TF.SameCoordinates,Original*%
%TF.FileFunction,Legend,Top*%
%TF.FilePolarity,Positive*%
%FSLAX46Y46*%
G04 Gerber Fmt 4.6, Leading zero omitted, Abs format (unit mm)*
G04 Created by KiCad (PCBNEW 8.0.9) date 2025-07-19 06:53:02*
%MOMM*%
%LPD*%
G01*
G04 APERTURE LIST*
G04 Aperture macros list*
%AMRoundRect*
0 Rectangle with rounded corners*
0 $1 Rounding radius*
0 $2 $3 $4 $5 $6 $7 $8 $9 X,Y pos of 4 corners*
0 Add a 4 corners polygon primitive as box body*
4,1,4,$2,$3,$4,$5,$6,$7,$8,$9,$2,$3,0*
0 Add four circle primitives for the rounded corners*
1,1,$1+$1,$2,$3*
1,1,$1+$1,$4,$5*
1,1,$1+$1,$6,$7*
1,1,$1+$1,$8,$9*
0 Add four rect primitives between the rounded corners*
20,1,$1+$1,$2,$3,$4,$5,0*
20,1,$1+$1,$4,$5,$6,$7,0*
20,1,$1+$1,$6,$7,$8,$9,0*
20,1,$1+$1,$8,$9,$2,$3,0*%
G04 Aperture macros list end*
%ADD10C,0.120000*%
%ADD11C,0.400000*%
%ADD12C,0.150000*%
%ADD13RoundRect,0.250000X-0.375000X-0.625000X0.375000X-0.625000X0.375000X0.625000X-0.375000X0.625000X0*%
%ADD14C,3.500001*%
%ADD15R,0.900000X0.500000*%
%ADD16RoundRect,0.250000X0.375000X0.625000X-0.375000X0.625000X-0.375000X-0.625000X0.375000X-0.625000X0*%
%ADD17RoundRect,0.125000X-0.000010X-0.150000X0.000010X-0.150000X0.000010X0.150000X-0.000010X0.150000X0*%
%ADD18R,0.250000X0.550000*%
%ADD19R,0.300000X0.550000*%
%ADD20C,0.650000*%
%ADD21RoundRect,0.150000X0.150000X0.575000X-0.150000X0.575000X-0.150000X-0.575000X0.150000X-0.575000X0*%
%ADD22RoundRect,0.075000X0.075000X0.650000X-0.075000X0.650000X-0.075000X-0.650000X0.075000X-0.650000X0*%
%ADD23O,1.100000X2.200000*%
%ADD24O,1.300000X1.900000*%
%ADD25R,1.800000X1.200000*%
%ADD26R,1.550000X0.600000*%
G04 APERTURE END LIST*
D10*
%TO.C,L1*%
X87382936Y-70815800D02*
X88587064Y-70815800D01*
X87382936Y-72635800D02*
X88587064Y-72635800D01*
%TO.C,R1*%
X98720000Y-64900000D02*
X98720000Y-63900000D01*
X100080000Y-63900000D02*
X100080000Y-64900000D01*
%TO.C,F1*%
X88587064Y-65735800D02*
X87382936Y-65735800D01*
X88587064Y-67555800D02*
X87382936Y-67555800D01*
D11*
%TO.C,U1*%
X95500001Y-65000000D02*
X95500001Y-65000000D01*
X95500001Y-65000000D01*
X95500001Y-65000000D01*
X95500001Y-65000000D01*
X95500001Y-65000000D01*
X95500001Y-65000001D01*
X95500001Y-65000001D01*
X95500001Y-65000001D01*
X95500001Y-65000001D01*
X95500001Y-65000001D01*
X95500001Y-65000001D01*
X95500001Y-65000001D01*
X95500000Y-65000001D01*
X95500000Y-65000001D01*
X95500000Y-65000001D01*
X95500000Y-65000001D01*
X95500000Y-65000001D01*
X95500000Y-65000001D01*
X95500000Y-65000001D01*
X95500000Y-65000001D01*
X95500000Y-65000001D01*
X95500000Y-65000001D01*
X95500000Y-65000001D01*
X95500000Y-65000001D01*
X95499999Y-65000001D01*
X95499999Y-65000001D01*
X95499999Y-65000001D01*
X95499999Y-65000001D01*
X95499999Y-65000001D01*
X95499999Y-65000001D01*
X95499999Y-65000000D01*
X95499999Y-65000000D01*
X95499999Y-65000000D01*
X95499999Y-65000000D01*
X95499999Y-65000000D01*
X95499999Y-65000000D01*
X95499999Y-65000000D02*
X95499999Y-65000000D01*
X95499999Y-65000000D01*
X95499999Y-65000000D01*
X95499999Y-65000000D01*
X95499999Y-65000000D01*
X95499999Y-65000000D01*
X95499999Y-64999999D01*
X95499999Y-64999999D01*
X95499999Y-64999999D01*
X95499999Y-64999999D01*
X95499999Y-64999999D01*
X95500000Y-64999999D01*
X95500000Y-64999999D01*
X95500000Y-64999999D01*
X95500000Y-64999999D01*
X95500000Y-64999999D01*
X95500000Y-64999999D01*
X95500000Y-64999999D01*
X95500000Y-64999999D01*
X95500000Y-64999999D01*
X95500000Y-64999999D01*
X95500000Y-64999999D01*
X95500000Y-64999999D01*
X95500001Y-64999999D01*
X95500001Y-64999999D01*
X95500001Y-64999999D01*
X95500001Y-64999999D01*
X95500001Y-64999999D01*
X95500001Y-64999999D01*
X95500001Y-65000000D01*
X95500001Y-65000000D01*
X95500001Y-65000000D01*
X95500001Y-65000000D01*
X95500001Y-65000000D01*
X95500001Y-65000000D01*
X95500001Y-65000000D01*
D10*
%TO.C,R2*%
X93920000Y-64900000D02*
X93920000Y-63900000D01*
X95280000Y-63900000D02*
X95280000Y-64900000D01*
D12*
%TO.C,J4*%
X79295000Y-71185800D02*
X79295000Y-67185800D01*
X81095000Y-66185800D02*
X83495000Y-66185800D01*
X83495000Y-66185800D02*
X83495000Y-67185800D01*
X83495000Y-71185800D02*
X83495000Y-72185800D01*
X83495000Y-72185800D02*
X81095000Y-72185800D01*
%TD*%
%LPC*%
D13*
%TO.C,L1*%
X86585000Y-71725800D03*
X89385000Y-71725800D03*
%TD*%
D14*
%TO.C,MH3*%
X76015000Y-76185800D03*
%TD*%
%TO.C,MH1*%
X76015000Y-62185800D03*
%TD*%
D15*
%TO.C,R1*%
X99400000Y-63650000D03*
X99400000Y-65150000D03*
%TD*%
D16*
%TO.C,F1*%
X89385000Y-66645800D03*
X86585000Y-66645800D03*
%TD*%
D14*
%TO.C,MH2*%
X104015000Y-76185800D03*
%TD*%
D17*
%TO.C,U1*%
X96000000Y-64985000D03*
D18*
X96500000Y-64985000D03*
D19*
X97000000Y-64985000D03*
D18*
X97500000Y-64985000D03*
X98000000Y-64985000D03*
X98000000Y-64215000D03*
X97500000Y-64215000D03*
D19*
X97000000Y-64215000D03*
D18*
X96500000Y-64215000D03*
X96000000Y-64215000D03*
%TD*%
D20*
%TO.C,J1*%
X99888000Y-60049000D03*
X94108000Y-60049000D03*
D21*
X100248000Y-61375000D03*
X99448000Y-61375000D03*
D22*
X98248000Y-61375000D03*
X97252000Y-61375000D03*
X96748000Y-61375000D03*
X95748000Y-61375000D03*
D21*
X93748000Y-61375000D03*
X94548000Y-61375000D03*
D22*
X95248000Y-61375000D03*
X96248000Y-61375000D03*
X97748000Y-61375000D03*
X98748000Y-61375000D03*
D23*
X101298000Y-60600000D03*
D24*
X101298000Y-56400000D03*
D23*
X92698000Y-60600000D03*
D24*
X92698000Y-56400000D03*
%TD*%
D15*
%TO.C,R2*%
X94600000Y-63650000D03*
X94600000Y-65150000D03*
%TD*%
D25*
%TO.C,J4*%
X79995000Y-66385800D03*
X79995000Y-71985800D03*
D26*
X83870000Y-67685800D03*
X83870000Y-68685800D03*
X83870000Y-69685800D03*
X83870000Y-70685800D03*
%TD*%
%LPD*%
M02*
