M48
; DRILL file {KiCad 8.0.9} date 2025-07-19T06:53:03+0700
; FORMAT={-:-/ absolute / inch / decimal}
; #@! TF.CreationDate,2025-07-19T06:53:03+07:00
; #@! TF.GenerationSoftware,Kicad,Pcbnew,8.0.9
; #@! TF.FileFunction,Plated,1,2,PTH
FMAT,2
INCH
; #@! TA.AperFunction,Plated,PTH,ViaDrill
T1C0.0118
; #@! TA.AperFunction,Plated,PTH,ViaDrill
T2C0.0120
; #@! TA.AperFunction,Plated,PTH,ViaDrill
T3C0.0157
; #@! TA.AperFunction,Plated,PTH,ComponentDrill
T4C0.0236
; #@! TA.AperFunction,Plated,PTH,ComponentDrill
T5C0.0866
%
G90
G05
T1
X3.7224Y-2.4665
X3.7244Y-2.5433
X3.8232Y-2.354
X3.8779Y-2.354
X3.9134Y-2.5433
X3.9153Y-2.4665
T2
X3.8189Y-2.5433
T3
X2.9951Y-2.5794
X2.9951Y-2.7294
X2.9951Y-2.8794
X3.0951Y-2.5294
X3.0951Y-2.6794
X3.0951Y-2.9294
X3.1451Y-2.4294
X3.1451Y-2.7794
X3.1451Y-3.0294
X3.2451Y-2.4794
X3.2451Y-2.6294
X3.2451Y-2.8294
X3.2451Y-2.9794
X3.3451Y-2.4294
X3.3451Y-2.5794
X3.3451Y-2.8794
X3.3451Y-3.0294
X3.4451Y-2.4794
X3.4451Y-2.9294
X3.4951Y-3.0294
X3.5951Y-2.6294
X3.5951Y-2.7794
X3.5951Y-2.9294
X3.6451Y-2.5294
X3.6451Y-3.0294
X3.6951Y-2.2794
X3.6951Y-2.8294
X3.7451Y-2.6294
X3.7451Y-2.9294
X3.7951Y-2.2294
X3.7951Y-2.7794
X3.7951Y-3.0294
X3.8451Y-2.8794
X3.8951Y-2.2794
X3.8951Y-2.6294
X3.8951Y-2.9794
X3.9451Y-2.7294
X3.9951Y-2.4794
X3.9951Y-2.8294
X3.9951Y-3.0294
X4.0451Y-2.5794
X4.0951Y-2.4294
X4.0951Y-2.6794
X4.0951Y-2.8794
T5
X4.0951Y-2.9994
T4
G00X3.6495Y-2.2323
M15
G01X3.6495Y-2.2087
M16
G05
G00X3.6495Y-2.4075
M15
G01X3.6495Y-2.3642
M16
G05
G00X3.9881Y-2.2323
M15
G01X3.9881Y-2.2087
M16
G05
G00X3.9881Y-2.4075
M15
G01X3.9881Y-2.3642
M16
G05
M30
