%TF.GenerationSoftware,KiCad,Pcbnew,8.0.9*%
%TF.CreationDate,2025-07-19T06:53:02+07:00*%
%TF.ProjectId,Daughterboard,44617567-6874-4657-9262-6f6172642e6b,rev?*%
%TF.SameCoordinates,Original*%
%TF.FileFunction,Copper,L2,Bot*%
%TF.FilePolarity,Positive*%
%FSLAX46Y46*%
G04 Gerber Fmt 4.6, Leading zero omitted, Abs format (unit mm)*
G04 Created by KiCad (PCBNEW 8.0.9) date 2025-07-19 06:53:02*
%MOMM*%
%LPD*%
G01*
G04 APERTURE LIST*
%TA.AperFunction,ComponentPad*%
%ADD10C,3.500001*%
%TD*%
%TA.AperFunction,ComponentPad*%
%ADD11O,1.100000X2.200000*%
%TD*%
%TA.AperFunction,ComponentPad*%
%ADD12O,1.300000X1.900000*%
%TD*%
%TA.AperFunction,ViaPad*%
%ADD13C,0.800000*%
%TD*%
%TA.AperFunction,ViaPad*%
%ADD14C,0.450000*%
%TD*%
%TA.AperFunction,ViaPad*%
%ADD15C,0.600000*%
%TD*%
%TA.AperFunction,ViaPad*%
%ADD16C,0.500000*%
%TD*%
%TA.AperFunction,Conductor*%
%ADD17C,0.500000*%
%TD*%
%TA.AperFunction,Conductor*%
%ADD18C,0.200000*%
%TD*%
G04 APERTURE END LIST*
D10*
%TO.P,MH2,1,Pin_1*%
%TO.N,GNDPWR*%
X104015000Y-76185800D03*
%TD*%
D11*
%TO.P,J1,S,SHIELD*%
%TO.N,GNDPWR*%
X101298000Y-60600000D03*
D12*
X101298000Y-56400000D03*
D11*
X92698000Y-60600000D03*
D12*
X92698000Y-56400000D03*
%TD*%
D13*
%TO.N,GNDPWR*%
X93855000Y-71867000D03*
X98935000Y-57897000D03*
X88775000Y-76947000D03*
X100205000Y-69327000D03*
X82425000Y-62977000D03*
X92585000Y-76947000D03*
X79885000Y-61707000D03*
X101475000Y-76947000D03*
X98935000Y-66787000D03*
X84965000Y-61707000D03*
X91315000Y-66787000D03*
X101475000Y-71867000D03*
X82425000Y-75677000D03*
X97665000Y-73137000D03*
X96395000Y-76947000D03*
X95125000Y-66787000D03*
D14*
X97000000Y-64600000D03*
D13*
X87505000Y-74407000D03*
X82425000Y-66787000D03*
X78615000Y-68057000D03*
X104015000Y-68057000D03*
X82425000Y-71867000D03*
X76075000Y-69327000D03*
X104015000Y-61707000D03*
X79885000Y-70597000D03*
X78615000Y-64247000D03*
X84965000Y-76947000D03*
X102745000Y-65517000D03*
X98935000Y-75677000D03*
X91315000Y-74407000D03*
X101475000Y-62977000D03*
X91315000Y-70597000D03*
X96395000Y-56627000D03*
X92585000Y-64247000D03*
X78615000Y-74407000D03*
X84965000Y-65517000D03*
X76075000Y-73137000D03*
X79885000Y-76947000D03*
X93855000Y-57897000D03*
X95125000Y-74407000D03*
D15*
X99400000Y-64600000D03*
D13*
X84965000Y-73137000D03*
X104015000Y-73137000D03*
X96395000Y-70597000D03*
X76075000Y-65517000D03*
X87505000Y-62977000D03*
D15*
X94600000Y-64600000D03*
%TO.N,VBUS*%
X94548000Y-62648000D03*
X99448000Y-62648000D03*
D16*
%TO.N,DA-*%
X97109341Y-59791341D03*
X98498000Y-59791341D03*
%TD*%
D17*
%TO.N,VBUS*%
X94548000Y-60825000D02*
X94548000Y-62648000D01*
X99448000Y-60825000D02*
X99448000Y-62648000D01*
X94548000Y-62648000D02*
X99448000Y-62648000D01*
D18*
%TO.N,DA-*%
X98498000Y-59791341D02*
X98636659Y-59791341D01*
X97109341Y-59791341D02*
X98498000Y-59791341D01*
%TD*%
%TA.AperFunction,Conductor*%
%TO.N,GNDPWR*%
G36*
X101473938Y-55385823D02*
G01*
X101480328Y-55385979D01*
X101564778Y-55388048D01*
X101577601Y-55389469D01*
X101756727Y-55425100D01*
X101770822Y-55429375D01*
X101938693Y-55498910D01*
X101951694Y-55505859D01*
X102102774Y-55606807D01*
X102114169Y-55616160D01*
X102242639Y-55744630D01*
X102251992Y-55756025D01*
X102352940Y-55907105D01*
X102359889Y-55920106D01*
X102429422Y-56087971D01*
X102433701Y-56102078D01*
X102469329Y-56281194D01*
X102470751Y-56294023D01*
X102472977Y-56384861D01*
X102473000Y-56386703D01*
X102473000Y-59185817D01*
X102475406Y-59284047D01*
X102475408Y-59284060D01*
X102486702Y-59340841D01*
X102513744Y-59476787D01*
X102588945Y-59658337D01*
X102698119Y-59821728D01*
X102698121Y-59821730D01*
X102698123Y-59821733D01*
X102837066Y-59960676D01*
X102837069Y-59960678D01*
X102837072Y-59960681D01*
X103000463Y-60069855D01*
X103182013Y-60145056D01*
X103374746Y-60183393D01*
X103399309Y-60183994D01*
X103472982Y-60185800D01*
X103473000Y-60185800D01*
X104014332Y-60185800D01*
X104015672Y-60185811D01*
X104153153Y-60188264D01*
X104162514Y-60189017D01*
X104435363Y-60228246D01*
X104445826Y-60230522D01*
X104709664Y-60307992D01*
X104719714Y-60311741D01*
X104969833Y-60425967D01*
X104979241Y-60431104D01*
X105210563Y-60579766D01*
X105219141Y-60586187D01*
X105426967Y-60766268D01*
X105434531Y-60773832D01*
X105614610Y-60981655D01*
X105621033Y-60990236D01*
X105769692Y-61221553D01*
X105774834Y-61230970D01*
X105889057Y-61481084D01*
X105892807Y-61491137D01*
X105970274Y-61754963D01*
X105972555Y-61765447D01*
X106011782Y-62038285D01*
X106012535Y-62047645D01*
X106014988Y-62185126D01*
X106015000Y-62186468D01*
X106015000Y-76185131D01*
X106014988Y-76186473D01*
X106012535Y-76323954D01*
X106011782Y-76333314D01*
X105972555Y-76606152D01*
X105970274Y-76616636D01*
X105892807Y-76880462D01*
X105889057Y-76890515D01*
X105774834Y-77140629D01*
X105769692Y-77150046D01*
X105621033Y-77381363D01*
X105614605Y-77389950D01*
X105434537Y-77597760D01*
X105426960Y-77605337D01*
X105254592Y-77754695D01*
X105219152Y-77785404D01*
X105210563Y-77791833D01*
X104979246Y-77940492D01*
X104969829Y-77945634D01*
X104719715Y-78059857D01*
X104709662Y-78063607D01*
X104445836Y-78141074D01*
X104435352Y-78143355D01*
X104162514Y-78182582D01*
X104153154Y-78183335D01*
X104018661Y-78185734D01*
X104015671Y-78185788D01*
X104014332Y-78185800D01*
X76015668Y-78185800D01*
X76014328Y-78185788D01*
X76011283Y-78185733D01*
X75876845Y-78183335D01*
X75867485Y-78182582D01*
X75594647Y-78143355D01*
X75584163Y-78141074D01*
X75320337Y-78063607D01*
X75310284Y-78059857D01*
X75060170Y-77945634D01*
X75050753Y-77940492D01*
X74819436Y-77791833D01*
X74810855Y-77785410D01*
X74603032Y-77605331D01*
X74595468Y-77597767D01*
X74415387Y-77389941D01*
X74408966Y-77381363D01*
X74260304Y-77150041D01*
X74255165Y-77140629D01*
X74255149Y-77140595D01*
X74140941Y-76890514D01*
X74137192Y-76880462D01*
X74133333Y-76867320D01*
X74059722Y-76616626D01*
X74057446Y-76606163D01*
X74018217Y-76333314D01*
X74017464Y-76323953D01*
X74015012Y-76186472D01*
X74015000Y-76185131D01*
X74015000Y-76059205D01*
X74406500Y-76059205D01*
X74406500Y-76312394D01*
X74446104Y-76562450D01*
X74446107Y-76562462D01*
X74524343Y-76803249D01*
X74639287Y-77028839D01*
X74720483Y-77140595D01*
X74783744Y-77227666D01*
X74788106Y-77233669D01*
X74788113Y-77233677D01*
X74967122Y-77412686D01*
X74967130Y-77412693D01*
X74967132Y-77412695D01*
X75079154Y-77494083D01*
X75171960Y-77561512D01*
X75171962Y-77561513D01*
X75397550Y-77676456D01*
X75638342Y-77754694D01*
X75888408Y-77794300D01*
X75888412Y-77794300D01*
X76141588Y-77794300D01*
X76141592Y-77794300D01*
X76391658Y-77754694D01*
X76632450Y-77676456D01*
X76858038Y-77561513D01*
X77062868Y-77412695D01*
X77241895Y-77233668D01*
X77390713Y-77028838D01*
X77505656Y-76803250D01*
X77583894Y-76562458D01*
X77623500Y-76312392D01*
X77623500Y-76185794D01*
X102912498Y-76185794D01*
X102912498Y-76185805D01*
X102932420Y-76394441D01*
X102932422Y-76394451D01*
X102991472Y-76595560D01*
X103087513Y-76781854D01*
X103217079Y-76946610D01*
X103217081Y-76946611D01*
X103217082Y-76946613D01*
X103375486Y-77083872D01*
X103557004Y-77188671D01*
X103755075Y-77257224D01*
X103962541Y-77287053D01*
X104171902Y-77277080D01*
X104171909Y-77277078D01*
X104171912Y-77277078D01*
X104375589Y-77227666D01*
X104375589Y-77227665D01*
X104375593Y-77227665D01*
X104566251Y-77140595D01*
X104736985Y-77019015D01*
X104881625Y-76867322D01*
X104994943Y-76690996D01*
X105072843Y-76496411D01*
X105112510Y-76290599D01*
X105115000Y-76185800D01*
X105112510Y-76081001D01*
X105072843Y-75875189D01*
X105058030Y-75838189D01*
X104994943Y-75680604D01*
X104994942Y-75680602D01*
X104881626Y-75504279D01*
X104736988Y-75352588D01*
X104736987Y-75352587D01*
X104736985Y-75352585D01*
X104566251Y-75231005D01*
X104566246Y-75231002D01*
X104566243Y-75231001D01*
X104375593Y-75143935D01*
X104375589Y-75143933D01*
X104171912Y-75094521D01*
X104171902Y-75094520D01*
X103962542Y-75084547D01*
X103962541Y-75084547D01*
X103893385Y-75094490D01*
X103755073Y-75114376D01*
X103557001Y-75182930D01*
X103375488Y-75287726D01*
X103375486Y-75287728D01*
X103217079Y-75424989D01*
X103087513Y-75589745D01*
X102991472Y-75776039D01*
X102932422Y-75977148D01*
X102932420Y-75977158D01*
X102912498Y-76185794D01*
X77623500Y-76185794D01*
X77623500Y-76059208D01*
X77583894Y-75809142D01*
X77505656Y-75568350D01*
X77390713Y-75342762D01*
X77350728Y-75287728D01*
X77246256Y-75143935D01*
X77241895Y-75137932D01*
X77241893Y-75137930D01*
X77241886Y-75137922D01*
X77062877Y-74958913D01*
X77062869Y-74958906D01*
X76858039Y-74810087D01*
X76632449Y-74695143D01*
X76391662Y-74616907D01*
X76391650Y-74616904D01*
X76141594Y-74577300D01*
X76141592Y-74577300D01*
X75888408Y-74577300D01*
X75888405Y-74577300D01*
X75638349Y-74616904D01*
X75638337Y-74616907D01*
X75397550Y-74695143D01*
X75171960Y-74810087D01*
X74967130Y-74958906D01*
X74967122Y-74958913D01*
X74788113Y-75137922D01*
X74788106Y-75137930D01*
X74639287Y-75342760D01*
X74524343Y-75568350D01*
X74446107Y-75809137D01*
X74446104Y-75809149D01*
X74406500Y-76059205D01*
X74015000Y-76059205D01*
X74015000Y-62186468D01*
X74015012Y-62185127D01*
X74017258Y-62059205D01*
X74406500Y-62059205D01*
X74406500Y-62312394D01*
X74446104Y-62562450D01*
X74446107Y-62562462D01*
X74524343Y-62803249D01*
X74639287Y-63028839D01*
X74788106Y-63233669D01*
X74788113Y-63233677D01*
X74967122Y-63412686D01*
X74967130Y-63412693D01*
X74967132Y-63412695D01*
X75079154Y-63494083D01*
X75171960Y-63561512D01*
X75171962Y-63561513D01*
X75397550Y-63676456D01*
X75638342Y-63754694D01*
X75888408Y-63794300D01*
X75888412Y-63794300D01*
X76141588Y-63794300D01*
X76141592Y-63794300D01*
X76391658Y-63754694D01*
X76632450Y-63676456D01*
X76858038Y-63561513D01*
X77062868Y-63412695D01*
X77241895Y-63233668D01*
X77390713Y-63028838D01*
X77505656Y-62803250D01*
X77583894Y-62562458D01*
X77623500Y-62312392D01*
X77623500Y-62059208D01*
X77583894Y-61809142D01*
X77505656Y-61568350D01*
X77390713Y-61342762D01*
X77241895Y-61137932D01*
X77241893Y-61137930D01*
X77241886Y-61137922D01*
X77062877Y-60958913D01*
X77062869Y-60958906D01*
X76858039Y-60810087D01*
X76632449Y-60695143D01*
X76391662Y-60616907D01*
X76391650Y-60616904D01*
X76141594Y-60577300D01*
X76141592Y-60577300D01*
X75888408Y-60577300D01*
X75888405Y-60577300D01*
X75638349Y-60616904D01*
X75638337Y-60616907D01*
X75397550Y-60695143D01*
X75171960Y-60810087D01*
X74967130Y-60958906D01*
X74967122Y-60958913D01*
X74788113Y-61137922D01*
X74788106Y-61137930D01*
X74639287Y-61342760D01*
X74524343Y-61568350D01*
X74446107Y-61809137D01*
X74446104Y-61809149D01*
X74406500Y-62059205D01*
X74017258Y-62059205D01*
X74017464Y-62047646D01*
X74018217Y-62038285D01*
X74027007Y-61977150D01*
X74057446Y-61765433D01*
X74059722Y-61754976D01*
X74137194Y-61491131D01*
X74140942Y-61481084D01*
X74166561Y-61424987D01*
X74255170Y-61230959D01*
X74260301Y-61221563D01*
X74408972Y-60990227D01*
X74415381Y-60981664D01*
X74595475Y-60773824D01*
X74603024Y-60766275D01*
X74810864Y-60586181D01*
X74819427Y-60579772D01*
X75050763Y-60431101D01*
X75060159Y-60425970D01*
X75310289Y-60311739D01*
X75320331Y-60307994D01*
X75584176Y-60230522D01*
X75594633Y-60228246D01*
X75867487Y-60189016D01*
X75876845Y-60188264D01*
X76014327Y-60185811D01*
X76015668Y-60185800D01*
X90523018Y-60185800D01*
X90593742Y-60184066D01*
X90621254Y-60183393D01*
X90813987Y-60145056D01*
X90995537Y-60069855D01*
X91140141Y-59973234D01*
X93532500Y-59973234D01*
X93532500Y-60124766D01*
X93571719Y-60271134D01*
X93571722Y-60271142D01*
X93647484Y-60402365D01*
X93754634Y-60509515D01*
X93885857Y-60585277D01*
X93885860Y-60585278D01*
X93885865Y-60585281D01*
X94032234Y-60624500D01*
X94037330Y-60624500D01*
X94085668Y-60642093D01*
X94111388Y-60686642D01*
X94109968Y-60719159D01*
X94097500Y-60765691D01*
X94097500Y-60765693D01*
X94097500Y-62413279D01*
X94090704Y-62444519D01*
X94062835Y-62505540D01*
X94042353Y-62648000D01*
X94062835Y-62790459D01*
X94122622Y-62921372D01*
X94122624Y-62921375D01*
X94215741Y-63028838D01*
X94216872Y-63030143D01*
X94337947Y-63107953D01*
X94476039Y-63148500D01*
X94476042Y-63148500D01*
X94619958Y-63148500D01*
X94619961Y-63148500D01*
X94758053Y-63107953D01*
X94758055Y-63107952D01*
X94762944Y-63105720D01*
X94763809Y-63107614D01*
X94794843Y-63098500D01*
X99201157Y-63098500D01*
X99232190Y-63107614D01*
X99233056Y-63105720D01*
X99237944Y-63107952D01*
X99237946Y-63107952D01*
X99237947Y-63107953D01*
X99376039Y-63148500D01*
X99376042Y-63148500D01*
X99519958Y-63148500D01*
X99519961Y-63148500D01*
X99658053Y-63107953D01*
X99779128Y-63030143D01*
X99873377Y-62921373D01*
X99933165Y-62790457D01*
X99953647Y-62648000D01*
X99933165Y-62505543D01*
X99905296Y-62444519D01*
X99898500Y-62413279D01*
X99898500Y-60765693D01*
X99898500Y-60765691D01*
X99886032Y-60719160D01*
X99890516Y-60667919D01*
X99926889Y-60631546D01*
X99958670Y-60624500D01*
X99963763Y-60624500D01*
X99963766Y-60624500D01*
X100110135Y-60585281D01*
X100123959Y-60577300D01*
X100241365Y-60509515D01*
X100348515Y-60402365D01*
X100424277Y-60271142D01*
X100424277Y-60271141D01*
X100424281Y-60271135D01*
X100463500Y-60124766D01*
X100463500Y-59973234D01*
X100424281Y-59826865D01*
X100424278Y-59826860D01*
X100424277Y-59826857D01*
X100348515Y-59695634D01*
X100241365Y-59588484D01*
X100110142Y-59512722D01*
X100110136Y-59512720D01*
X100110135Y-59512719D01*
X99963766Y-59473500D01*
X99812234Y-59473500D01*
X99665865Y-59512719D01*
X99665857Y-59512722D01*
X99534634Y-59588484D01*
X99427484Y-59695634D01*
X99351722Y-59826857D01*
X99351719Y-59826865D01*
X99312500Y-59973234D01*
X99312500Y-60124766D01*
X99328854Y-60185800D01*
X99351719Y-60271136D01*
X99359353Y-60284358D01*
X99368286Y-60335016D01*
X99342566Y-60379565D01*
X99313692Y-60394595D01*
X99274119Y-60405198D01*
X99274112Y-60405201D01*
X99171386Y-60464510D01*
X99087510Y-60548386D01*
X99028201Y-60651112D01*
X99028201Y-60651114D01*
X98997500Y-60765691D01*
X98997500Y-60765693D01*
X98997500Y-62122300D01*
X98979907Y-62170638D01*
X98935358Y-62196358D01*
X98922300Y-62197500D01*
X95073700Y-62197500D01*
X95025362Y-62179907D01*
X94999642Y-62135358D01*
X94998500Y-62122300D01*
X94998500Y-60765693D01*
X94998500Y-60765691D01*
X94967799Y-60651114D01*
X94962591Y-60642093D01*
X94908489Y-60548386D01*
X94824613Y-60464510D01*
X94721887Y-60405201D01*
X94721880Y-60405199D01*
X94682307Y-60394595D01*
X94640170Y-60365090D01*
X94626857Y-60315403D01*
X94636645Y-60284360D01*
X94644281Y-60271135D01*
X94683500Y-60124766D01*
X94683500Y-59973234D01*
X94644281Y-59826865D01*
X94644278Y-59826860D01*
X94644277Y-59826857D01*
X94623772Y-59791341D01*
X96654208Y-59791341D01*
X96672644Y-59919569D01*
X96726458Y-60037403D01*
X96726460Y-60037406D01*
X96811289Y-60135305D01*
X96811293Y-60135309D01*
X96894865Y-60189017D01*
X96920272Y-60205345D01*
X97044569Y-60241841D01*
X97044570Y-60241841D01*
X97174112Y-60241841D01*
X97174113Y-60241841D01*
X97298410Y-60205345D01*
X97407390Y-60135308D01*
X97422565Y-60117795D01*
X97467516Y-60092785D01*
X97479397Y-60091841D01*
X98127944Y-60091841D01*
X98176282Y-60109434D01*
X98184776Y-60117795D01*
X98199951Y-60135308D01*
X98308931Y-60205345D01*
X98433228Y-60241841D01*
X98433229Y-60241841D01*
X98562771Y-60241841D01*
X98562772Y-60241841D01*
X98687069Y-60205345D01*
X98796049Y-60135308D01*
X98880882Y-60037404D01*
X98934697Y-59919567D01*
X98953133Y-59791341D01*
X98934697Y-59663115D01*
X98880882Y-59545278D01*
X98880880Y-59545275D01*
X98796051Y-59447376D01*
X98796047Y-59447372D01*
X98687068Y-59377336D01*
X98599267Y-59351556D01*
X98562772Y-59340841D01*
X98433228Y-59340841D01*
X98405016Y-59349124D01*
X98308931Y-59377336D01*
X98199953Y-59447372D01*
X98199951Y-59447374D01*
X98184776Y-59464887D01*
X98139825Y-59489897D01*
X98127944Y-59490841D01*
X97479397Y-59490841D01*
X97431059Y-59473248D01*
X97422565Y-59464887D01*
X97421867Y-59464082D01*
X97407390Y-59447374D01*
X97407387Y-59447372D01*
X97298409Y-59377336D01*
X97210608Y-59351556D01*
X97174113Y-59340841D01*
X97044569Y-59340841D01*
X97016357Y-59349124D01*
X96920272Y-59377336D01*
X96811293Y-59447372D01*
X96811289Y-59447376D01*
X96726460Y-59545275D01*
X96726458Y-59545278D01*
X96672644Y-59663112D01*
X96654208Y-59791341D01*
X94623772Y-59791341D01*
X94568515Y-59695634D01*
X94461365Y-59588484D01*
X94330142Y-59512722D01*
X94330136Y-59512720D01*
X94330135Y-59512719D01*
X94183766Y-59473500D01*
X94032234Y-59473500D01*
X93885865Y-59512719D01*
X93885857Y-59512722D01*
X93754634Y-59588484D01*
X93647484Y-59695634D01*
X93571722Y-59826857D01*
X93571719Y-59826865D01*
X93532500Y-59973234D01*
X91140141Y-59973234D01*
X91158928Y-59960681D01*
X91297881Y-59821728D01*
X91407055Y-59658337D01*
X91482256Y-59476787D01*
X91520593Y-59284054D01*
X91523000Y-59185800D01*
X91523000Y-56386703D01*
X91523023Y-56384862D01*
X91525248Y-56294024D01*
X91526670Y-56281194D01*
X91562300Y-56102069D01*
X91566574Y-56087980D01*
X91636112Y-55920101D01*
X91643056Y-55907109D01*
X91744010Y-55756020D01*
X91753355Y-55744635D01*
X91881835Y-55616155D01*
X91893220Y-55606810D01*
X92044309Y-55505856D01*
X92057301Y-55498912D01*
X92225180Y-55429374D01*
X92239269Y-55425100D01*
X92418399Y-55389469D01*
X92431220Y-55388048D01*
X92516153Y-55385967D01*
X92522062Y-55385823D01*
X92523903Y-55385800D01*
X101472097Y-55385800D01*
X101473938Y-55385823D01*
G37*
%TD.AperFunction*%
%TD*%
M02*
