%TF.GenerationSoftware,KiCad,Pcbnew,8.0.9*%
%TF.CreationDate,2025-07-19T06:53:02+07:00*%
%TF.ProjectId,Daughterboard,44617567-6874-4657-9262-6f6172642e6b,rev?*%
%TF.SameCoordinates,Original*%
%TF.FileFunction,Copper,L1,Top*%
%TF.FilePolarity,Positive*%
%FSLAX46Y46*%
G04 Gerber Fmt 4.6, Leading zero omitted, Abs format (unit mm)*
G04 Created by KiCad (PCBNEW 8.0.9) date 2025-07-19 06:53:02*
%MOMM*%
%LPD*%
G01*
G04 APERTURE LIST*
G04 Aperture macros list*
%AMRoundRect*
0 Rectangle with rounded corners*
0 $1 Rounding radius*
0 $2 $3 $4 $5 $6 $7 $8 $9 X,Y pos of 4 corners*
0 Add a 4 corners polygon primitive as box body*
4,1,4,$2,$3,$4,$5,$6,$7,$8,$9,$2,$3,0*
0 Add four circle primitives for the rounded corners*
1,1,$1+$1,$2,$3*
1,1,$1+$1,$4,$5*
1,1,$1+$1,$6,$7*
1,1,$1+$1,$8,$9*
0 Add four rect primitives between the rounded corners*
20,1,$1+$1,$2,$3,$4,$5,0*
20,1,$1+$1,$4,$5,$6,$7,0*
20,1,$1+$1,$6,$7,$8,$9,0*
20,1,$1+$1,$8,$9,$2,$3,0*%
G04 Aperture macros list end*
%TA.AperFunction,SMDPad,CuDef*%
%ADD10RoundRect,0.250000X-0.375000X-0.625000X0.375000X-0.625000X0.375000X0.625000X-0.375000X0.625000X0*%
%TD*%
%TA.AperFunction,WasherPad*%
%ADD11C,3.500001*%
%TD*%
%TA.AperFunction,SMDPad,CuDef*%
%ADD12R,0.900000X0.500000*%
%TD*%
%TA.AperFunction,SMDPad,CuDef*%
%ADD13RoundRect,0.250000X0.375000X0.625000X-0.375000X0.625000X-0.375000X-0.625000X0.375000X-0.625000X0*%
%TD*%
%TA.AperFunction,ComponentPad*%
%ADD14C,3.500001*%
%TD*%
%TA.AperFunction,SMDPad,CuDef*%
%ADD15RoundRect,0.125000X-0.000010X-0.150000X0.000010X-0.150000X0.000010X0.150000X-0.000010X0.150000X0*%
%TD*%
%TA.AperFunction,SMDPad,CuDef*%
%ADD16R,0.250000X0.550000*%
%TD*%
%TA.AperFunction,SMDPad,CuDef*%
%ADD17R,0.300000X0.550000*%
%TD*%
%TA.AperFunction,SMDPad,CuDef*%
%ADD18RoundRect,0.150000X0.150000X0.575000X-0.150000X0.575000X-0.150000X-0.575000X0.150000X-0.575000X0*%
%TD*%
%TA.AperFunction,SMDPad,CuDef*%
%ADD19RoundRect,0.075000X0.075000X0.650000X-0.075000X0.650000X-0.075000X-0.650000X0.075000X-0.650000X0*%
%TD*%
%TA.AperFunction,ComponentPad*%
%ADD20O,1.100000X2.200000*%
%TD*%
%TA.AperFunction,ComponentPad*%
%ADD21O,1.300000X1.900000*%
%TD*%
%TA.AperFunction,SMDPad,CuDef*%
%ADD22R,1.800000X1.200000*%
%TD*%
%TA.AperFunction,SMDPad,CuDef*%
%ADD23R,1.550000X0.600000*%
%TD*%
%TA.AperFunction,ViaPad*%
%ADD24C,0.800000*%
%TD*%
%TA.AperFunction,ViaPad*%
%ADD25C,0.450000*%
%TD*%
%TA.AperFunction,ViaPad*%
%ADD26C,0.600000*%
%TD*%
%TA.AperFunction,ViaPad*%
%ADD27C,0.500000*%
%TD*%
%TA.AperFunction,Conductor*%
%ADD28C,0.500000*%
%TD*%
%TA.AperFunction,Conductor*%
%ADD29C,0.200000*%
%TD*%
%TA.AperFunction,Conductor*%
%ADD30C,0.430000*%
%TD*%
G04 APERTURE END LIST*
D10*
%TO.P,L1,1,1*%
%TO.N,GND*%
X86585000Y-71725800D03*
%TO.P,L1,2,2*%
%TO.N,GNDPWR*%
X89385000Y-71725800D03*
%TD*%
D11*
%TO.P,MH3,*%
%TO.N,*%
X76015000Y-76185800D03*
%TD*%
%TO.P,MH1,*%
%TO.N,*%
X76015000Y-62185800D03*
%TD*%
D12*
%TO.P,R1,1*%
%TO.N,CC1*%
X99400000Y-63650000D03*
%TO.P,R1,2*%
%TO.N,GNDPWR*%
X99400000Y-65150000D03*
%TD*%
D13*
%TO.P,F1,1*%
%TO.N,VBUS*%
X89385000Y-66645800D03*
%TO.P,F1,2*%
%TO.N,VCC*%
X86585000Y-66645800D03*
%TD*%
D14*
%TO.P,MH2,1,Pin_1*%
%TO.N,GNDPWR*%
X104015000Y-76185800D03*
%TD*%
D15*
%TO.P,U1,1,IO1*%
%TO.N,DA+*%
X96000000Y-64985000D03*
D16*
%TO.P,U1,2,IO2*%
%TO.N,DA-*%
X96500000Y-64985000D03*
D17*
%TO.P,U1,3,GND*%
%TO.N,GNDPWR*%
X97000000Y-64985000D03*
D16*
%TO.P,U1,4,D2+*%
%TO.N,DA+*%
X97500000Y-64985000D03*
%TO.P,U1,5,D2-*%
%TO.N,DA-*%
X98000000Y-64985000D03*
%TO.P,U1,6,NC*%
X98000000Y-64215000D03*
%TO.P,U1,7,NC*%
%TO.N,DA+*%
X97500000Y-64215000D03*
D17*
%TO.P,U1,8,GND*%
%TO.N,GNDPWR*%
X97000000Y-64215000D03*
D16*
%TO.P,U1,9,NC*%
%TO.N,DA-*%
X96500000Y-64215000D03*
%TO.P,U1,10,NC*%
%TO.N,DA+*%
X96000000Y-64215000D03*
%TD*%
D18*
%TO.P,J1,A1,GND*%
%TO.N,GNDPWR*%
X100248000Y-61375000D03*
%TO.P,J1,A4,VBUS*%
%TO.N,VBUS*%
X99448000Y-61375000D03*
D19*
%TO.P,J1,A5,CC1*%
%TO.N,CC1*%
X98248000Y-61375000D03*
%TO.P,J1,A6,D+*%
%TO.N,DA+*%
X97252000Y-61375000D03*
%TO.P,J1,A7,D-*%
%TO.N,DA-*%
X96748000Y-61375000D03*
%TO.P,J1,A8,SBU1*%
%TO.N,unconnected-(J1-SBU1-PadA8)*%
X95748000Y-61375000D03*
D18*
%TO.P,J1,B1,GND*%
%TO.N,GNDPWR*%
X93748000Y-61375000D03*
%TO.P,J1,B4,VBUS*%
%TO.N,VBUS*%
X94548000Y-61375000D03*
D19*
%TO.P,J1,B5,CC2*%
%TO.N,CC2*%
X95248000Y-61375000D03*
%TO.P,J1,B6,D+*%
%TO.N,DA+*%
X96248000Y-61375000D03*
%TO.P,J1,B7,D-*%
%TO.N,DA-*%
X97748000Y-61375000D03*
%TO.P,J1,B8,SBU2*%
%TO.N,unconnected-(J1-SBU2-PadB8)*%
X98748000Y-61375000D03*
D20*
%TO.P,J1,S,SHIELD*%
%TO.N,GNDPWR*%
X101298000Y-60600000D03*
D21*
X101298000Y-56400000D03*
D20*
X92698000Y-60600000D03*
D21*
X92698000Y-56400000D03*
%TD*%
D12*
%TO.P,R2,1*%
%TO.N,CC2*%
X94600000Y-63650000D03*
%TO.P,R2,2*%
%TO.N,GNDPWR*%
X94600000Y-65150000D03*
%TD*%
D22*
%TO.P,J4,*%
%TO.N,*%
X79995000Y-66385800D03*
X79995000Y-71985800D03*
D23*
%TO.P,J4,1,Pin_1*%
%TO.N,VCC*%
X83870000Y-67685800D03*
%TO.P,J4,2,Pin_2*%
%TO.N,DA-*%
X83870000Y-68685800D03*
%TO.P,J4,3,Pin_3*%
%TO.N,DA+*%
X83870000Y-69685800D03*
%TO.P,J4,4,Pin_4*%
%TO.N,GND*%
X83870000Y-70685800D03*
%TD*%
D24*
%TO.N,GNDPWR*%
X93855000Y-71867000D03*
X98935000Y-57897000D03*
X88775000Y-76947000D03*
X100205000Y-69327000D03*
X82425000Y-62977000D03*
X92585000Y-76947000D03*
X79885000Y-61707000D03*
X101475000Y-76947000D03*
X98935000Y-66787000D03*
X84965000Y-61707000D03*
X91315000Y-66787000D03*
X101475000Y-71867000D03*
X82425000Y-75677000D03*
X97665000Y-73137000D03*
X96395000Y-76947000D03*
X95125000Y-66787000D03*
D25*
X97000000Y-64600000D03*
D24*
X87505000Y-74407000D03*
X82425000Y-66787000D03*
X78615000Y-68057000D03*
X104015000Y-68057000D03*
X82425000Y-71867000D03*
X76075000Y-69327000D03*
X104015000Y-61707000D03*
X79885000Y-70597000D03*
X78615000Y-64247000D03*
X84965000Y-76947000D03*
X102745000Y-65517000D03*
X98935000Y-75677000D03*
X91315000Y-74407000D03*
X101475000Y-62977000D03*
X91315000Y-70597000D03*
X96395000Y-56627000D03*
X92585000Y-64247000D03*
X78615000Y-74407000D03*
X84965000Y-65517000D03*
X76075000Y-73137000D03*
X79885000Y-76947000D03*
X93855000Y-57897000D03*
X95125000Y-74407000D03*
D26*
X99400000Y-64600000D03*
D24*
X84965000Y-73137000D03*
X104015000Y-73137000D03*
X96395000Y-70597000D03*
X76075000Y-65517000D03*
X87505000Y-62977000D03*
D26*
X94600000Y-64600000D03*
%TO.N,VBUS*%
X94548000Y-62648000D03*
X99448000Y-62648000D03*
D27*
%TO.N,DA-*%
X97109341Y-59791341D03*
X98498000Y-59791341D03*
%TD*%
D28*
%TO.N,GNDPWR*%
X99400000Y-65150000D02*
X99400000Y-64600000D01*
X94600000Y-65150000D02*
X94600000Y-64600000D01*
%TO.N,VCC*%
X85837893Y-67392907D02*
X86585000Y-66645800D01*
X83870000Y-67685800D02*
X85130786Y-67685800D01*
X85130786Y-67685800D02*
G75*
G03*
X85837900Y-67392914I14J1000000D01*
G01*
%TO.N,VBUS*%
X99448000Y-62648000D02*
X99448000Y-60825000D01*
X89385000Y-64648000D02*
X89385000Y-66645800D01*
X94548000Y-60825000D02*
X94548000Y-62648000D01*
X94548000Y-62648000D02*
X91385000Y-62648000D01*
D29*
X94548000Y-60825000D02*
X94548000Y-60819670D01*
D28*
X91385000Y-62648000D02*
G75*
G03*
X89385000Y-64648000I0J-2000000D01*
G01*
D29*
%TO.N,CC1*%
X98248000Y-60825000D02*
X98248000Y-62083786D01*
X98540893Y-62790893D02*
X99400000Y-63650000D01*
X98248000Y-62083786D02*
G75*
G03*
X98540886Y-62790900I1000000J-14D01*
G01*
%TO.N,DA+*%
X96248000Y-60825000D02*
X96248000Y-63272761D01*
D30*
X85120369Y-69597932D02*
X85129633Y-69588668D01*
D29*
X97500000Y-63793553D02*
X97500000Y-64215000D01*
X97252000Y-60633107D02*
X97252000Y-60825000D01*
X96174776Y-63449538D02*
X96073223Y-63551091D01*
X97500000Y-64985000D02*
X97500000Y-65850000D01*
D30*
X83870000Y-69685800D02*
X84908237Y-69685800D01*
D29*
X97483606Y-59387788D02*
X97512895Y-59417077D01*
X96000000Y-64215000D02*
X96000000Y-64985000D01*
X97325224Y-63515224D02*
X97426777Y-63616777D01*
X96000000Y-63727867D02*
X96000000Y-64215000D01*
D30*
X97315000Y-67870800D02*
X97315000Y-66035000D01*
D29*
X97500000Y-64215000D02*
X97500000Y-64985000D01*
X97512894Y-60165106D02*
X97398446Y-60279554D01*
X96893766Y-59241341D02*
X97130052Y-59241341D01*
D30*
X85341765Y-69500800D02*
X95685000Y-69500800D01*
D29*
X96248000Y-60825000D02*
X96248000Y-59887107D01*
D30*
X97315000Y-66035000D02*
X97500000Y-65850000D01*
D29*
X96394447Y-59533553D02*
X96540213Y-59387787D01*
X97252000Y-60825000D02*
X97252000Y-63338447D01*
X97659341Y-59770630D02*
X97659341Y-59811552D01*
X97252000Y-60633107D02*
G75*
G02*
X97398443Y-60279551I500000J7D01*
G01*
X96174776Y-63449538D02*
G75*
G03*
X96247972Y-63272761I-176776J176738D01*
G01*
X96893766Y-59241341D02*
G75*
G03*
X96540239Y-59387813I34J-499959D01*
G01*
X96248000Y-59887107D02*
G75*
G02*
X96394444Y-59533550I500000J7D01*
G01*
X97512895Y-59417077D02*
G75*
G02*
X97659308Y-59770630I-353595J-353523D01*
G01*
X97252000Y-63338447D02*
G75*
G03*
X97325247Y-63515201I250000J47D01*
G01*
X97483606Y-59387788D02*
G75*
G03*
X97130052Y-59241363I-353506J-353512D01*
G01*
D30*
X95685000Y-69500800D02*
G75*
G03*
X97315000Y-67870800I0J1630000D01*
G01*
X85341765Y-69500800D02*
G75*
G03*
X85129650Y-69588685I35J-300000D01*
G01*
D29*
X97512894Y-60165106D02*
G75*
G03*
X97659295Y-59811552I-353594J353506D01*
G01*
X97426777Y-63616777D02*
G75*
G02*
X97500033Y-63793553I-176777J-176823D01*
G01*
X96073223Y-63551091D02*
G75*
G03*
X95999977Y-63727867I176777J-176809D01*
G01*
D30*
X84908237Y-69685800D02*
G75*
G03*
X85120351Y-69597914I-37J300000D01*
G01*
%TO.N,DA-*%
X85120369Y-68773668D02*
X85129633Y-68782932D01*
X96685000Y-67870800D02*
X96685000Y-66035000D01*
D29*
X96674776Y-63515224D02*
X96573223Y-63616777D01*
X97109341Y-59791341D02*
X96894446Y-60006236D01*
D30*
X83870000Y-68685800D02*
X84908237Y-68685800D01*
D29*
X97748000Y-60825000D02*
X97748000Y-60748448D01*
D30*
X85341765Y-68870800D02*
X95685000Y-68870800D01*
D29*
X96500000Y-63793553D02*
X96500000Y-64215000D01*
X97894447Y-60394894D02*
X98498000Y-59791341D01*
X97821224Y-63445538D02*
X97926777Y-63551091D01*
X98000000Y-63727867D02*
X98000000Y-64215000D01*
D30*
X96685000Y-66035000D02*
X96500000Y-65850000D01*
D29*
X96748000Y-60825000D02*
X96748000Y-63338447D01*
X98000000Y-64215000D02*
X98000000Y-64985000D01*
X96500000Y-64985000D02*
X96500000Y-65850000D01*
X97748000Y-60825000D02*
X97748000Y-63268761D01*
X96748000Y-60359789D02*
X96748000Y-60825000D01*
X96500000Y-64215000D02*
X96500000Y-64985000D01*
D30*
X95685000Y-68870800D02*
G75*
G03*
X96685000Y-67870800I0J1000000D01*
G01*
D29*
X96573223Y-63616777D02*
G75*
G03*
X96499967Y-63793553I176777J-176823D01*
G01*
X97748000Y-63268761D02*
G75*
G03*
X97821204Y-63445558I250000J-39D01*
G01*
X96748000Y-63338447D02*
G75*
G02*
X96674753Y-63515201I-250000J47D01*
G01*
X98000000Y-63727867D02*
G75*
G03*
X97926761Y-63551107I-250000J-33D01*
G01*
X97748000Y-60748448D02*
G75*
G02*
X97894423Y-60394870I500000J48D01*
G01*
D30*
X85120369Y-68773668D02*
G75*
G03*
X84908237Y-68685774I-212169J-212132D01*
G01*
X85341765Y-68870800D02*
G75*
G02*
X85129650Y-68782915I35J300000D01*
G01*
D29*
X96894446Y-60006236D02*
G75*
G03*
X96747992Y-60359789I353554J-353564D01*
G01*
%TO.N,CC2*%
X95248000Y-60825000D02*
X95248000Y-62587786D01*
X94955107Y-63294893D02*
X94600000Y-63650000D01*
X95248000Y-62587786D02*
G75*
G02*
X94955114Y-63294900I-1000000J-14D01*
G01*
D28*
%TO.N,GND*%
X85837893Y-70978693D02*
X86585000Y-71725800D01*
X83870000Y-70685800D02*
X85130786Y-70685800D01*
X85837893Y-70978693D02*
G75*
G03*
X85130786Y-70685810I-707093J-707107D01*
G01*
%TD*%
%TA.AperFunction,Conductor*%
%TO.N,GNDPWR*%
G36*
X97030274Y-63644527D02*
G01*
X97062499Y-63671565D01*
X97074410Y-63689384D01*
X97074424Y-63689405D01*
X97109282Y-63724253D01*
X97109281Y-63724253D01*
X97109289Y-63724260D01*
X97168371Y-63783342D01*
X97190111Y-63829962D01*
X97186371Y-63854264D01*
X97187578Y-63854505D01*
X97174500Y-63920251D01*
X97174500Y-64509748D01*
X97186132Y-64568230D01*
X97187372Y-64571222D01*
X97187553Y-64575371D01*
X97187578Y-64575496D01*
X97187558Y-64575499D01*
X97189616Y-64622613D01*
X97187373Y-64628776D01*
X97186132Y-64631770D01*
X97174500Y-64690251D01*
X97174500Y-65279748D01*
X97186132Y-65338229D01*
X97186825Y-65339266D01*
X97187545Y-65341640D01*
X97188968Y-65345075D01*
X97188629Y-65345215D01*
X97199500Y-65381048D01*
X97199500Y-65531744D01*
X97181907Y-65580082D01*
X97177474Y-65584919D01*
X97053172Y-65709220D01*
X97006552Y-65730959D01*
X96956865Y-65717645D01*
X96946824Y-65709219D01*
X96940123Y-65702518D01*
X96822525Y-65584919D01*
X96800786Y-65538299D01*
X96800500Y-65531745D01*
X96800500Y-65381048D01*
X96811370Y-65345215D01*
X96811032Y-65345075D01*
X96812454Y-65341640D01*
X96813175Y-65339266D01*
X96813867Y-65338231D01*
X96825500Y-65279748D01*
X96825500Y-64690252D01*
X96813867Y-64631769D01*
X96813864Y-64631765D01*
X96812629Y-64628782D01*
X96812447Y-64624633D01*
X96812422Y-64624505D01*
X96812441Y-64624501D01*
X96810382Y-64577391D01*
X96812630Y-64571216D01*
X96813864Y-64568234D01*
X96813867Y-64568231D01*
X96825500Y-64509748D01*
X96825500Y-63920252D01*
X96813867Y-63861769D01*
X96813866Y-63861768D01*
X96812422Y-63854505D01*
X96814836Y-63854024D01*
X96813079Y-63813915D01*
X96831626Y-63783343D01*
X96915236Y-63699735D01*
X96915237Y-63699732D01*
X96918648Y-63696322D01*
X96918904Y-63696029D01*
X96925552Y-63689384D01*
X96937460Y-63671566D01*
X96978945Y-63641157D01*
X97030274Y-63644527D01*
G37*
%TD.AperFunction*%
%TA.AperFunction,Conductor*%
G36*
X101473938Y-55385823D02*
G01*
X101480328Y-55385979D01*
X101564778Y-55388048D01*
X101577601Y-55389469D01*
X101756727Y-55425100D01*
X101770822Y-55429375D01*
X101938693Y-55498910D01*
X101951694Y-55505859D01*
X102102774Y-55606807D01*
X102114169Y-55616160D01*
X102242639Y-55744630D01*
X102251992Y-55756025D01*
X102352940Y-55907105D01*
X102359889Y-55920106D01*
X102429422Y-56087971D01*
X102433701Y-56102078D01*
X102469329Y-56281194D01*
X102470751Y-56294023D01*
X102472977Y-56384861D01*
X102473000Y-56386703D01*
X102473000Y-59185817D01*
X102475406Y-59284047D01*
X102475408Y-59284060D01*
X102513743Y-59476783D01*
X102513744Y-59476786D01*
X102570009Y-59612623D01*
X102588945Y-59658337D01*
X102698119Y-59821728D01*
X102698121Y-59821730D01*
X102698123Y-59821733D01*
X102837066Y-59960676D01*
X102837069Y-59960678D01*
X102837072Y-59960681D01*
X103000463Y-60069855D01*
X103182013Y-60145056D01*
X103374746Y-60183393D01*
X103399309Y-60183994D01*
X103472982Y-60185800D01*
X103473000Y-60185800D01*
X104014332Y-60185800D01*
X104015672Y-60185811D01*
X104153153Y-60188264D01*
X104162514Y-60189017D01*
X104435363Y-60228246D01*
X104445826Y-60230522D01*
X104709664Y-60307992D01*
X104719714Y-60311741D01*
X104969833Y-60425967D01*
X104979241Y-60431104D01*
X105106340Y-60512786D01*
X105210563Y-60579766D01*
X105219141Y-60586187D01*
X105426967Y-60766268D01*
X105434531Y-60773832D01*
X105614610Y-60981655D01*
X105621033Y-60990236D01*
X105769692Y-61221553D01*
X105774834Y-61230970D01*
X105889057Y-61481084D01*
X105892807Y-61491137D01*
X105970274Y-61754963D01*
X105972555Y-61765447D01*
X106011782Y-62038285D01*
X106012535Y-62047645D01*
X106014988Y-62185126D01*
X106015000Y-62186468D01*
X106015000Y-76185131D01*
X106014988Y-76186473D01*
X106012535Y-76323954D01*
X106011782Y-76333314D01*
X105972555Y-76606152D01*
X105970274Y-76616636D01*
X105892807Y-76880462D01*
X105889057Y-76890515D01*
X105774834Y-77140629D01*
X105769692Y-77150046D01*
X105621033Y-77381363D01*
X105614605Y-77389950D01*
X105434537Y-77597760D01*
X105426960Y-77605337D01*
X105219152Y-77785404D01*
X105210563Y-77791833D01*
X104979246Y-77940492D01*
X104969829Y-77945634D01*
X104719715Y-78059857D01*
X104709662Y-78063607D01*
X104445836Y-78141074D01*
X104435352Y-78143355D01*
X104162514Y-78182582D01*
X104153154Y-78183335D01*
X104018661Y-78185734D01*
X104015671Y-78185788D01*
X104014332Y-78185800D01*
X77334882Y-78185800D01*
X77286544Y-78168207D01*
X77260824Y-78123658D01*
X77269757Y-78073000D01*
X77293101Y-78048074D01*
X77392838Y-77981433D01*
X77615427Y-77786227D01*
X77810633Y-77563638D01*
X77975115Y-77317473D01*
X78106059Y-77051945D01*
X78201224Y-76771597D01*
X78258983Y-76481226D01*
X78278346Y-76185800D01*
X78278346Y-76185794D01*
X102912498Y-76185794D01*
X102912498Y-76185805D01*
X102932420Y-76394441D01*
X102932422Y-76394451D01*
X102991472Y-76595560D01*
X103087513Y-76781854D01*
X103217079Y-76946610D01*
X103217081Y-76946611D01*
X103217082Y-76946613D01*
X103375486Y-77083872D01*
X103557004Y-77188671D01*
X103755075Y-77257224D01*
X103962541Y-77287053D01*
X104171902Y-77277080D01*
X104171909Y-77277078D01*
X104171912Y-77277078D01*
X104375589Y-77227666D01*
X104375589Y-77227665D01*
X104375593Y-77227665D01*
X104566251Y-77140595D01*
X104736985Y-77019015D01*
X104881625Y-76867322D01*
X104994943Y-76690996D01*
X105072843Y-76496411D01*
X105112510Y-76290599D01*
X105115000Y-76185800D01*
X105112510Y-76081001D01*
X105072843Y-75875189D01*
X105058030Y-75838189D01*
X104994943Y-75680604D01*
X104994942Y-75680602D01*
X104881626Y-75504279D01*
X104736988Y-75352588D01*
X104736987Y-75352587D01*
X104736985Y-75352585D01*
X104566251Y-75231005D01*
X104566246Y-75231002D01*
X104566243Y-75231001D01*
X104375593Y-75143935D01*
X104375589Y-75143933D01*
X104171912Y-75094521D01*
X104171902Y-75094520D01*
X103962542Y-75084547D01*
X103962541Y-75084547D01*
X103893385Y-75094490D01*
X103755073Y-75114376D01*
X103557001Y-75182930D01*
X103375488Y-75287726D01*
X103375486Y-75287728D01*
X103217079Y-75424989D01*
X103087513Y-75589745D01*
X102991472Y-75776039D01*
X102932422Y-75977148D01*
X102932420Y-75977158D01*
X102912498Y-76185794D01*
X78278346Y-76185794D01*
X78258983Y-75890374D01*
X78201224Y-75600003D01*
X78106059Y-75319655D01*
X77975115Y-75054127D01*
X77810633Y-74807962D01*
X77706632Y-74689372D01*
X77615427Y-74585372D01*
X77496837Y-74481372D01*
X77392838Y-74390167D01*
X77146673Y-74225685D01*
X77146669Y-74225683D01*
X76881144Y-74094740D01*
X76699297Y-74033012D01*
X76600797Y-73999576D01*
X76600794Y-73999575D01*
X76600793Y-73999575D01*
X76453654Y-73970307D01*
X76310426Y-73941817D01*
X76310424Y-73941816D01*
X76310420Y-73941816D01*
X76015000Y-73922454D01*
X75719579Y-73941816D01*
X75719574Y-73941817D01*
X75429206Y-73999575D01*
X75148855Y-74094740D01*
X74883330Y-74225683D01*
X74637162Y-74390167D01*
X74414572Y-74585372D01*
X74219366Y-74807963D01*
X74219360Y-74807971D01*
X74152726Y-74907696D01*
X74111243Y-74938113D01*
X74059913Y-74934748D01*
X74022755Y-74899177D01*
X74015000Y-74865917D01*
X74015000Y-71366051D01*
X78894500Y-71366051D01*
X78894500Y-72605548D01*
X78906132Y-72664029D01*
X78906133Y-72664031D01*
X78950448Y-72730352D01*
X79016769Y-72774667D01*
X79046010Y-72780483D01*
X79075251Y-72786300D01*
X79075252Y-72786300D01*
X80914749Y-72786300D01*
X80934242Y-72782422D01*
X80973231Y-72774667D01*
X81039552Y-72730352D01*
X81083867Y-72664031D01*
X81095500Y-72605548D01*
X81095500Y-71366052D01*
X81083867Y-71307569D01*
X81039552Y-71241248D01*
X80973231Y-71196933D01*
X80973229Y-71196932D01*
X80914749Y-71185300D01*
X80914748Y-71185300D01*
X79075252Y-71185300D01*
X79075251Y-71185300D01*
X79016770Y-71196932D01*
X79016768Y-71196933D01*
X78950448Y-71241248D01*
X78906133Y-71307568D01*
X78906132Y-71307570D01*
X78894500Y-71366051D01*
X74015000Y-71366051D01*
X74015000Y-67366051D01*
X82894500Y-67366051D01*
X82894500Y-68005548D01*
X82906132Y-68064029D01*
X82906133Y-68064031D01*
X82950448Y-68130352D01*
X82950449Y-68130352D01*
X82950450Y-68130354D01*
X82952722Y-68132626D01*
X82954462Y-68136359D01*
X82954563Y-68136509D01*
X82954539Y-68136524D01*
X82974462Y-68179246D01*
X82961148Y-68228933D01*
X82952722Y-68238974D01*
X82950450Y-68241245D01*
X82906133Y-68307568D01*
X82906132Y-68307570D01*
X82894500Y-68366051D01*
X82894500Y-69005548D01*
X82906132Y-69064029D01*
X82906133Y-69064031D01*
X82950448Y-69130352D01*
X82950449Y-69130352D01*
X82950450Y-69130354D01*
X82952722Y-69132626D01*
X82954462Y-69136359D01*
X82954563Y-69136509D01*
X82954539Y-69136524D01*
X82974462Y-69179246D01*
X82961148Y-69228933D01*
X82952722Y-69238974D01*
X82950450Y-69241245D01*
X82906133Y-69307568D01*
X82906132Y-69307570D01*
X82894500Y-69366051D01*
X82894500Y-70005548D01*
X82906132Y-70064029D01*
X82906133Y-70064031D01*
X82950448Y-70130352D01*
X82950449Y-70130352D01*
X82950450Y-70130354D01*
X82952722Y-70132626D01*
X82954462Y-70136359D01*
X82954563Y-70136509D01*
X82954539Y-70136524D01*
X82974462Y-70179246D01*
X82961148Y-70228933D01*
X82952722Y-70238974D01*
X82950450Y-70241245D01*
X82906133Y-70307568D01*
X82906132Y-70307570D01*
X82894500Y-70366051D01*
X82894500Y-71005548D01*
X82906132Y-71064029D01*
X82906133Y-71064031D01*
X82950448Y-71130352D01*
X83016769Y-71174667D01*
X83034159Y-71178126D01*
X83075251Y-71186300D01*
X83075252Y-71186300D01*
X84664749Y-71186300D01*
X84688291Y-71181617D01*
X84723231Y-71174667D01*
X84723234Y-71174665D01*
X84761683Y-71148974D01*
X84803462Y-71136300D01*
X85071483Y-71136300D01*
X85127098Y-71136300D01*
X85134467Y-71136661D01*
X85230625Y-71146131D01*
X85245083Y-71149007D01*
X85333990Y-71175976D01*
X85347608Y-71181617D01*
X85429546Y-71225411D01*
X85441801Y-71233598D01*
X85516428Y-71294842D01*
X85521896Y-71299799D01*
X85737474Y-71515377D01*
X85759214Y-71561997D01*
X85759500Y-71568551D01*
X85759500Y-72405073D01*
X85762353Y-72435492D01*
X85762354Y-72435499D01*
X85762355Y-72435501D01*
X85807205Y-72563679D01*
X85807207Y-72563682D01*
X85887850Y-72672950D01*
X85997117Y-72753592D01*
X85997120Y-72753594D01*
X86027889Y-72764360D01*
X86125301Y-72798446D01*
X86139347Y-72799763D01*
X86155727Y-72801300D01*
X86155734Y-72801300D01*
X87014272Y-72801300D01*
X87028312Y-72799982D01*
X87044699Y-72798446D01*
X87172882Y-72753593D01*
X87282150Y-72672950D01*
X87362793Y-72563682D01*
X87407646Y-72435499D01*
X87409073Y-72420282D01*
X87410500Y-72405073D01*
X87410500Y-71046526D01*
X87408869Y-71029143D01*
X87407646Y-71016101D01*
X87362793Y-70887918D01*
X87282150Y-70778650D01*
X87172882Y-70698007D01*
X87172879Y-70698005D01*
X87075470Y-70663921D01*
X87044699Y-70653154D01*
X87044694Y-70653153D01*
X87044692Y-70653153D01*
X87014273Y-70650300D01*
X87014266Y-70650300D01*
X86177765Y-70650300D01*
X86129427Y-70632707D01*
X86124591Y-70628275D01*
X86089226Y-70592911D01*
X86089222Y-70592907D01*
X85938370Y-70477157D01*
X85773701Y-70382088D01*
X85773697Y-70382086D01*
X85773693Y-70382084D01*
X85598037Y-70309327D01*
X85598024Y-70309323D01*
X85414375Y-70260117D01*
X85414368Y-70260115D01*
X85367238Y-70253911D01*
X85225851Y-70235299D01*
X85225848Y-70235299D01*
X85130780Y-70235300D01*
X85068656Y-70235300D01*
X85020318Y-70217707D01*
X84994598Y-70173158D01*
X85003531Y-70122500D01*
X85042936Y-70089435D01*
X85053977Y-70086347D01*
X85076630Y-70081837D01*
X85116987Y-70073806D01*
X85247192Y-70019857D01*
X85364372Y-69941543D01*
X85367585Y-69938330D01*
X85414203Y-69916587D01*
X85420764Y-69916300D01*
X95819066Y-69916300D01*
X95819069Y-69916300D01*
X96084914Y-69881301D01*
X96343915Y-69811902D01*
X96591643Y-69709290D01*
X96823857Y-69575220D01*
X97036586Y-69411988D01*
X97226188Y-69222386D01*
X97389420Y-69009657D01*
X97523490Y-68777443D01*
X97626102Y-68529715D01*
X97695501Y-68270714D01*
X97730500Y-68004869D01*
X97730500Y-67870800D01*
X97730500Y-67811060D01*
X97730500Y-66238253D01*
X97748093Y-66189915D01*
X97752515Y-66185089D01*
X97832483Y-66105122D01*
X97887184Y-66010376D01*
X97915500Y-65904701D01*
X97915500Y-65795299D01*
X97887184Y-65689623D01*
X97832483Y-65594877D01*
X97832481Y-65594875D01*
X97832479Y-65594872D01*
X97826481Y-65588874D01*
X97804741Y-65542254D01*
X97818055Y-65492567D01*
X97860192Y-65463062D01*
X97879655Y-65460500D01*
X98144749Y-65460500D01*
X98164242Y-65456622D01*
X98203231Y-65448867D01*
X98269552Y-65404552D01*
X98313867Y-65338231D01*
X98325500Y-65279748D01*
X98325500Y-64690252D01*
X98313867Y-64631769D01*
X98313864Y-64631765D01*
X98312629Y-64628782D01*
X98312447Y-64624633D01*
X98312422Y-64624505D01*
X98312441Y-64624501D01*
X98310382Y-64577391D01*
X98312630Y-64571216D01*
X98313864Y-64568234D01*
X98313867Y-64568231D01*
X98325500Y-64509748D01*
X98325500Y-63920252D01*
X98313867Y-63861769D01*
X98313173Y-63860730D01*
X98312453Y-63858356D01*
X98311032Y-63854926D01*
X98311369Y-63854786D01*
X98300500Y-63818952D01*
X98300500Y-63781525D01*
X98300507Y-63781426D01*
X98300506Y-63775424D01*
X98300507Y-63775422D01*
X98300504Y-63759002D01*
X98300526Y-63758940D01*
X98300522Y-63727827D01*
X98300523Y-63727827D01*
X98300516Y-63673608D01*
X98279348Y-63567257D01*
X98237840Y-63467078D01*
X98230182Y-63455619D01*
X98177589Y-63376924D01*
X98177587Y-63376921D01*
X98139243Y-63338586D01*
X98139243Y-63338585D01*
X98139237Y-63338580D01*
X98070534Y-63269877D01*
X98050427Y-63226760D01*
X98049398Y-63226920D01*
X98049389Y-63226862D01*
X98049173Y-63224071D01*
X98048794Y-63223257D01*
X98048508Y-63216646D01*
X98048508Y-63215446D01*
X98048500Y-63215331D01*
X98048500Y-62876796D01*
X98066093Y-62828458D01*
X98110642Y-62802738D01*
X98161300Y-62811671D01*
X98184535Y-62832592D01*
X98256033Y-62931002D01*
X98296143Y-62971112D01*
X98296155Y-62971126D01*
X98300432Y-62975403D01*
X98300433Y-62975404D01*
X98328405Y-63003376D01*
X98366344Y-63041316D01*
X98366351Y-63041322D01*
X98727474Y-63402445D01*
X98749214Y-63449065D01*
X98749500Y-63455619D01*
X98749500Y-63919748D01*
X98761132Y-63978229D01*
X98761133Y-63978231D01*
X98805448Y-64044552D01*
X98871769Y-64088867D01*
X98901010Y-64094683D01*
X98930251Y-64100500D01*
X98930252Y-64100500D01*
X99869749Y-64100500D01*
X99889242Y-64096622D01*
X99928231Y-64088867D01*
X99994552Y-64044552D01*
X100038867Y-63978231D01*
X100050500Y-63919748D01*
X100050500Y-63380252D01*
X100049841Y-63376941D01*
X100038867Y-63321770D01*
X100038866Y-63321768D01*
X100035996Y-63317473D01*
X99994552Y-63255448D01*
X99928231Y-63211133D01*
X99928229Y-63211132D01*
X99869749Y-63199500D01*
X99869748Y-63199500D01*
X99771710Y-63199500D01*
X99723372Y-63181907D01*
X99697652Y-63137358D01*
X99706585Y-63086700D01*
X99731054Y-63061038D01*
X99779126Y-63030144D01*
X99779125Y-63030144D01*
X99779128Y-63030143D01*
X99873377Y-62921373D01*
X99933165Y-62790457D01*
X99953647Y-62648000D01*
X99933165Y-62505543D01*
X99905296Y-62444519D01*
X99898500Y-62413279D01*
X99898500Y-62150761D01*
X99906141Y-62117733D01*
X99938573Y-62051393D01*
X99948500Y-61983260D01*
X99948500Y-60766740D01*
X99948498Y-60766729D01*
X99938769Y-60699954D01*
X99949209Y-60649585D01*
X99989583Y-60617710D01*
X99993689Y-60616482D01*
X100110135Y-60585281D01*
X100241365Y-60509515D01*
X100348515Y-60402365D01*
X100424281Y-60271135D01*
X100463500Y-60124766D01*
X100463500Y-59973234D01*
X100424281Y-59826865D01*
X100424278Y-59826860D01*
X100424277Y-59826857D01*
X100348515Y-59695634D01*
X100241365Y-59588484D01*
X100110142Y-59512722D01*
X100110136Y-59512720D01*
X100110135Y-59512719D01*
X99963766Y-59473500D01*
X99812234Y-59473500D01*
X99665865Y-59512719D01*
X99665857Y-59512722D01*
X99534634Y-59588484D01*
X99427484Y-59695634D01*
X99351722Y-59826857D01*
X99351719Y-59826865D01*
X99312500Y-59973234D01*
X99312500Y-60124766D01*
X99328854Y-60185800D01*
X99351719Y-60271136D01*
X99359353Y-60284358D01*
X99368286Y-60335016D01*
X99342566Y-60379565D01*
X99313692Y-60394595D01*
X99274119Y-60405198D01*
X99274112Y-60405201D01*
X99171384Y-60464512D01*
X99171381Y-60464514D01*
X99166079Y-60469816D01*
X99145940Y-60484194D01*
X99091519Y-60510800D01*
X99088738Y-60512786D01*
X99039174Y-60526553D01*
X99003265Y-60514109D01*
X99001285Y-60512786D01*
X98930495Y-60465485D01*
X98930493Y-60465484D01*
X98850133Y-60449500D01*
X98645866Y-60449500D01*
X98645865Y-60449501D01*
X98565503Y-60465485D01*
X98539776Y-60482675D01*
X98489810Y-60494900D01*
X98456222Y-60482675D01*
X98450250Y-60478685D01*
X98430495Y-60465485D01*
X98430493Y-60465484D01*
X98416952Y-60462791D01*
X98372976Y-60436104D01*
X98356442Y-60387394D01*
X98375087Y-60339452D01*
X98378441Y-60335869D01*
X98450446Y-60263866D01*
X98497066Y-60242127D01*
X98503620Y-60241841D01*
X98562771Y-60241841D01*
X98562772Y-60241841D01*
X98687069Y-60205345D01*
X98796049Y-60135308D01*
X98880882Y-60037404D01*
X98934697Y-59919567D01*
X98953133Y-59791341D01*
X98934697Y-59663115D01*
X98898202Y-59583204D01*
X98880882Y-59545278D01*
X98880880Y-59545275D01*
X98796051Y-59447376D01*
X98796047Y-59447372D01*
X98687068Y-59377336D01*
X98597725Y-59351104D01*
X98562772Y-59340841D01*
X98433228Y-59340841D01*
X98405016Y-59349124D01*
X98308931Y-59377336D01*
X98199952Y-59447372D01*
X98199948Y-59447376D01*
X98115119Y-59545275D01*
X98115117Y-59545278D01*
X98084361Y-59612623D01*
X98048276Y-59649284D01*
X97997069Y-59654172D01*
X97954700Y-59625002D01*
X97941682Y-59593140D01*
X97940110Y-59583209D01*
X97940107Y-59583198D01*
X97901182Y-59463369D01*
X97843993Y-59351106D01*
X97843992Y-59351104D01*
X97769943Y-59249165D01*
X97762623Y-59241843D01*
X97757348Y-59236567D01*
X97757293Y-59236504D01*
X97753355Y-59232566D01*
X97734032Y-59213243D01*
X97734027Y-59213237D01*
X97729745Y-59208955D01*
X97721744Y-59200954D01*
X97721738Y-59200941D01*
X97721735Y-59200945D01*
X97718746Y-59197955D01*
X97718719Y-59197898D01*
X97651553Y-59130735D01*
X97651550Y-59130732D01*
X97549608Y-59056672D01*
X97549602Y-59056668D01*
X97437334Y-58999471D01*
X97317488Y-58960538D01*
X97317482Y-58960537D01*
X97193029Y-58940836D01*
X97193028Y-58940836D01*
X97130023Y-58940841D01*
X96947416Y-58940841D01*
X96947379Y-58940838D01*
X96941340Y-58940838D01*
X96926789Y-58940838D01*
X96924930Y-58940839D01*
X96924831Y-58940803D01*
X96830744Y-58940809D01*
X96830734Y-58940810D01*
X96706295Y-58960529D01*
X96706280Y-58960533D01*
X96586461Y-58999476D01*
X96586457Y-58999477D01*
X96474183Y-59056695D01*
X96474183Y-59056696D01*
X96372249Y-59130770D01*
X96372247Y-59130772D01*
X96327750Y-59175279D01*
X96327744Y-59175285D01*
X96215616Y-59287412D01*
X96215615Y-59287411D01*
X96215613Y-59287414D01*
X96215612Y-59287416D01*
X96201807Y-59301220D01*
X96201796Y-59301225D01*
X96137409Y-59365613D01*
X96137406Y-59365616D01*
X96063346Y-59467554D01*
X96063342Y-59467562D01*
X96006144Y-59579822D01*
X96006143Y-59579823D01*
X95967210Y-59699655D01*
X95967208Y-59699664D01*
X95947499Y-59824106D01*
X95947499Y-59824114D01*
X95947500Y-59863225D01*
X95947500Y-60377235D01*
X95929907Y-60425573D01*
X95885358Y-60451293D01*
X95857635Y-60450991D01*
X95850136Y-60449500D01*
X95645866Y-60449500D01*
X95645865Y-60449501D01*
X95565503Y-60465485D01*
X95539776Y-60482675D01*
X95489810Y-60494900D01*
X95456222Y-60482675D01*
X95450250Y-60478685D01*
X95430495Y-60465485D01*
X95430493Y-60465484D01*
X95430492Y-60465484D01*
X95350133Y-60449500D01*
X95145866Y-60449500D01*
X95145865Y-60449501D01*
X95065505Y-60465484D01*
X94992734Y-60514109D01*
X94942768Y-60526335D01*
X94907258Y-60512783D01*
X94904487Y-60510804D01*
X94850058Y-60484195D01*
X94829913Y-60469810D01*
X94824613Y-60464510D01*
X94721887Y-60405201D01*
X94721880Y-60405199D01*
X94682307Y-60394595D01*
X94640170Y-60365090D01*
X94626857Y-60315403D01*
X94636645Y-60284360D01*
X94644281Y-60271135D01*
X94683500Y-60124766D01*
X94683500Y-59973234D01*
X94644281Y-59826865D01*
X94644278Y-59826860D01*
X94644277Y-59826857D01*
X94568515Y-59695634D01*
X94461365Y-59588484D01*
X94330142Y-59512722D01*
X94330136Y-59512720D01*
X94330135Y-59512719D01*
X94183766Y-59473500D01*
X94032234Y-59473500D01*
X93885865Y-59512719D01*
X93885857Y-59512722D01*
X93754634Y-59588484D01*
X93647484Y-59695634D01*
X93571722Y-59826857D01*
X93571719Y-59826865D01*
X93532500Y-59973234D01*
X93532500Y-60124766D01*
X93571719Y-60271134D01*
X93571722Y-60271142D01*
X93647484Y-60402365D01*
X93754634Y-60509515D01*
X93885857Y-60585277D01*
X93885860Y-60585278D01*
X93885865Y-60585281D01*
X94002280Y-60616474D01*
X94044416Y-60645978D01*
X94057730Y-60695665D01*
X94057230Y-60699953D01*
X94047500Y-60766729D01*
X94047500Y-61983268D01*
X94057427Y-62051392D01*
X94075945Y-62089272D01*
X94081369Y-62140426D01*
X94052643Y-62183097D01*
X94008386Y-62197500D01*
X91236770Y-62197500D01*
X90942479Y-62233233D01*
X90942471Y-62233235D01*
X90654632Y-62304180D01*
X90377444Y-62409305D01*
X90114956Y-62547069D01*
X90114948Y-62547074D01*
X90114947Y-62547075D01*
X90033620Y-62603210D01*
X89870970Y-62715479D01*
X89649068Y-62912068D01*
X89452479Y-63133970D01*
X89359004Y-63269393D01*
X89284770Y-63376941D01*
X89284076Y-63377946D01*
X89284069Y-63377956D01*
X89146305Y-63640444D01*
X89041180Y-63917632D01*
X88970235Y-64205471D01*
X88970233Y-64205479D01*
X88934500Y-64499770D01*
X88934500Y-65516577D01*
X88916907Y-65564915D01*
X88884137Y-65587557D01*
X88797120Y-65618005D01*
X88797117Y-65618007D01*
X88687850Y-65698650D01*
X88607207Y-65807917D01*
X88607205Y-65807920D01*
X88562355Y-65936098D01*
X88562353Y-65936107D01*
X88559500Y-65966526D01*
X88559500Y-67325073D01*
X88562353Y-67355492D01*
X88562354Y-67355499D01*
X88562355Y-67355501D01*
X88607205Y-67483679D01*
X88607207Y-67483682D01*
X88687850Y-67592950D01*
X88797117Y-67673592D01*
X88797120Y-67673594D01*
X88827889Y-67684360D01*
X88925301Y-67718446D01*
X88939347Y-67719763D01*
X88955727Y-67721300D01*
X88955734Y-67721300D01*
X89814272Y-67721300D01*
X89828312Y-67719982D01*
X89844699Y-67718446D01*
X89972882Y-67673593D01*
X90082150Y-67592950D01*
X90162793Y-67483682D01*
X90207646Y-67355499D01*
X90209073Y-67340282D01*
X90210500Y-67325073D01*
X90210500Y-65966526D01*
X90208869Y-65949143D01*
X90207646Y-65936101D01*
X90162793Y-65807918D01*
X90082150Y-65698650D01*
X89972882Y-65618007D01*
X89972879Y-65618005D01*
X89885863Y-65587557D01*
X89846048Y-65554986D01*
X89835500Y-65516577D01*
X89835500Y-64650680D01*
X89835692Y-64645315D01*
X89836661Y-64631769D01*
X89850888Y-64432842D01*
X89852415Y-64422227D01*
X89884038Y-64276859D01*
X89897123Y-64216708D01*
X89900140Y-64206428D01*
X89973647Y-64009348D01*
X89978105Y-63999590D01*
X90053361Y-63861769D01*
X90078901Y-63814996D01*
X90084690Y-63805985D01*
X90210753Y-63637585D01*
X90217767Y-63629491D01*
X90366491Y-63480767D01*
X90374585Y-63473753D01*
X90542985Y-63347690D01*
X90551996Y-63341901D01*
X90683898Y-63269877D01*
X90736590Y-63241105D01*
X90746349Y-63236647D01*
X90761865Y-63230860D01*
X90943428Y-63163140D01*
X90953708Y-63160123D01*
X91159232Y-63115414D01*
X91169842Y-63113888D01*
X91382316Y-63098692D01*
X91387681Y-63098500D01*
X91444309Y-63098500D01*
X93992436Y-63098500D01*
X94040774Y-63116093D01*
X94066494Y-63160642D01*
X94057561Y-63211300D01*
X94034217Y-63236224D01*
X94016825Y-63247846D01*
X94005448Y-63255448D01*
X93961133Y-63321768D01*
X93961132Y-63321770D01*
X93949500Y-63380251D01*
X93949500Y-63919748D01*
X93961132Y-63978229D01*
X93961133Y-63978231D01*
X94005448Y-64044552D01*
X94071769Y-64088867D01*
X94101010Y-64094683D01*
X94130251Y-64100500D01*
X94130252Y-64100500D01*
X95069749Y-64100500D01*
X95089242Y-64096622D01*
X95128231Y-64088867D01*
X95194552Y-64044552D01*
X95238867Y-63978231D01*
X95250500Y-63919748D01*
X95250500Y-63444952D01*
X95264862Y-63400751D01*
X95281424Y-63377956D01*
X95360295Y-63269398D01*
X95453226Y-63087004D01*
X95516481Y-62892318D01*
X95548501Y-62690134D01*
X95548500Y-62587782D01*
X95548500Y-62540187D01*
X95548500Y-62372763D01*
X95566093Y-62324426D01*
X95610642Y-62298706D01*
X95638371Y-62299009D01*
X95645867Y-62300500D01*
X95850132Y-62300499D01*
X95850133Y-62300499D01*
X95850133Y-62300498D01*
X95854958Y-62299539D01*
X95857630Y-62299008D01*
X95908471Y-62306833D01*
X95942387Y-62345508D01*
X95947500Y-62372763D01*
X95947500Y-63219329D01*
X95947491Y-63219445D01*
X95947491Y-63220701D01*
X95947368Y-63221038D01*
X95946611Y-63230860D01*
X95946602Y-63230918D01*
X95943923Y-63230502D01*
X95929898Y-63269039D01*
X95925466Y-63273875D01*
X95829469Y-63369873D01*
X95829288Y-63370079D01*
X95822438Y-63376928D01*
X95822427Y-63376941D01*
X95762184Y-63467082D01*
X95762180Y-63467089D01*
X95720676Y-63567256D01*
X95720673Y-63567265D01*
X95699507Y-63673606D01*
X95699507Y-63673612D01*
X95699505Y-63683663D01*
X95699500Y-63683757D01*
X95699500Y-63727827D01*
X95699492Y-63781426D01*
X95699500Y-63781525D01*
X95699500Y-63818952D01*
X95688630Y-63854786D01*
X95688968Y-63854926D01*
X95687546Y-63858356D01*
X95686827Y-63860730D01*
X95686134Y-63861766D01*
X95686132Y-63861770D01*
X95674500Y-63920251D01*
X95674500Y-64509748D01*
X95686132Y-64568229D01*
X95686825Y-64569266D01*
X95687545Y-64571640D01*
X95688968Y-64575075D01*
X95688629Y-64575215D01*
X95699500Y-64611048D01*
X95699500Y-64692555D01*
X95692454Y-64724336D01*
X95680742Y-64749451D01*
X95680740Y-64749457D01*
X95674500Y-64796862D01*
X95674500Y-65173135D01*
X95680741Y-65220546D01*
X95729250Y-65324575D01*
X95729256Y-65324583D01*
X95810416Y-65405743D01*
X95810424Y-65405749D01*
X95914450Y-65454257D01*
X95914452Y-65454257D01*
X95914455Y-65454259D01*
X95961861Y-65460500D01*
X96038138Y-65460499D01*
X96085545Y-65454259D01*
X96092519Y-65451006D01*
X96143762Y-65446523D01*
X96185900Y-65476027D01*
X96199500Y-65519161D01*
X96199500Y-65531745D01*
X96181907Y-65580083D01*
X96177474Y-65584919D01*
X96167520Y-65594872D01*
X96167516Y-65594878D01*
X96112816Y-65689621D01*
X96101740Y-65730959D01*
X96084501Y-65795299D01*
X96084501Y-65904701D01*
X96101069Y-65966534D01*
X96112816Y-66010378D01*
X96155957Y-66085100D01*
X96167517Y-66105123D01*
X96247474Y-66185079D01*
X96269214Y-66231699D01*
X96269500Y-66238254D01*
X96269500Y-67866577D01*
X96269027Y-67874997D01*
X96255793Y-67992443D01*
X96252046Y-68008860D01*
X96214414Y-68116408D01*
X96207108Y-68131578D01*
X96166044Y-68196933D01*
X96146488Y-68228057D01*
X96135988Y-68241222D01*
X96055422Y-68321788D01*
X96042257Y-68332288D01*
X95945780Y-68392908D01*
X95930608Y-68400214D01*
X95823060Y-68437846D01*
X95806643Y-68441593D01*
X95689198Y-68454827D01*
X95680778Y-68455300D01*
X85420727Y-68455300D01*
X85372389Y-68437707D01*
X85367548Y-68433270D01*
X85364356Y-68430077D01*
X85364352Y-68430074D01*
X85364351Y-68430073D01*
X85247184Y-68351768D01*
X85247178Y-68351765D01*
X85116980Y-68297819D01*
X85116975Y-68297818D01*
X85053844Y-68285253D01*
X85009870Y-68258563D01*
X84993341Y-68209851D01*
X85011990Y-68161911D01*
X85057092Y-68137174D01*
X85068523Y-68136300D01*
X85195415Y-68136300D01*
X85195549Y-68136290D01*
X85225850Y-68136291D01*
X85414365Y-68111475D01*
X85591437Y-68064031D01*
X85598021Y-68062267D01*
X85598022Y-68062266D01*
X85598028Y-68062265D01*
X85773697Y-67989503D01*
X85938365Y-67894435D01*
X86089215Y-67778686D01*
X86110220Y-67757680D01*
X86110233Y-67757670D01*
X86124578Y-67743326D01*
X86171198Y-67721586D01*
X86177752Y-67721300D01*
X87014272Y-67721300D01*
X87028312Y-67719982D01*
X87044699Y-67718446D01*
X87172882Y-67673593D01*
X87282150Y-67592950D01*
X87362793Y-67483682D01*
X87407646Y-67355499D01*
X87409073Y-67340282D01*
X87410500Y-67325073D01*
X87410500Y-65966526D01*
X87408869Y-65949143D01*
X87407646Y-65936101D01*
X87362793Y-65807918D01*
X87282150Y-65698650D01*
X87172882Y-65618007D01*
X87172879Y-65618005D01*
X87064498Y-65580082D01*
X87044699Y-65573154D01*
X87044694Y-65573153D01*
X87044692Y-65573153D01*
X87014273Y-65570300D01*
X87014266Y-65570300D01*
X86155734Y-65570300D01*
X86155727Y-65570300D01*
X86125307Y-65573153D01*
X86125303Y-65573153D01*
X86125301Y-65573154D01*
X86125298Y-65573154D01*
X86125298Y-65573155D01*
X85997120Y-65618005D01*
X85997117Y-65618007D01*
X85887850Y-65698650D01*
X85807207Y-65807917D01*
X85807205Y-65807920D01*
X85762355Y-65936098D01*
X85762353Y-65936107D01*
X85759500Y-65966526D01*
X85759500Y-66803047D01*
X85741907Y-66851385D01*
X85737474Y-66856221D01*
X85521957Y-67071738D01*
X85516489Y-67076695D01*
X85441799Y-67137990D01*
X85429541Y-67146180D01*
X85347605Y-67189974D01*
X85333985Y-67195615D01*
X85245081Y-67222582D01*
X85230624Y-67225458D01*
X85152456Y-67233156D01*
X85134364Y-67234938D01*
X85126997Y-67235300D01*
X84803462Y-67235300D01*
X84761683Y-67222626D01*
X84723234Y-67196934D01*
X84723229Y-67196932D01*
X84664749Y-67185300D01*
X84664748Y-67185300D01*
X83075252Y-67185300D01*
X83075251Y-67185300D01*
X83016770Y-67196932D01*
X83016768Y-67196933D01*
X82950448Y-67241248D01*
X82906133Y-67307568D01*
X82906132Y-67307570D01*
X82894500Y-67366051D01*
X74015000Y-67366051D01*
X74015000Y-65766051D01*
X78894500Y-65766051D01*
X78894500Y-67005548D01*
X78906132Y-67064029D01*
X78906133Y-67064031D01*
X78950448Y-67130352D01*
X79016769Y-67174667D01*
X79046010Y-67180483D01*
X79075251Y-67186300D01*
X79075252Y-67186300D01*
X80914749Y-67186300D01*
X80934242Y-67182422D01*
X80973231Y-67174667D01*
X81039552Y-67130352D01*
X81083867Y-67064031D01*
X81095500Y-67005548D01*
X81095500Y-65766052D01*
X81094772Y-65762394D01*
X81083867Y-65707570D01*
X81083866Y-65707568D01*
X81077907Y-65698650D01*
X81039552Y-65641248D01*
X80973231Y-65596933D01*
X80973229Y-65596932D01*
X80914749Y-65585300D01*
X80914748Y-65585300D01*
X79075252Y-65585300D01*
X79075251Y-65585300D01*
X79016770Y-65596932D01*
X79016768Y-65596933D01*
X78950448Y-65641248D01*
X78906133Y-65707568D01*
X78906132Y-65707570D01*
X78894500Y-65766051D01*
X74015000Y-65766051D01*
X74015000Y-63505682D01*
X74032593Y-63457344D01*
X74077142Y-63431624D01*
X74127800Y-63440557D01*
X74152725Y-63463901D01*
X74219367Y-63563638D01*
X74286725Y-63640445D01*
X74414572Y-63786227D01*
X74491880Y-63854024D01*
X74637162Y-63981433D01*
X74883327Y-64145915D01*
X75148855Y-64276859D01*
X75429203Y-64372024D01*
X75719574Y-64429783D01*
X76015000Y-64449146D01*
X76310426Y-64429783D01*
X76600797Y-64372024D01*
X76881145Y-64276859D01*
X77146673Y-64145915D01*
X77392838Y-63981433D01*
X77615427Y-63786227D01*
X77810633Y-63563638D01*
X77975115Y-63317473D01*
X78106059Y-63051945D01*
X78201224Y-62771597D01*
X78258983Y-62481226D01*
X78278346Y-62185800D01*
X78258983Y-61890374D01*
X78201224Y-61600003D01*
X78106059Y-61319655D01*
X77975115Y-61054127D01*
X77810633Y-60807962D01*
X77671740Y-60649585D01*
X77615427Y-60585372D01*
X77477611Y-60464511D01*
X77392838Y-60390167D01*
X77293101Y-60323525D01*
X77262686Y-60282043D01*
X77266050Y-60230714D01*
X77301622Y-60193555D01*
X77334882Y-60185800D01*
X90523018Y-60185800D01*
X90593742Y-60184066D01*
X90621254Y-60183393D01*
X90813987Y-60145056D01*
X90995537Y-60069855D01*
X91158928Y-59960681D01*
X91297881Y-59821728D01*
X91407055Y-59658337D01*
X91482256Y-59476787D01*
X91520593Y-59284054D01*
X91522629Y-59200941D01*
X91523000Y-59185817D01*
X91523000Y-56386703D01*
X91523023Y-56384862D01*
X91525248Y-56294024D01*
X91526670Y-56281194D01*
X91562300Y-56102069D01*
X91566574Y-56087980D01*
X91636112Y-55920101D01*
X91643056Y-55907109D01*
X91744010Y-55756020D01*
X91753355Y-55744635D01*
X91881835Y-55616155D01*
X91893220Y-55606810D01*
X92044309Y-55505856D01*
X92057301Y-55498912D01*
X92225180Y-55429374D01*
X92239269Y-55425100D01*
X92418399Y-55389469D01*
X92431220Y-55388048D01*
X92516153Y-55385967D01*
X92522062Y-55385823D01*
X92523903Y-55385800D01*
X101472097Y-55385800D01*
X101473938Y-55385823D01*
G37*
%TD.AperFunction*%
%TD*%
M02*
