M48
; DRILL file {KiCad 8.0.9} date 2025-07-05T09:17:33+0700
; FORMAT={-:-/ absolute / inch / decimal}
; #@! TF.CreationDate,2025-07-05T09:17:33+07:00
; #@! TF.GenerationSoftware,Kicad,Pcbnew,8.0.9
; #@! TF.FileFunction,Plated,1,6,PTH
FMAT,2
INCH
; #@! TA.AperFunction,Plated,PTH,ComponentDrill
T1C0.0079
; #@! TA.AperFunction,Plated,PTH,ViaDrill
T2C0.0118
; #@! TA.AperFunction,Plated,PTH,ComponentDrill
T3C0.0394
; #@! TA.AperFunction,Plated,PTH,ComponentDrill
T4C0.0866
%
G90
G05
T1
X1.5338Y-2.0932
X1.5338Y-2.1267
X1.5338Y-2.1601
X1.5673Y-2.0932
X1.5673Y-2.1267
X1.5673Y-2.1601
X1.6007Y-2.0932
X1.6007Y-2.1267
X1.6007Y-2.1601
X2.563Y-2.8442
X2.563Y-2.8856
X2.563Y-2.9269
X2.563Y-2.9683
X2.6043Y-2.8442
X2.6043Y-2.8856
X2.6043Y-2.9269
X2.6043Y-2.9683
X2.6457Y-2.8442
X2.6457Y-2.8856
X2.6457Y-2.9269
X2.6457Y-2.9683
X2.687Y-2.8442
X2.687Y-2.8856
X2.687Y-2.9269
X2.687Y-2.9683
X4.813Y-2.8442
X4.813Y-2.8856
X4.813Y-2.9269
X4.813Y-2.9683
X4.8543Y-2.8442
X4.8543Y-2.8856
X4.8543Y-2.9269
X4.8543Y-2.9683
X4.8957Y-2.8442
X4.8957Y-2.8856
X4.8957Y-2.9269
X4.8957Y-2.9683
X4.937Y-2.8442
X4.937Y-2.8856
X4.937Y-2.9269
X4.937Y-2.9683
X7.813Y-2.8442
X7.813Y-2.8856
X7.813Y-2.9269
X7.813Y-2.9683
X7.8543Y-2.8442
X7.8543Y-2.8856
X7.8543Y-2.9269
X7.8543Y-2.9683
X7.8957Y-2.8442
X7.8957Y-2.8856
X7.8957Y-2.9269
X7.8957Y-2.9683
X7.937Y-2.8442
X7.937Y-2.8856
X7.937Y-2.9269
X7.937Y-2.9683
X10.063Y-2.0942
X10.063Y-2.1356
X10.063Y-2.1769
X10.063Y-2.2183
X10.1043Y-2.0942
X10.1043Y-2.1356
X10.1043Y-2.1769
X10.1043Y-2.2183
X10.1457Y-2.0942
X10.1457Y-2.1356
X10.1457Y-2.1769
X10.1457Y-2.2183
X10.187Y-2.0942
X10.187Y-2.1356
X10.187Y-2.1769
X10.187Y-2.2183
T2
X0.675Y-0.675
X0.675Y-0.975
X0.675Y-1.475
X0.675Y-1.775
X0.675Y-2.275
X0.675Y-2.575
X0.675Y-2.875
X0.675Y-3.175
X0.675Y-3.475
X0.775Y-1.175
X0.775Y-1.975
X0.7997Y-0.8891
X0.8391Y-0.9466
X0.875Y-0.775
X0.875Y-1.375
X0.875Y-2.375
X0.875Y-2.675
X0.875Y-2.975
X0.875Y-3.275
X0.9375Y-1.0239
X0.975Y-1.575
X0.975Y-1.875
X0.9872Y-1.6391
X1.0266Y-1.6966
X1.0359Y-0.9466
X1.075Y-0.675
X1.075Y-1.175
X1.075Y-2.075
X1.075Y-2.575
X1.075Y-2.875
X1.075Y-3.175
X1.075Y-3.475
X1.0753Y-0.8891
X1.081Y-2.3891
X1.1203Y-2.4466
X1.125Y-1.7739
X1.175Y-1.375
X1.175Y-1.775
X1.175Y-2.275
X1.2188Y-2.5239
X1.2234Y-1.6966
X1.2628Y-1.6391
X1.2685Y-3.1391
X1.275Y-0.775
X1.275Y-1.075
X1.275Y-2.675
X1.275Y-2.975
X1.275Y-3.275
X1.3078Y-3.1966
X1.3172Y-2.4466
X1.3565Y-2.3891
X1.375Y-1.275
X1.375Y-1.875
X1.375Y-3.475
X1.3862Y-2.0401
X1.4062Y-3.2739
X1.4066Y-2.107
X1.4066Y-2.2094
X1.4444Y-2.107
X1.4637Y-1.9131
X1.4637Y-2.0499
X1.475Y-0.675
X1.475Y-1.475
X1.475Y-2.475
X1.475Y-2.775
X1.475Y-3.075
X1.4964Y-2.0204
X1.5011Y-1.8826
X1.5047Y-3.1966
X1.5062Y-2.2369
X1.5279Y-2.2566
X1.5377Y-1.9928
X1.5405Y-1.8826
X1.544Y-3.1391
X1.5497Y-0.8891
X1.575Y-1.075
X1.575Y-1.675
X1.575Y-3.275
X1.5891Y-0.9466
X1.6125Y-2.0164
X1.6657Y-1.966
X1.6657Y-2.0038
X1.675Y-0.775
X1.675Y-1.275
X1.675Y-1.875
X1.675Y-2.575
X1.675Y-2.875
X1.675Y-3.475
X1.6875Y-1.0239
X1.709Y-2.1424
X1.775Y-1.475
X1.775Y-3.075
X1.775Y-3.675
X1.775Y-3.975
X1.7859Y-0.9466
X1.8253Y-0.8891
X1.8498Y-2.1188
X1.875Y-0.675
X1.875Y-1.075
X1.875Y-1.775
X1.875Y-2.475
X1.875Y-3.275
X1.875Y-4.175
X1.9247Y-1.6391
X1.9247Y-3.8891
X1.9641Y-1.6966
X1.9641Y-3.9466
X1.975Y-1.275
X1.975Y-1.975
X1.975Y-2.675
X1.975Y-3.475
X1.975Y-3.775
X2.0625Y-1.7739
X2.0625Y-4.0239
X2.075Y-0.775
X2.075Y-1.475
X2.075Y-3.075
X2.075Y-4.075
X2.1122Y-2.3891
X2.1516Y-2.4466
X2.1609Y-1.6966
X2.1609Y-3.9466
X2.175Y-0.975
X2.175Y-1.775
X2.175Y-2.075
X2.175Y-2.575
X2.175Y-2.875
X2.175Y-3.275
X2.175Y-3.575
X2.2003Y-1.6391
X2.2003Y-3.8891
X2.25Y-2.5239
X2.275Y-0.675
X2.275Y-1.275
X2.275Y-3.775
X2.275Y-4.175
X2.2997Y-0.8891
X2.3391Y-0.9466
X2.3484Y-2.4466
X2.375Y-1.075
X2.375Y-2.675
X2.375Y-3.375
X2.375Y-3.975
X2.377Y-2.874
X2.377Y-2.9118
X2.3878Y-2.3891
X2.3947Y-2.7803
X2.4163Y-2.8019
X2.4219Y-3.0047
X2.4375Y-1.0239
X2.438Y-2.8236
X2.4596Y-2.8452
X2.4596Y-3.0047
X2.4719Y-2.9043
X2.475Y-0.775
X2.475Y-1.375
X2.475Y-3.575
X2.4872Y-3.1391
X2.5266Y-3.1966
X2.5305Y-2.7114
X2.5359Y-0.9466
X2.5522Y-2.7284
X2.5738Y-2.7114
X2.575Y-1.175
X2.575Y-1.775
X2.575Y-3.275
X2.575Y-3.775
X2.575Y-4.075
X2.5753Y-0.8891
X2.5955Y-2.7284
X2.6014Y-3.0716
X2.6171Y-2.7114
X2.625Y-3.2739
X2.6388Y-2.7284
X2.6604Y-2.7114
X2.6747Y-1.6391
X2.675Y-0.675
X2.675Y-1.475
X2.675Y-1.975
X2.675Y-3.475
X2.6821Y-2.7284
X2.7037Y-2.7114
X2.7141Y-1.6966
X2.7234Y-3.1966
X2.7321Y-2.7212
X2.7628Y-3.1391
X2.7699Y-2.7212
X2.775Y-1.075
X2.775Y-2.575
X2.775Y-4.175
X2.7904Y-2.861
X2.81Y-2.9926
X2.81Y-3.0304
X2.812Y-2.8393
X2.8125Y-1.7739
X2.8337Y-2.8177
X2.8553Y-2.796
X2.8622Y-2.3891
X2.8622Y-3.8891
X2.875Y-0.775
X2.875Y-1.275
X2.875Y-1.775
X2.875Y-2.075
X2.875Y-2.975
X2.9016Y-2.4466
X2.9016Y-3.9466
X2.9109Y-1.6966
X2.9503Y-1.6391
X2.975Y-2.675
X2.975Y-4.075
X3.0Y-2.5239
X3.0Y-4.0239
X3.0497Y-0.8891
X3.075Y-0.675
X3.075Y-1.875
X3.075Y-3.175
X3.075Y-3.475
X3.075Y-3.775
X3.0891Y-0.9466
X3.0934Y-1.5934
X3.0984Y-2.4466
X3.0984Y-3.9466
X3.1209Y-1.5028
X3.1378Y-2.3891
X3.1378Y-3.8891
X3.175Y-1.075
X3.175Y-1.375
X3.175Y-2.075
X3.175Y-2.575
X3.175Y-2.975
X3.175Y-4.175
X3.1875Y-1.0239
X3.2036Y-1.7902
X3.2036Y-1.8375
X3.2186Y-1.5225
X3.2186Y-1.5619
X3.2233Y-1.8139
X3.2372Y-3.1391
X3.243Y-1.7902
X3.243Y-1.8375
X3.2627Y-1.8139
X3.275Y-0.775
X3.275Y-1.575
X3.275Y-3.275
X3.275Y-3.575
X3.275Y-3.875
X3.2766Y-3.1966
X3.2824Y-1.7902
X3.2824Y-1.8375
X3.2859Y-0.9466
X3.3253Y-0.8891
X3.375Y-1.175
X3.375Y-1.775
X3.375Y-2.675
X3.375Y-3.2739
X3.375Y-4.075
X3.4247Y-1.6391
X3.4641Y-1.6966
X3.4734Y-3.1966
X3.475Y-0.675
X3.475Y-1.375
X3.475Y-1.975
X3.475Y-2.375
X3.475Y-2.875
X3.475Y-3.375
X3.475Y-3.675
X3.5128Y-3.1391
X3.5625Y-1.7739
X3.575Y-1.075
X3.575Y-1.575
X3.575Y-2.575
X3.575Y-3.875
X3.575Y-4.175
X3.6122Y-2.3891
X3.6516Y-2.4466
X3.6609Y-1.6966
X3.675Y-0.775
X3.675Y-1.275
X3.675Y-1.775
X3.675Y-2.075
X3.675Y-2.775
X3.675Y-3.175
X3.675Y-3.475
X3.7003Y-1.6391
X3.75Y-2.5239
X3.775Y-2.975
X3.775Y-3.675
X3.775Y-3.975
X3.7997Y-0.8891
X3.8391Y-0.9466
X3.8484Y-2.4466
X3.875Y-0.675
X3.875Y-1.075
X3.875Y-1.375
X3.875Y-2.575
X3.875Y-3.275
X3.8878Y-2.3891
X3.9375Y-1.0239
X3.975Y-1.575
X3.975Y-1.875
X3.975Y-2.775
X3.975Y-3.475
X3.975Y-3.775
X3.975Y-4.075
X3.9872Y-3.1391
X4.0266Y-3.1966
X4.0359Y-0.9466
X4.075Y-0.775
X4.075Y-1.175
X4.075Y-2.075
X4.075Y-2.975
X4.0753Y-0.8891
X4.125Y-3.2739
X4.1747Y-1.6391
X4.175Y-1.375
X4.175Y-1.775
X4.175Y-2.375
X4.175Y-2.675
X4.175Y-3.275
X4.175Y-3.575
X4.175Y-3.875
X4.175Y-4.175
X4.2141Y-1.6966
X4.2234Y-3.1966
X4.2628Y-3.1391
X4.275Y-0.675
X4.275Y-1.575
X4.275Y-1.975
X4.3125Y-1.7739
X4.3622Y-2.3891
X4.375Y-0.975
X4.375Y-2.575
X4.375Y-2.875
X4.375Y-3.375
X4.375Y-3.675
X4.375Y-3.975
X4.4016Y-2.4466
X4.4109Y-1.6966
X4.4503Y-1.6391
X4.475Y-0.775
X4.475Y-1.175
X4.475Y-1.475
X4.475Y-1.775
X4.475Y-2.075
X4.475Y-3.175
X4.475Y-4.175
X4.5Y-2.5239
X4.5497Y-0.8891
X4.5497Y-3.8891
X4.575Y-2.675
X4.575Y-2.975
X4.575Y-3.475
X4.575Y-3.775
X4.5891Y-0.9466
X4.5891Y-3.9466
X4.5984Y-2.4466
X4.627Y-2.874
X4.627Y-2.9118
X4.6378Y-2.3891
X4.6447Y-2.7803
X4.6663Y-2.8019
X4.6719Y-3.0047
X4.675Y-0.675
X4.675Y-1.075
X4.675Y-1.375
X4.675Y-3.275
X4.675Y-4.075
X4.6875Y-1.0239
X4.6875Y-4.0239
X4.688Y-2.8236
X4.7096Y-2.8452
X4.7096Y-3.0047
X4.7219Y-2.9043
X4.7372Y-3.1391
X4.775Y-1.675
X4.7766Y-3.1966
X4.7805Y-2.7114
X4.7859Y-0.9466
X4.7859Y-3.9466
X4.8022Y-2.7284
X4.8238Y-2.7114
X4.8253Y-0.8891
X4.8253Y-3.8891
X4.8455Y-2.7284
X4.8514Y-3.0716
X4.8671Y-2.7114
X4.875Y-0.775
X4.875Y-1.175
X4.875Y-1.475
X4.875Y-1.875
X4.875Y-3.2739
X4.875Y-3.775
X4.875Y-4.175
X4.8888Y-2.7284
X4.9104Y-2.7114
X4.9247Y-1.6391
X4.9321Y-2.7284
X4.9537Y-2.7114
X4.9641Y-1.6966
X4.9734Y-3.1966
X4.975Y-2.075
X4.975Y-3.375
X4.975Y-3.975
X4.9821Y-2.7212
X5.0128Y-3.1391
X5.0199Y-2.7212
X5.0404Y-2.861
X5.06Y-2.9929
X5.06Y-3.0307
X5.062Y-2.8393
X5.0625Y-1.7739
X5.075Y-0.675
X5.075Y-1.075
X5.075Y-1.375
X5.075Y-2.575
X5.0837Y-2.8177
X5.1053Y-2.796
X5.1122Y-2.3891
X5.1516Y-2.4466
X5.1609Y-1.6966
X5.175Y-0.875
X5.175Y-1.775
X5.175Y-3.775
X5.175Y-4.075
X5.2003Y-1.6391
X5.25Y-2.5239
X5.275Y-1.175
X5.275Y-1.475
X5.275Y-1.975
X5.275Y-2.675
X5.275Y-2.975
X5.275Y-3.275
X5.2997Y-0.8891
X5.3391Y-0.9466
X5.3484Y-2.4466
X5.375Y-0.675
X5.375Y-1.675
X5.375Y-3.475
X5.375Y-3.875
X5.3878Y-2.3891
X5.4375Y-1.0239
X5.475Y-1.275
X5.475Y-1.875
X5.475Y-2.575
X5.475Y-4.075
X5.4872Y-3.1391
X5.5266Y-3.1966
X5.5359Y-0.9466
X5.575Y-0.775
X5.575Y-1.475
X5.575Y-2.075
X5.575Y-2.375
X5.575Y-2.875
X5.575Y-3.275
X5.575Y-3.575
X5.5753Y-0.8891
X5.625Y-3.2739
X5.6747Y-1.6391
X5.675Y-1.075
X5.675Y-1.775
X5.675Y-2.675
X5.675Y-3.775
X5.675Y-4.175
X5.7141Y-1.6966
X5.7234Y-3.1966
X5.7628Y-3.1391
X5.775Y-0.675
X5.775Y-1.275
X5.775Y-1.975
X5.775Y-2.275
X5.775Y-3.375
X5.775Y-3.975
X5.8125Y-1.7739
X5.8622Y-2.3891
X5.875Y-0.875
X5.875Y-1.475
X5.875Y-2.575
X5.875Y-3.575
X5.9016Y-2.4466
X5.9109Y-1.6966
X5.9503Y-1.6391
X5.975Y-1.075
X5.975Y-1.775
X5.975Y-2.075
X5.975Y-2.775
X5.975Y-3.175
X5.975Y-3.775
X5.975Y-4.075
X6.0Y-2.5239
X6.0497Y-0.8891
X6.0497Y-3.8891
X6.075Y-0.675
X6.075Y-1.275
X6.075Y-1.575
X6.075Y-2.275
X6.075Y-2.975
X6.075Y-3.375
X6.0891Y-0.9466
X6.0891Y-3.9466
X6.0984Y-2.4466
X6.1378Y-2.3891
X6.175Y-1.875
X6.175Y-2.575
X6.175Y-3.575
X6.175Y-4.175
X6.1875Y-1.0239
X6.1875Y-4.0239
X6.2372Y-3.1391
X6.275Y-0.775
X6.275Y-1.075
X6.275Y-1.375
X6.275Y-1.675
X6.275Y-2.075
X6.275Y-2.375
X6.275Y-2.775
X6.275Y-3.275
X6.275Y-3.775
X6.2766Y-3.1966
X6.2859Y-0.9466
X6.2859Y-3.9466
X6.3253Y-0.8891
X6.3253Y-3.8891
X6.375Y-2.975
X6.375Y-3.2739
X6.375Y-3.475
X6.375Y-4.075
X6.4247Y-1.6391
X6.4641Y-1.6966
X6.4734Y-3.1966
X6.475Y-0.675
X6.475Y-1.175
X6.475Y-1.475
X6.475Y-1.775
X6.475Y-2.275
X6.475Y-2.575
X6.475Y-3.675
X6.5128Y-3.1391
X6.5625Y-1.7739
X6.575Y-1.975
X6.575Y-2.775
X6.575Y-3.275
X6.575Y-3.875
X6.575Y-4.175
X6.6122Y-2.3891
X6.6516Y-2.4466
X6.6609Y-1.6966
X6.675Y-0.775
X6.675Y-1.075
X6.675Y-1.375
X6.675Y-2.975
X6.675Y-3.475
X6.7003Y-1.6391
X6.75Y-2.5239
X6.775Y-1.575
X6.775Y-1.875
X6.775Y-2.275
X6.775Y-2.575
X6.775Y-3.175
X6.775Y-3.675
X6.775Y-3.975
X6.7997Y-0.8891
X6.8391Y-0.9466
X6.8484Y-2.4466
X6.875Y-0.675
X6.875Y-1.175
X6.875Y-2.075
X6.875Y-2.775
X6.875Y-3.375
X6.8878Y-2.3891
X6.9375Y-1.0239
X6.975Y-1.375
X6.975Y-1.675
X6.975Y-2.975
X6.975Y-3.775
X6.975Y-4.075
X6.9872Y-3.1391
X7.0266Y-3.1966
X7.0359Y-0.9466
X7.075Y-0.775
X7.075Y-1.875
X7.075Y-2.275
X7.075Y-2.575
X7.075Y-3.275
X7.075Y-3.575
X7.0753Y-0.8891
X7.125Y-3.2739
X7.1747Y-1.6391
X7.175Y-1.175
X7.175Y-1.475
X7.175Y-2.075
X7.175Y-2.875
X7.175Y-3.875
X7.175Y-4.175
X7.2141Y-1.6966
X7.2234Y-3.1966
X7.2628Y-3.1391
X7.275Y-0.675
X7.275Y-2.375
X7.275Y-2.675
X7.275Y-3.375
X7.275Y-3.675
X7.3125Y-1.7739
X7.3622Y-2.3891
X7.375Y-1.075
X7.375Y-1.375
X7.375Y-1.775
X7.375Y-2.975
X7.375Y-3.975
X7.4016Y-2.4466
X7.4109Y-1.6966
X7.4503Y-1.6391
X7.475Y-0.775
X7.475Y-1.575
X7.475Y-1.975
X7.475Y-2.275
X7.475Y-2.575
X7.475Y-3.175
X7.475Y-3.475
X7.475Y-3.775
X7.475Y-4.175
X7.5Y-2.5239
X7.5497Y-0.8891
X7.5497Y-3.8891
X7.575Y-1.175
X7.575Y-2.875
X7.5891Y-0.9466
X7.5891Y-3.9466
X7.5984Y-2.4466
X7.627Y-2.874
X7.627Y-2.9118
X7.6378Y-2.3891
X7.6447Y-2.7803
X7.6663Y-2.8019
X7.6719Y-3.0047
X7.675Y-0.675
X7.675Y-1.375
X7.675Y-2.675
X7.675Y-3.275
X7.675Y-3.575
X7.675Y-4.075
X7.6875Y-1.0239
X7.6875Y-4.0239
X7.688Y-2.8236
X7.7096Y-2.8452
X7.7096Y-3.0047
X7.7219Y-2.9043
X7.7372Y-3.1391
X7.775Y-1.075
X7.775Y-3.775
X7.7766Y-3.1966
X7.7805Y-2.7114
X7.7859Y-0.9466
X7.7859Y-3.9466
X7.8022Y-2.7284
X7.8238Y-2.7114
X7.8253Y-0.8891
X7.8253Y-3.8891
X7.8455Y-2.7284
X7.8514Y-3.0716
X7.8671Y-2.7114
X7.875Y-0.775
X7.875Y-1.275
X7.875Y-1.775
X7.875Y-3.2739
X7.875Y-3.475
X7.875Y-4.175
X7.8888Y-2.7284
X7.9104Y-2.7114
X7.9247Y-1.6391
X7.9321Y-2.7284
X7.9537Y-2.7114
X7.9641Y-1.6966
X7.9734Y-3.1966
X7.975Y-0.975
X7.975Y-1.475
X7.975Y-1.975
X7.975Y-2.275
X7.975Y-3.975
X7.9821Y-2.7212
X8.0128Y-3.1391
X8.0199Y-2.7212
X8.0404Y-2.861
X8.06Y-2.9929
X8.06Y-3.0307
X8.062Y-2.8393
X8.0625Y-1.7739
X8.075Y-0.675
X8.075Y-1.175
X8.075Y-2.575
X8.075Y-3.275
X8.0837Y-2.8177
X8.1053Y-2.796
X8.1122Y-2.3891
X8.1516Y-2.4466
X8.1609Y-1.6966
X8.175Y-0.875
X8.175Y-1.375
X8.175Y-1.775
X8.175Y-2.075
X8.175Y-3.775
X8.175Y-4.075
X8.2003Y-1.6391
X8.25Y-2.5239
X8.275Y-1.075
X8.275Y-2.275
X8.275Y-2.675
X8.275Y-2.975
X8.275Y-3.375
X8.2997Y-0.8891
X8.3391Y-0.9466
X8.3484Y-2.4466
X8.375Y-0.675
X8.375Y-1.275
X8.375Y-1.675
X8.375Y-1.975
X8.375Y-3.875
X8.3878Y-2.3891
X8.4375Y-1.0239
X8.475Y-1.475
X8.475Y-2.575
X8.475Y-3.275
X8.475Y-4.075
X8.4872Y-3.1391
X8.5266Y-3.1966
X8.5359Y-0.9466
X8.575Y-0.775
X8.575Y-1.175
X8.575Y-1.775
X8.575Y-2.075
X8.575Y-2.375
X8.575Y-2.875
X8.575Y-3.475
X8.575Y-3.775
X8.5753Y-0.8891
X8.625Y-3.2739
X8.6747Y-1.6391
X8.675Y-1.375
X8.675Y-2.675
X8.675Y-3.975
X8.7141Y-1.6966
X8.7234Y-3.1966
X8.7628Y-3.1391
X8.775Y-0.675
X8.775Y-0.975
X8.775Y-1.875
X8.775Y-2.275
X8.775Y-3.275
X8.775Y-3.575
X8.775Y-4.175
X8.8125Y-1.7739
X8.8622Y-2.3891
X8.875Y-1.175
X8.875Y-1.475
X8.875Y-2.075
X8.875Y-2.575
X8.875Y-2.875
X8.875Y-3.775
X8.9016Y-2.4466
X8.9109Y-1.6966
X8.9503Y-1.6391
X8.975Y-0.775
X8.975Y-1.775
X8.975Y-3.175
X8.975Y-3.475
X8.975Y-4.075
X9.0Y-2.5239
X9.0497Y-0.8891
X9.075Y-1.075
X9.075Y-1.375
X9.075Y-1.975
X9.075Y-2.275
X9.075Y-2.675
X9.075Y-2.975
X9.075Y-3.675
X9.0891Y-0.9466
X9.0984Y-2.4466
X9.1378Y-2.3891
X9.175Y-0.675
X9.175Y-1.575
X9.175Y-3.275
X9.175Y-3.875
X9.175Y-4.175
X9.1875Y-1.0239
X9.2372Y-3.1391
X9.2372Y-3.8891
X9.275Y-1.175
X9.275Y-1.775
X9.275Y-2.875
X9.275Y-3.475
X9.2766Y-3.1966
X9.2766Y-3.9466
X9.2859Y-0.9466
X9.3253Y-0.8891
X9.375Y-0.775
X9.375Y-1.375
X9.375Y-2.275
X9.375Y-2.575
X9.375Y-3.2739
X9.375Y-3.675
X9.375Y-4.0239
X9.375Y-4.075
X9.4247Y-1.6391
X9.4641Y-1.6966
X9.4734Y-3.1966
X9.4734Y-3.9466
X9.475Y-1.575
X9.475Y-1.875
X9.475Y-2.775
X9.475Y-3.375
X9.5128Y-3.1391
X9.5128Y-3.8891
X9.5625Y-1.7739
X9.575Y-0.675
X9.575Y-1.075
X9.575Y-2.975
X9.575Y-3.575
X9.575Y-4.175
X9.6122Y-2.3891
X9.6516Y-2.4466
X9.6609Y-1.6966
X9.675Y-0.875
X9.675Y-1.375
X9.675Y-1.775
X9.675Y-2.275
X9.675Y-2.575
X9.675Y-3.175
X9.675Y-3.775
X9.7003Y-1.6391
X9.75Y-2.5239
X9.775Y-1.175
X9.775Y-1.575
X9.775Y-1.975
X9.775Y-2.775
X9.775Y-3.375
X9.775Y-3.975
X9.7997Y-0.8891
X9.8391Y-0.9466
X9.8484Y-2.4466
X9.875Y-0.675
X9.875Y-2.975
X9.875Y-3.575
X9.8878Y-2.3891
X9.8947Y-2.2665
X9.9163Y-2.2448
X9.9375Y-1.0239
X9.938Y-2.2232
X9.9596Y-2.2015
X9.975Y-1.275
X9.975Y-2.575
X9.975Y-3.175
X9.975Y-3.775
X9.975Y-4.075
X9.9801Y-2.3413
X10.0179Y-2.3413
X10.0234Y-1.9531
X10.0234Y-1.9909
X10.0359Y-0.9466
X10.0463Y-2.3497
X10.0513Y-2.0005
X10.0679Y-2.3327
X10.075Y-0.775
X10.075Y-1.475
X10.075Y-1.775
X10.0753Y-0.8891
X10.0781Y-1.9833
X10.0896Y-2.3497
X10.1014Y-1.9633
X10.1112Y-2.3327
X10.1329Y-2.3497
X10.1486Y-1.9909
X10.1545Y-2.3327
X10.1747Y-1.6391
X10.1747Y-3.8891
X10.175Y-1.075
X10.175Y-3.275
X10.175Y-3.575
X10.175Y-4.175
X10.1762Y-2.3497
X10.1978Y-2.3327
X10.2141Y-1.6966
X10.2141Y-3.9466
X10.2195Y-2.3497
X10.2411Y-2.3281
X10.2628Y-2.3064
X10.2685Y-3.1391
X10.275Y-0.875
X10.275Y-1.275
X10.275Y-1.875
X10.275Y-2.475
X10.275Y-2.875
X10.275Y-3.775
X10.2781Y-2.1582
X10.2844Y-2.2847
X10.2904Y-2.0578
X10.3061Y-2.2631
X10.3078Y-3.1966
X10.3125Y-1.7739
X10.3125Y-4.0239
X10.3281Y-2.0578
X10.373Y-2.1507
X10.373Y-2.1885
X10.375Y-1.475
X10.375Y-3.375
X10.375Y-4.075
X10.4062Y-3.2739
X10.4109Y-1.6966
X10.4109Y-3.9466
X10.4503Y-1.6391
X10.4503Y-3.8891
X10.475Y-0.675
X10.475Y-1.075
X10.475Y-1.775
X10.475Y-2.575
X10.475Y-2.975
X10.475Y-3.575
X10.5047Y-3.1966
X10.544Y-3.1391
X10.5497Y-0.8891
X10.575Y-1.275
X10.575Y-1.575
X10.575Y-1.975
X10.575Y-2.775
X10.575Y-3.275
X10.575Y-3.775
X10.575Y-4.175
X10.5891Y-0.9466
X10.675Y-0.775
X10.675Y-2.175
X10.675Y-2.475
X10.675Y-3.475
X10.6875Y-1.0239
X10.775Y-1.075
X10.775Y-1.375
X10.775Y-1.675
X10.775Y-2.675
X10.775Y-2.975
X10.7859Y-0.9466
X10.8253Y-0.8891
X10.831Y-2.3891
X10.8703Y-2.4466
X10.875Y-0.675
X10.875Y-1.875
X10.875Y-2.275
X10.875Y-3.175
X10.9688Y-2.5239
X10.975Y-0.975
X10.975Y-1.475
X10.975Y-2.075
X10.975Y-2.575
X10.975Y-2.875
X10.975Y-3.375
X11.0672Y-2.4466
X11.075Y-0.775
X11.075Y-1.175
X11.075Y-1.775
X11.1065Y-2.3891
X11.1122Y-1.6391
X11.1516Y-1.6966
X11.175Y-1.375
X11.175Y-1.975
X11.175Y-2.275
X11.175Y-2.675
X11.175Y-2.975
X11.175Y-3.275
X11.25Y-1.7739
X11.275Y-0.675
X11.275Y-1.075
X11.275Y-1.575
X11.275Y-2.475
X11.275Y-3.475
X11.2997Y-0.8891
X11.2997Y-3.1391
X11.3391Y-0.9466
X11.3391Y-3.1966
X11.3484Y-1.6966
X11.375Y-1.275
X11.375Y-1.775
X11.375Y-2.875
X11.3878Y-1.6391
X11.4375Y-1.0239
X11.4375Y-3.2739
X11.475Y-0.775
X11.475Y-1.475
X11.475Y-1.975
X11.475Y-2.275
X11.475Y-2.575
X11.475Y-3.375
X11.5359Y-0.9466
X11.5359Y-3.1966
X11.575Y-2.775
X11.5753Y-0.8891
X11.5753Y-3.1391
X11.675Y-0.675
X11.675Y-1.075
X11.675Y-1.375
X11.675Y-1.675
X11.675Y-2.375
X11.675Y-2.975
X11.675Y-3.275
T3
X1.0087Y-2.0123
X1.1087Y-2.0123
X1.2087Y-2.0123
X1.3087Y-2.0123
X1.4441Y-1.7812
X1.5441Y-1.7812
X1.6441Y-1.7812
X1.7441Y-1.7812
X2.5496Y-3.5375
X2.5496Y-3.6375
X2.6496Y-3.5375
X2.6496Y-3.6375
X2.7496Y-3.5375
X2.7496Y-3.6375
X2.8496Y-3.5375
X2.8496Y-3.6375
X4.7996Y-3.5375
X4.7996Y-3.6375
X4.8996Y-3.5375
X4.8996Y-3.6375
X4.9996Y-3.5375
X4.9996Y-3.6375
X5.0996Y-3.5375
X5.0996Y-3.6375
X7.7996Y-3.5375
X7.7996Y-3.6375
X7.8996Y-3.5375
X7.8996Y-3.6375
X7.9996Y-3.5375
X7.9996Y-3.6375
X8.0996Y-3.5375
X8.0996Y-3.6375
X9.0073Y-2.048
X9.1073Y-2.048
X9.2073Y-2.048
X9.3073Y-2.048
X9.4577Y-2.048
X9.5577Y-2.048
X9.6577Y-2.048
X9.7577Y-2.048
T4
X0.75Y-1.3125
X2.25Y-3.1875
X2.8125Y-0.9375
X3.375Y-2.4375
X3.4688Y-3.9375
X3.5625Y-0.9375
X5.0625Y-0.9375
X6.375Y-2.4375
X6.5625Y-0.9375
X7.3125Y-0.9375
X8.9062Y-3.9375
X9.375Y-2.4375
X9.5625Y-0.9375
X11.0625Y-1.3125
X11.0625Y-3.1875
M30
