%TF.GenerationSoftware,KiCad,Pcbnew,8.0.9*%
%TF.CreationDate,2025-07-07T03:51:00+07:00*%
%TF.ProjectId,Agar HE,41676172-2048-4452-9e6b-696361645f70,rev?*%
%TF.SameCoordinates,Original*%
%TF.FileFunction,Legend,Bot*%
%TF.FilePolarity,Positive*%
%FSLAX46Y46*%
G04 Gerber Fmt 4.6, Leading zero omitted, Abs format (unit mm)*
G04 Created by KiCad (PCBNEW 8.0.9) date 2025-07-07 03:51:00*
%MOMM*%
%LPD*%
G01*
G04 APERTURE LIST*
G04 Aperture macros list*
%AMRoundRect*
0 Rectangle with rounded corners*
0 $1 Rounding radius*
0 $2 $3 $4 $5 $6 $7 $8 $9 X,Y pos of 4 corners*
0 Add a 4 corners polygon primitive as box body*
4,1,4,$2,$3,$4,$5,$6,$7,$8,$9,$2,$3,0*
0 Add four circle primitives for the rounded corners*
1,1,$1+$1,$2,$3*
1,1,$1+$1,$4,$5*
1,1,$1+$1,$6,$7*
1,1,$1+$1,$8,$9*
0 Add four rect primitives between the rounded corners*
20,1,$1+$1,$2,$3,$4,$5,0*
20,1,$1+$1,$4,$5,$6,$7,0*
20,1,$1+$1,$6,$7,$8,$9,0*
20,1,$1+$1,$8,$9,$2,$3,0*%
%AMFreePoly0*
4,1,14,0.385355,0.085355,0.400000,0.050000,0.400000,0.020711,0.385355,-0.014644,0.314644,-0.085355,0.279289,-0.100000,-0.350000,-0.100000,-0.385355,-0.085355,-0.400000,-0.050000,-0.400000,0.050000,-0.385355,0.085355,-0.350000,0.100000,0.350000,0.100000,0.385355,0.085355,0.385355,0.085355,$1*%
%AMFreePoly1*
4,1,14,0.314644,0.085355,0.385355,0.014644,0.400000,-0.020711,0.400000,-0.050000,0.385355,-0.085355,0.350000,-0.100000,-0.350000,-0.100000,-0.385355,-0.085355,-0.400000,-0.050000,-0.400000,0.050000,-0.385355,0.085355,-0.350000,0.100000,0.279289,0.100000,0.314644,0.085355,0.314644,0.085355,$1*%
%AMFreePoly2*
4,1,14,0.085355,0.385355,0.100000,0.350000,0.100000,-0.350000,0.085355,-0.385355,0.050000,-0.400000,0.020711,-0.400000,-0.014644,-0.385355,-0.085355,-0.314644,-0.100000,-0.279289,-0.100000,0.350000,-0.085355,0.385355,-0.050000,0.400000,0.050000,0.400000,0.085355,0.385355,0.085355,0.385355,$1*%
%AMFreePoly3*
4,1,14,0.085355,0.385355,0.100000,0.350000,0.100000,-0.279289,0.085355,-0.314644,0.014644,-0.385355,-0.020711,-0.400000,-0.050000,-0.400000,-0.085355,-0.385355,-0.100000,-0.350000,-0.100000,0.350000,-0.085355,0.385355,-0.050000,0.400000,0.050000,0.400000,0.085355,0.385355,0.085355,0.385355,$1*%
%AMFreePoly4*
4,1,14,0.385355,0.085355,0.400000,0.050000,0.400000,-0.050000,0.385355,-0.085355,0.350000,-0.100000,-0.350000,-0.100000,-0.385355,-0.085355,-0.400000,-0.050000,-0.400000,-0.020711,-0.385355,0.014644,-0.314644,0.085355,-0.279289,0.100000,0.350000,0.100000,0.385355,0.085355,0.385355,0.085355,$1*%
%AMFreePoly5*
4,1,14,0.385355,0.085355,0.400000,0.050000,0.400000,-0.050000,0.385355,-0.085355,0.350000,-0.100000,-0.279289,-0.100000,-0.314644,-0.085355,-0.385355,-0.014644,-0.400000,0.020711,-0.400000,0.050000,-0.385355,0.085355,-0.350000,0.100000,0.350000,0.100000,0.385355,0.085355,0.385355,0.085355,$1*%
%AMFreePoly6*
4,1,14,0.014644,0.385355,0.085355,0.314644,0.100000,0.279289,0.100000,-0.350000,0.085355,-0.385355,0.050000,-0.400000,-0.050000,-0.400000,-0.085355,-0.385355,-0.100000,-0.350000,-0.100000,0.350000,-0.085355,0.385355,-0.050000,0.400000,-0.020711,0.400000,0.014644,0.385355,0.014644,0.385355,$1*%
%AMFreePoly7*
4,1,14,0.085355,0.385355,0.100000,0.350000,0.100000,-0.350000,0.085355,-0.385355,0.050000,-0.400000,-0.050000,-0.400000,-0.085355,-0.385355,-0.100000,-0.350000,-0.100000,0.279289,-0.085355,0.314644,-0.014644,0.385355,0.020711,0.400000,0.050000,0.400000,0.085355,0.385355,0.085355,0.385355,$1*%
G04 Aperture macros list end*
%ADD10C,0.250000*%
%ADD11C,0.153000*%
%ADD12C,0.120000*%
%ADD13C,0.500000*%
%ADD14C,0.150000*%
%ADD15C,3.800000*%
%ADD16C,1.750000*%
%ADD17RoundRect,0.150000X-0.150000X0.350000X-0.150000X-0.350000X0.150000X-0.350000X0.150000X0.350000X0*%
%ADD18R,0.620000X0.560000*%
%ADD19R,0.560000X0.620000*%
%ADD20R,0.800000X0.750000*%
%ADD21C,3.048000*%
%ADD22C,3.987800*%
%ADD23R,1.700000X1.700000*%
%ADD24O,1.700000X1.700000*%
%ADD25R,0.400000X1.900000*%
%ADD26RoundRect,0.050000X0.375000X0.050000X-0.375000X0.050000X-0.375000X-0.050000X0.375000X-0.050000X0*%
%ADD27RoundRect,0.050000X0.050000X0.375000X-0.050000X0.375000X-0.050000X-0.375000X0.050000X-0.375000X0*%
%ADD28R,4.200000X4.200000*%
%ADD29RoundRect,0.050000X0.275000X0.050000X-0.275000X0.050000X-0.275000X-0.050000X0.275000X-0.050000X0*%
%ADD30RoundRect,0.050000X0.450000X0.050000X-0.450000X0.050000X-0.450000X-0.050000X0.450000X-0.050000X0*%
%ADD31RoundRect,0.062500X0.062500X0.212500X-0.062500X0.212500X-0.062500X-0.212500X0.062500X-0.212500X0*%
%ADD32RoundRect,0.050000X-0.375000X-0.050000X0.375000X-0.050000X0.375000X0.050000X-0.375000X0.050000X0*%
%ADD33RoundRect,0.050000X-0.050000X-0.375000X0.050000X-0.375000X0.050000X0.375000X-0.050000X0.375000X0*%
%ADD34R,1.800000X1.200000*%
%ADD35R,1.550000X0.600000*%
%ADD36R,1.500000X1.000000*%
%ADD37RoundRect,0.062500X-0.062500X0.062500X-0.062500X-0.062500X0.062500X-0.062500X0.062500X0.062500X0*%
%ADD38RoundRect,0.175000X-0.475000X0.175000X-0.475000X-0.175000X0.475000X-0.175000X0.475000X0.175000X0*%
%ADD39FreePoly0,180.000000*%
%ADD40RoundRect,0.050000X0.350000X0.050000X-0.350000X0.050000X-0.350000X-0.050000X0.350000X-0.050000X0*%
%ADD41FreePoly1,180.000000*%
%ADD42FreePoly2,180.000000*%
%ADD43RoundRect,0.050000X0.050000X0.350000X-0.050000X0.350000X-0.050000X-0.350000X0.050000X-0.350000X0*%
%ADD44FreePoly3,180.000000*%
%ADD45FreePoly4,180.000000*%
%ADD46FreePoly5,180.000000*%
%ADD47FreePoly6,180.000000*%
%ADD48FreePoly7,180.000000*%
%ADD49R,2.650000X2.650000*%
G04 APERTURE END LIST*
D10*
X34126377Y-53262119D02*
X33507330Y-53262119D01*
X33507330Y-53262119D02*
X33840663Y-53643071D01*
X33840663Y-53643071D02*
X33697806Y-53643071D01*
X33697806Y-53643071D02*
X33602568Y-53690690D01*
X33602568Y-53690690D02*
X33554949Y-53738309D01*
X33554949Y-53738309D02*
X33507330Y-53833547D01*
X33507330Y-53833547D02*
X33507330Y-54071642D01*
X33507330Y-54071642D02*
X33554949Y-54166880D01*
X33554949Y-54166880D02*
X33602568Y-54214500D01*
X33602568Y-54214500D02*
X33697806Y-54262119D01*
X33697806Y-54262119D02*
X33983520Y-54262119D01*
X33983520Y-54262119D02*
X34078758Y-54214500D01*
X34078758Y-54214500D02*
X34126377Y-54166880D01*
X33078758Y-54166880D02*
X33031139Y-54214500D01*
X33031139Y-54214500D02*
X33078758Y-54262119D01*
X33078758Y-54262119D02*
X33126377Y-54214500D01*
X33126377Y-54214500D02*
X33078758Y-54166880D01*
X33078758Y-54166880D02*
X33078758Y-54262119D01*
X32697806Y-53262119D02*
X32078759Y-53262119D01*
X32078759Y-53262119D02*
X32412092Y-53643071D01*
X32412092Y-53643071D02*
X32269235Y-53643071D01*
X32269235Y-53643071D02*
X32173997Y-53690690D01*
X32173997Y-53690690D02*
X32126378Y-53738309D01*
X32126378Y-53738309D02*
X32078759Y-53833547D01*
X32078759Y-53833547D02*
X32078759Y-54071642D01*
X32078759Y-54071642D02*
X32126378Y-54166880D01*
X32126378Y-54166880D02*
X32173997Y-54214500D01*
X32173997Y-54214500D02*
X32269235Y-54262119D01*
X32269235Y-54262119D02*
X32554949Y-54262119D01*
X32554949Y-54262119D02*
X32650187Y-54214500D01*
X32650187Y-54214500D02*
X32697806Y-54166880D01*
X31793044Y-53262119D02*
X31459711Y-54262119D01*
X31459711Y-54262119D02*
X31126378Y-53262119D01*
X29459711Y-54166880D02*
X29507330Y-54214500D01*
X29507330Y-54214500D02*
X29650187Y-54262119D01*
X29650187Y-54262119D02*
X29745425Y-54262119D01*
X29745425Y-54262119D02*
X29888282Y-54214500D01*
X29888282Y-54214500D02*
X29983520Y-54119261D01*
X29983520Y-54119261D02*
X30031139Y-54024023D01*
X30031139Y-54024023D02*
X30078758Y-53833547D01*
X30078758Y-53833547D02*
X30078758Y-53690690D01*
X30078758Y-53690690D02*
X30031139Y-53500214D01*
X30031139Y-53500214D02*
X29983520Y-53404976D01*
X29983520Y-53404976D02*
X29888282Y-53309738D01*
X29888282Y-53309738D02*
X29745425Y-53262119D01*
X29745425Y-53262119D02*
X29650187Y-53262119D01*
X29650187Y-53262119D02*
X29507330Y-53309738D01*
X29507330Y-53309738D02*
X29459711Y-53357357D01*
X28554949Y-54262119D02*
X29031139Y-54262119D01*
X29031139Y-54262119D02*
X29031139Y-53262119D01*
X28221615Y-54262119D02*
X28221615Y-53262119D01*
X27650187Y-54262119D02*
X28078758Y-53690690D01*
X27650187Y-53262119D02*
X28221615Y-53833547D01*
X26459710Y-54262119D02*
X26459710Y-53262119D01*
X26459710Y-53262119D02*
X26221615Y-53262119D01*
X26221615Y-53262119D02*
X26078758Y-53309738D01*
X26078758Y-53309738D02*
X25983520Y-53404976D01*
X25983520Y-53404976D02*
X25935901Y-53500214D01*
X25935901Y-53500214D02*
X25888282Y-53690690D01*
X25888282Y-53690690D02*
X25888282Y-53833547D01*
X25888282Y-53833547D02*
X25935901Y-54024023D01*
X25935901Y-54024023D02*
X25983520Y-54119261D01*
X25983520Y-54119261D02*
X26078758Y-54214500D01*
X26078758Y-54214500D02*
X26221615Y-54262119D01*
X26221615Y-54262119D02*
X26459710Y-54262119D01*
X25459710Y-54262119D02*
X25459710Y-53262119D01*
X24793044Y-53262119D02*
X24602568Y-53262119D01*
X24602568Y-53262119D02*
X24507330Y-53309738D01*
X24507330Y-53309738D02*
X24412092Y-53404976D01*
X24412092Y-53404976D02*
X24364473Y-53595452D01*
X24364473Y-53595452D02*
X24364473Y-53928785D01*
X24364473Y-53928785D02*
X24412092Y-54119261D01*
X24412092Y-54119261D02*
X24507330Y-54214500D01*
X24507330Y-54214500D02*
X24602568Y-54262119D01*
X24602568Y-54262119D02*
X24793044Y-54262119D01*
X24793044Y-54262119D02*
X24888282Y-54214500D01*
X24888282Y-54214500D02*
X24983520Y-54119261D01*
X24983520Y-54119261D02*
X25031139Y-53928785D01*
X25031139Y-53928785D02*
X25031139Y-53595452D01*
X25031139Y-53595452D02*
X24983520Y-53404976D01*
X24983520Y-53404976D02*
X24888282Y-53309738D01*
X24888282Y-53309738D02*
X24793044Y-53262119D01*
X22650187Y-53309738D02*
X22745425Y-53262119D01*
X22745425Y-53262119D02*
X22888282Y-53262119D01*
X22888282Y-53262119D02*
X23031139Y-53309738D01*
X23031139Y-53309738D02*
X23126377Y-53404976D01*
X23126377Y-53404976D02*
X23173996Y-53500214D01*
X23173996Y-53500214D02*
X23221615Y-53690690D01*
X23221615Y-53690690D02*
X23221615Y-53833547D01*
X23221615Y-53833547D02*
X23173996Y-54024023D01*
X23173996Y-54024023D02*
X23126377Y-54119261D01*
X23126377Y-54119261D02*
X23031139Y-54214500D01*
X23031139Y-54214500D02*
X22888282Y-54262119D01*
X22888282Y-54262119D02*
X22793044Y-54262119D01*
X22793044Y-54262119D02*
X22650187Y-54214500D01*
X22650187Y-54214500D02*
X22602568Y-54166880D01*
X22602568Y-54166880D02*
X22602568Y-53833547D01*
X22602568Y-53833547D02*
X22793044Y-53833547D01*
X22173996Y-54262119D02*
X22173996Y-53262119D01*
X22173996Y-53262119D02*
X21602568Y-54262119D01*
X21602568Y-54262119D02*
X21602568Y-53262119D01*
X21126377Y-54262119D02*
X21126377Y-53262119D01*
X21126377Y-53262119D02*
X20888282Y-53262119D01*
X20888282Y-53262119D02*
X20745425Y-53309738D01*
X20745425Y-53309738D02*
X20650187Y-53404976D01*
X20650187Y-53404976D02*
X20602568Y-53500214D01*
X20602568Y-53500214D02*
X20554949Y-53690690D01*
X20554949Y-53690690D02*
X20554949Y-53833547D01*
X20554949Y-53833547D02*
X20602568Y-54024023D01*
X20602568Y-54024023D02*
X20650187Y-54119261D01*
X20650187Y-54119261D02*
X20745425Y-54214500D01*
X20745425Y-54214500D02*
X20888282Y-54262119D01*
X20888282Y-54262119D02*
X21126377Y-54262119D01*
X46859711Y-39062119D02*
X46240664Y-39062119D01*
X46240664Y-39062119D02*
X46573997Y-39443071D01*
X46573997Y-39443071D02*
X46431140Y-39443071D01*
X46431140Y-39443071D02*
X46335902Y-39490690D01*
X46335902Y-39490690D02*
X46288283Y-39538309D01*
X46288283Y-39538309D02*
X46240664Y-39633547D01*
X46240664Y-39633547D02*
X46240664Y-39871642D01*
X46240664Y-39871642D02*
X46288283Y-39966880D01*
X46288283Y-39966880D02*
X46335902Y-40014500D01*
X46335902Y-40014500D02*
X46431140Y-40062119D01*
X46431140Y-40062119D02*
X46716854Y-40062119D01*
X46716854Y-40062119D02*
X46812092Y-40014500D01*
X46812092Y-40014500D02*
X46859711Y-39966880D01*
X45812092Y-39966880D02*
X45764473Y-40014500D01*
X45764473Y-40014500D02*
X45812092Y-40062119D01*
X45812092Y-40062119D02*
X45859711Y-40014500D01*
X45859711Y-40014500D02*
X45812092Y-39966880D01*
X45812092Y-39966880D02*
X45812092Y-40062119D01*
X45431140Y-39062119D02*
X44812093Y-39062119D01*
X44812093Y-39062119D02*
X45145426Y-39443071D01*
X45145426Y-39443071D02*
X45002569Y-39443071D01*
X45002569Y-39443071D02*
X44907331Y-39490690D01*
X44907331Y-39490690D02*
X44859712Y-39538309D01*
X44859712Y-39538309D02*
X44812093Y-39633547D01*
X44812093Y-39633547D02*
X44812093Y-39871642D01*
X44812093Y-39871642D02*
X44859712Y-39966880D01*
X44859712Y-39966880D02*
X44907331Y-40014500D01*
X44907331Y-40014500D02*
X45002569Y-40062119D01*
X45002569Y-40062119D02*
X45288283Y-40062119D01*
X45288283Y-40062119D02*
X45383521Y-40014500D01*
X45383521Y-40014500D02*
X45431140Y-39966880D01*
X44526378Y-39062119D02*
X44193045Y-40062119D01*
X44193045Y-40062119D02*
X43859712Y-39062119D01*
X42193045Y-40062119D02*
X42526378Y-39585928D01*
X42764473Y-40062119D02*
X42764473Y-39062119D01*
X42764473Y-39062119D02*
X42383521Y-39062119D01*
X42383521Y-39062119D02*
X42288283Y-39109738D01*
X42288283Y-39109738D02*
X42240664Y-39157357D01*
X42240664Y-39157357D02*
X42193045Y-39252595D01*
X42193045Y-39252595D02*
X42193045Y-39395452D01*
X42193045Y-39395452D02*
X42240664Y-39490690D01*
X42240664Y-39490690D02*
X42288283Y-39538309D01*
X42288283Y-39538309D02*
X42383521Y-39585928D01*
X42383521Y-39585928D02*
X42764473Y-39585928D01*
X41859711Y-39062119D02*
X41193045Y-40062119D01*
X41193045Y-39062119D02*
X41859711Y-40062119D01*
X40193044Y-39062119D02*
X39621616Y-39062119D01*
X39907330Y-40062119D02*
X39907330Y-39062119D01*
X39383520Y-39062119D02*
X38716854Y-40062119D01*
X38716854Y-39062119D02*
X39383520Y-40062119D01*
X37050187Y-39109738D02*
X37145425Y-39062119D01*
X37145425Y-39062119D02*
X37288282Y-39062119D01*
X37288282Y-39062119D02*
X37431139Y-39109738D01*
X37431139Y-39109738D02*
X37526377Y-39204976D01*
X37526377Y-39204976D02*
X37573996Y-39300214D01*
X37573996Y-39300214D02*
X37621615Y-39490690D01*
X37621615Y-39490690D02*
X37621615Y-39633547D01*
X37621615Y-39633547D02*
X37573996Y-39824023D01*
X37573996Y-39824023D02*
X37526377Y-39919261D01*
X37526377Y-39919261D02*
X37431139Y-40014500D01*
X37431139Y-40014500D02*
X37288282Y-40062119D01*
X37288282Y-40062119D02*
X37193044Y-40062119D01*
X37193044Y-40062119D02*
X37050187Y-40014500D01*
X37050187Y-40014500D02*
X37002568Y-39966880D01*
X37002568Y-39966880D02*
X37002568Y-39633547D01*
X37002568Y-39633547D02*
X37193044Y-39633547D01*
X36573996Y-40062119D02*
X36573996Y-39062119D01*
X36573996Y-39062119D02*
X36002568Y-40062119D01*
X36002568Y-40062119D02*
X36002568Y-39062119D01*
X35526377Y-40062119D02*
X35526377Y-39062119D01*
X35526377Y-39062119D02*
X35288282Y-39062119D01*
X35288282Y-39062119D02*
X35145425Y-39109738D01*
X35145425Y-39109738D02*
X35050187Y-39204976D01*
X35050187Y-39204976D02*
X35002568Y-39300214D01*
X35002568Y-39300214D02*
X34954949Y-39490690D01*
X34954949Y-39490690D02*
X34954949Y-39633547D01*
X34954949Y-39633547D02*
X35002568Y-39824023D01*
X35002568Y-39824023D02*
X35050187Y-39919261D01*
X35050187Y-39919261D02*
X35145425Y-40014500D01*
X35145425Y-40014500D02*
X35288282Y-40062119D01*
X35288282Y-40062119D02*
X35526377Y-40062119D01*
D11*
%TO.C,U42*%
X131790000Y-61932501D02*
X131790000Y-60257500D01*
X131790000Y-61932501D02*
X131790000Y-62582500D01*
X134910000Y-61932501D02*
X134910000Y-61282500D01*
X134910000Y-61932501D02*
X134910000Y-62582500D01*
D12*
%TO.C,C140*%
X206625000Y-61362500D02*
X206625000Y-60962500D01*
X207475000Y-61362500D02*
X207475000Y-60962500D01*
%TO.C,C160*%
X49462500Y-99462500D02*
X49462500Y-99062500D01*
X50312500Y-99462500D02*
X50312500Y-99062500D01*
%TO.C,C141*%
X225675000Y-61362500D02*
X225675000Y-60962500D01*
X226525000Y-61362500D02*
X226525000Y-60962500D01*
D11*
%TO.C,U58*%
X141315000Y-80982501D02*
X141315000Y-79307500D01*
X141315000Y-80982501D02*
X141315000Y-81632500D01*
X144435000Y-80982501D02*
X144435000Y-80332500D01*
X144435000Y-80982501D02*
X144435000Y-81632500D01*
D12*
%TO.C,C168*%
X37728750Y-50392500D02*
X37328750Y-50392500D01*
X37728750Y-51242500D02*
X37328750Y-51242500D01*
%TO.C,C162*%
X116137500Y-99462500D02*
X116137500Y-99062500D01*
X116987500Y-99462500D02*
X116987500Y-99062500D01*
%TO.C,C29*%
X264012500Y-42312500D02*
X264012500Y-41912500D01*
X264862500Y-42312500D02*
X264862500Y-41912500D01*
%TO.C,C120*%
X87562500Y-42312500D02*
X87562500Y-41912500D01*
X88412500Y-42312500D02*
X88412500Y-41912500D01*
%TO.C,C128*%
X239962500Y-42312500D02*
X239962500Y-41912500D01*
X240812500Y-42312500D02*
X240812500Y-41912500D01*
%TO.C,C147*%
X63750000Y-80412500D02*
X63750000Y-80012500D01*
X64600000Y-80412500D02*
X64600000Y-80012500D01*
%TO.C,C108*%
X154237500Y-23262500D02*
X154237500Y-22862500D01*
X155087500Y-23262500D02*
X155087500Y-22862500D01*
D11*
%TO.C,U11*%
X117502500Y-23832501D02*
X117502500Y-22157500D01*
X117502500Y-23832501D02*
X117502500Y-24482500D01*
X120622500Y-23832501D02*
X120622500Y-23182500D01*
X120622500Y-23832501D02*
X120622500Y-24482500D01*
D12*
%TO.C,C67*%
X61795000Y-76393750D02*
X62195000Y-76393750D01*
X61795000Y-77243750D02*
X62195000Y-77243750D01*
%TO.C,C170*%
X76821875Y-38871875D02*
X77521875Y-38871875D01*
X77521875Y-40071875D02*
X76821875Y-40071875D01*
%TO.C,C101*%
X20887500Y-23262500D02*
X20887500Y-22862500D01*
X21737500Y-23262500D02*
X21737500Y-22862500D01*
%TO.C,C25*%
X187812500Y-42312500D02*
X187812500Y-41912500D01*
X188662500Y-42312500D02*
X188662500Y-41912500D01*
%TO.C,C43*%
X249725000Y-61362500D02*
X249725000Y-60962500D01*
X250575000Y-61362500D02*
X250575000Y-60962500D01*
%TO.C,C165*%
X235200000Y-99462500D02*
X235200000Y-99062500D01*
X236050000Y-99462500D02*
X236050000Y-99062500D01*
%TO.C,C104*%
X78037500Y-23262500D02*
X78037500Y-22862500D01*
X78887500Y-23262500D02*
X78887500Y-22862500D01*
%TO.C,C151*%
X139950000Y-80412500D02*
X139950000Y-80012500D01*
X140800000Y-80412500D02*
X140800000Y-80012500D01*
D11*
%TO.C,U80*%
X193702500Y-98357500D02*
X193702500Y-100032500D01*
X193702500Y-100682500D02*
X193702500Y-100032500D01*
X196822500Y-99382500D02*
X196822500Y-100032500D01*
X196822500Y-100682500D02*
X196822500Y-100032500D01*
D13*
X175212500Y-89757500D02*
G75*
G02*
X177211449Y-89756975I1000000J-2000000D01*
G01*
X213312500Y-89757502D02*
G75*
G02*
X215311449Y-89756977I1000000J-1999998D01*
G01*
X177962500Y-106997500D02*
G75*
G02*
X174462500Y-106997500I-1750000J0D01*
G01*
X174462500Y-106997500D02*
G75*
G02*
X177962500Y-106997500I1750000J0D01*
G01*
X216062500Y-106997500D02*
G75*
G02*
X212562500Y-106997500I-1750000J0D01*
G01*
X212562500Y-106997500D02*
G75*
G02*
X216062500Y-106997500I1750000J0D01*
G01*
D12*
%TO.C,J2*%
X24290000Y-49782500D02*
X25620000Y-49782500D01*
X24290000Y-51112500D02*
X24290000Y-49782500D01*
X26890000Y-52442500D02*
X26890000Y-49782500D01*
X34570000Y-49782500D02*
X26890000Y-49782500D01*
X34570000Y-52442500D02*
X26890000Y-52442500D01*
X34570000Y-52442500D02*
X34570000Y-49782500D01*
D11*
%TO.C,U32*%
X222277500Y-42882501D02*
X222277500Y-41207500D01*
X222277500Y-42882501D02*
X222277500Y-43532500D01*
X225397500Y-42882501D02*
X225397500Y-42232500D01*
X225397500Y-42882501D02*
X225397500Y-43532500D01*
D12*
%TO.C,Y1*%
X42608750Y-50817500D02*
X42608750Y-51217500D01*
X42608750Y-51217500D02*
X42608750Y-53217500D01*
X42808750Y-50817500D02*
X42808750Y-51217500D01*
X42808750Y-50817500D02*
X43808750Y-50817500D01*
X42808750Y-53217500D02*
X42808750Y-51217500D01*
X43808750Y-53217500D02*
X42808750Y-53217500D01*
X45608750Y-50817500D02*
X46408750Y-50817500D01*
X46408750Y-50817500D02*
X46408750Y-51217500D01*
X46408750Y-51217500D02*
X46408750Y-53217500D01*
X46408750Y-53217500D02*
X45608750Y-53217500D01*
%TO.C,C3*%
X63987500Y-23262500D02*
X63987500Y-22862500D01*
X64837500Y-23262500D02*
X64837500Y-22862500D01*
%TO.C,C79*%
X195145000Y-76393750D02*
X195545000Y-76393750D01*
X195145000Y-77243750D02*
X195545000Y-77243750D01*
D11*
%TO.C,U41*%
X112740000Y-61932501D02*
X112740000Y-60257500D01*
X112740000Y-61932501D02*
X112740000Y-62582500D01*
X115860000Y-61932501D02*
X115860000Y-61282500D01*
X115860000Y-61932501D02*
X115860000Y-62582500D01*
D12*
%TO.C,C36*%
X116375000Y-61362500D02*
X116375000Y-60962500D01*
X117225000Y-61362500D02*
X117225000Y-60962500D01*
%TO.C,J9*%
X120580000Y-91062500D02*
X120580000Y-93722500D01*
X120580000Y-91062500D02*
X128260000Y-91062500D01*
X120580000Y-93722500D02*
X128260000Y-93722500D01*
X128260000Y-91062500D02*
X128260000Y-93722500D01*
X130860000Y-92392500D02*
X130860000Y-93722500D01*
X130860000Y-93722500D02*
X129530000Y-93722500D01*
%TO.C,C49*%
X87800000Y-80412500D02*
X87800000Y-80012500D01*
X88650000Y-80412500D02*
X88650000Y-80012500D01*
%TO.C,R2*%
X80971875Y-38246875D02*
X80571875Y-38246875D01*
X80971875Y-39096875D02*
X80571875Y-39096875D01*
%TO.C,C137*%
X149475000Y-61362500D02*
X149475000Y-60962500D01*
X150325000Y-61362500D02*
X150325000Y-60962500D01*
%TO.C,C77*%
X203800000Y-76698750D02*
X203800000Y-76298750D01*
X204650000Y-76698750D02*
X204650000Y-76298750D01*
D11*
%TO.C,U30*%
X184177500Y-42882501D02*
X184177500Y-41207500D01*
X184177500Y-42882501D02*
X184177500Y-43532500D01*
X187297500Y-42882501D02*
X187297500Y-42232500D01*
X187297500Y-42882501D02*
X187297500Y-43532500D01*
D12*
%TO.C,C123*%
X144712500Y-42312500D02*
X144712500Y-41912500D01*
X145562500Y-42312500D02*
X145562500Y-41912500D01*
D11*
%TO.C,U38*%
X55590000Y-61932501D02*
X55590000Y-60257500D01*
X55590000Y-61932501D02*
X55590000Y-62582500D01*
X58710000Y-61932501D02*
X58710000Y-61282500D01*
X58710000Y-61932501D02*
X58710000Y-62582500D01*
D12*
%TO.C,C153*%
X178050000Y-80412500D02*
X178050000Y-80012500D01*
X178900000Y-80412500D02*
X178900000Y-80012500D01*
D11*
%TO.C,U79*%
X117502500Y-98357500D02*
X117502500Y-100032500D01*
X117502500Y-100682500D02*
X117502500Y-100032500D01*
X120622500Y-99382500D02*
X120622500Y-100032500D01*
X120622500Y-100682500D02*
X120622500Y-100032500D01*
D13*
X99012500Y-89757500D02*
G75*
G02*
X101011449Y-89756975I1000000J-2000000D01*
G01*
X137112500Y-89757502D02*
G75*
G02*
X139111449Y-89756977I1000000J-1999998D01*
G01*
X101762500Y-106997500D02*
G75*
G02*
X98262500Y-106997500I-1750000J0D01*
G01*
X98262500Y-106997500D02*
G75*
G02*
X101762500Y-106997500I1750000J0D01*
G01*
X139862500Y-106997500D02*
G75*
G02*
X136362500Y-106997500I-1750000J0D01*
G01*
X136362500Y-106997500D02*
G75*
G02*
X139862500Y-106997500I1750000J0D01*
G01*
D12*
%TO.C,C145*%
X32793750Y-80412500D02*
X32793750Y-80012500D01*
X33643750Y-80412500D02*
X33643750Y-80012500D01*
%TO.C,C13*%
X254487500Y-23262500D02*
X254487500Y-22862500D01*
X255337500Y-23262500D02*
X255337500Y-22862500D01*
%TO.C,C58*%
X266393750Y-80412500D02*
X266393750Y-80012500D01*
X267243750Y-80412500D02*
X267243750Y-80012500D01*
%TO.C,C124*%
X163762500Y-42312500D02*
X163762500Y-41912500D01*
X164612500Y-42312500D02*
X164612500Y-41912500D01*
D11*
%TO.C,U8*%
X60352500Y-23832501D02*
X60352500Y-22157500D01*
X60352500Y-23832501D02*
X60352500Y-24482500D01*
X63472500Y-23832501D02*
X63472500Y-23182500D01*
X63472500Y-23832501D02*
X63472500Y-24482500D01*
D12*
%TO.C,C142*%
X244725000Y-61362500D02*
X244725000Y-60962500D01*
X245575000Y-61362500D02*
X245575000Y-60962500D01*
D11*
%TO.C,U65*%
X288952500Y-80982501D02*
X288952500Y-79307500D01*
X288952500Y-80982501D02*
X288952500Y-81632500D01*
X292072500Y-80982501D02*
X292072500Y-80332500D01*
X292072500Y-80982501D02*
X292072500Y-81632500D01*
%TO.C,U57*%
X122265000Y-80982501D02*
X122265000Y-79307500D01*
X122265000Y-80982501D02*
X122265000Y-81632500D01*
X125385000Y-80982501D02*
X125385000Y-80332500D01*
X125385000Y-80982501D02*
X125385000Y-81632500D01*
%TO.C,U84*%
X155602500Y-100032501D02*
X155602500Y-98357500D01*
X155602500Y-100032501D02*
X155602500Y-100682500D01*
X158722500Y-100032501D02*
X158722500Y-99382500D01*
X158722500Y-100032501D02*
X158722500Y-100682500D01*
D12*
%TO.C,C91*%
X121137500Y-99462500D02*
X121137500Y-99062500D01*
X121987500Y-99462500D02*
X121987500Y-99062500D01*
D11*
%TO.C,U60*%
X179415000Y-80982501D02*
X179415000Y-79307500D01*
X179415000Y-80982501D02*
X179415000Y-81632500D01*
X182535000Y-80982501D02*
X182535000Y-80332500D01*
X182535000Y-80982501D02*
X182535000Y-81632500D01*
D12*
%TO.C,C115*%
X278062500Y-23262500D02*
X278062500Y-22862500D01*
X278912500Y-23262500D02*
X278912500Y-22862500D01*
%TO.C,C15*%
X292587500Y-23262500D02*
X292587500Y-22862500D01*
X293437500Y-23262500D02*
X293437500Y-22862500D01*
%TO.C,C82*%
X194800000Y-73678750D02*
X194800000Y-73278750D01*
X195650000Y-73678750D02*
X195650000Y-73278750D01*
%TO.C,C95*%
X264012500Y-99462500D02*
X264012500Y-99062500D01*
X264862500Y-99462500D02*
X264862500Y-99062500D01*
%TO.C,C59*%
X292587500Y-80412500D02*
X292587500Y-80012500D01*
X293437500Y-80412500D02*
X293437500Y-80012500D01*
%TO.C,C76*%
X118600000Y-73678750D02*
X118600000Y-73278750D01*
X119450000Y-73678750D02*
X119450000Y-73278750D01*
%TO.C,C83*%
X253670000Y-49888750D02*
X253670000Y-50288750D01*
X254520000Y-49888750D02*
X254520000Y-50288750D01*
%TO.C,C69*%
X60450000Y-73678750D02*
X60450000Y-73278750D01*
X61300000Y-73678750D02*
X61300000Y-73278750D01*
%TO.C,C125*%
X182812500Y-42312500D02*
X182812500Y-41912500D01*
X183662500Y-42312500D02*
X183662500Y-41912500D01*
%TO.C,C116*%
X287587500Y-23262500D02*
X287587500Y-22862500D01*
X288437500Y-23262500D02*
X288437500Y-22862500D01*
%TO.C,C81*%
X193800000Y-73678750D02*
X193800000Y-73278750D01*
X194650000Y-73678750D02*
X194650000Y-73278750D01*
%TO.C,C17*%
X30650000Y-42312500D02*
X30650000Y-41912500D01*
X31500000Y-42312500D02*
X31500000Y-41912500D01*
D11*
%TO.C,U62*%
X217515000Y-80982501D02*
X217515000Y-79307500D01*
X217515000Y-80982501D02*
X217515000Y-81632500D01*
X220635000Y-80982501D02*
X220635000Y-80332500D01*
X220635000Y-80982501D02*
X220635000Y-81632500D01*
D12*
%TO.C,C84*%
X262055000Y-52343750D02*
X261655000Y-52343750D01*
X262055000Y-53193750D02*
X261655000Y-53193750D01*
%TO.C,C35*%
X97325000Y-61362500D02*
X97325000Y-60962500D01*
X98175000Y-61362500D02*
X98175000Y-60962500D01*
%TO.C,C131*%
X28031250Y-61362500D02*
X28031250Y-60962500D01*
X28881250Y-61362500D02*
X28881250Y-60962500D01*
%TO.C,C34*%
X78275000Y-61362500D02*
X78275000Y-60962500D01*
X79125000Y-61362500D02*
X79125000Y-60962500D01*
%TO.C,J4*%
X63430000Y-88522500D02*
X63430000Y-91182500D01*
X63430000Y-88522500D02*
X71110000Y-88522500D01*
X63430000Y-91182500D02*
X71110000Y-91182500D01*
X71110000Y-88522500D02*
X71110000Y-91182500D01*
X73710000Y-89852500D02*
X73710000Y-91182500D01*
X73710000Y-91182500D02*
X72380000Y-91182500D01*
%TO.C,C155*%
X216150000Y-80412500D02*
X216150000Y-80012500D01*
X217000000Y-80412500D02*
X217000000Y-80012500D01*
%TO.C,U5*%
X254065000Y-51658750D02*
X254615000Y-51658750D01*
X254065000Y-52208750D02*
X254065000Y-51658750D01*
X254065000Y-57328750D02*
X254065000Y-57878750D01*
X254065000Y-57878750D02*
X254615000Y-57878750D01*
X260285000Y-51658750D02*
X259735000Y-51658750D01*
X260285000Y-57328750D02*
X260285000Y-57878750D01*
X260285000Y-57878750D02*
X259735000Y-57878750D01*
%TO.C,C24*%
X168762500Y-42312500D02*
X168762500Y-41912500D01*
X169612500Y-42312500D02*
X169612500Y-41912500D01*
%TO.C,C106*%
X116137500Y-23262500D02*
X116137500Y-22862500D01*
X116987500Y-23262500D02*
X116987500Y-22862500D01*
%TO.C,C63*%
X54462500Y-99462500D02*
X54462500Y-99062500D01*
X55312500Y-99462500D02*
X55312500Y-99062500D01*
%TO.C,C93*%
X197337500Y-99462500D02*
X197337500Y-99062500D01*
X198187500Y-99462500D02*
X198187500Y-99062500D01*
%TO.C,C156*%
X235200000Y-80412500D02*
X235200000Y-80012500D01*
X236050000Y-80412500D02*
X236050000Y-80012500D01*
%TO.C,C127*%
X220912500Y-42312500D02*
X220912500Y-41912500D01*
X221762500Y-42312500D02*
X221762500Y-41912500D01*
%TO.C,U88*%
X78541875Y-40681875D02*
X78541875Y-41061875D01*
X78781875Y-42901875D02*
X80761875Y-42901875D01*
X81261875Y-41061875D02*
X80981875Y-41061875D01*
X80981875Y-40781875D01*
X81261875Y-41061875D01*
G36*
X81261875Y-41061875D02*
G01*
X80981875Y-41061875D01*
X80981875Y-40781875D01*
X81261875Y-41061875D01*
G37*
%TO.C,C6*%
X121137500Y-23262500D02*
X121137500Y-22862500D01*
X121987500Y-23262500D02*
X121987500Y-22862500D01*
%TO.C,U3*%
X120715000Y-70708750D02*
X121265000Y-70708750D01*
X120715000Y-71258750D02*
X120715000Y-70708750D01*
X120715000Y-76928750D02*
X121265000Y-76928750D01*
X126935000Y-70708750D02*
X126385000Y-70708750D01*
X126935000Y-71258750D02*
X126935000Y-70708750D01*
X126935000Y-76378750D02*
X126935000Y-76928750D01*
X126935000Y-76928750D02*
X126385000Y-76928750D01*
%TO.C,C68*%
X70075000Y-69193750D02*
X69675000Y-69193750D01*
X70075000Y-70043750D02*
X69675000Y-70043750D01*
%TO.C,C18*%
X54462500Y-42312500D02*
X54462500Y-41912500D01*
X55312500Y-42312500D02*
X55312500Y-41912500D01*
%TO.C,C86*%
X253775000Y-58543750D02*
X254175000Y-58543750D01*
X253775000Y-59393750D02*
X254175000Y-59393750D01*
%TO.C,C54*%
X183050000Y-80412500D02*
X183050000Y-80012500D01*
X183900000Y-80412500D02*
X183900000Y-80012500D01*
D11*
%TO.C,U20*%
X288952500Y-23832501D02*
X288952500Y-22157500D01*
X288952500Y-23832501D02*
X288952500Y-24482500D01*
X292072500Y-23832501D02*
X292072500Y-23182500D01*
X292072500Y-23832501D02*
X292072500Y-24482500D01*
D12*
%TO.C,C164*%
X192337500Y-99462500D02*
X192337500Y-99062500D01*
X193187500Y-99462500D02*
X193187500Y-99062500D01*
D11*
%TO.C,U44*%
X169890000Y-61932501D02*
X169890000Y-60257500D01*
X169890000Y-61932501D02*
X169890000Y-62582500D01*
X173010000Y-61932501D02*
X173010000Y-61282500D01*
X173010000Y-61932501D02*
X173010000Y-62582500D01*
D12*
%TO.C,C41*%
X211625000Y-61362500D02*
X211625000Y-60962500D01*
X212475000Y-61362500D02*
X212475000Y-60962500D01*
D11*
%TO.C,U28*%
X146077500Y-42882501D02*
X146077500Y-41207500D01*
X146077500Y-42882501D02*
X146077500Y-43532500D01*
X149197500Y-42882501D02*
X149197500Y-42232500D01*
X149197500Y-42882501D02*
X149197500Y-43532500D01*
%TO.C,U46*%
X207990000Y-61932501D02*
X207990000Y-60257500D01*
X207990000Y-61932501D02*
X207990000Y-62582500D01*
X211110000Y-61932501D02*
X211110000Y-61282500D01*
X211110000Y-61932501D02*
X211110000Y-62582500D01*
D12*
%TO.C,C92*%
X159237500Y-99462500D02*
X159237500Y-99062500D01*
X160087500Y-99462500D02*
X160087500Y-99062500D01*
%TO.C,C109*%
X173287500Y-23262500D02*
X173287500Y-22862500D01*
X174137500Y-23262500D02*
X174137500Y-22862500D01*
%TO.C,C139*%
X187575000Y-61362500D02*
X187575000Y-60962500D01*
X188425000Y-61362500D02*
X188425000Y-60962500D01*
D11*
%TO.C,U9*%
X79402500Y-23832501D02*
X79402500Y-22157500D01*
X79402500Y-23832501D02*
X79402500Y-24482500D01*
X82522500Y-23832501D02*
X82522500Y-23182500D01*
X82522500Y-23832501D02*
X82522500Y-24482500D01*
%TO.C,U22*%
X27015000Y-41207500D02*
X27015000Y-42882500D01*
X27015000Y-43532500D02*
X27015000Y-42882500D01*
X30135000Y-42232500D02*
X30135000Y-42882500D01*
X30135000Y-43532500D02*
X30135000Y-42882500D01*
%TO.C,U10*%
X98452500Y-23832501D02*
X98452500Y-22157500D01*
X98452500Y-23832501D02*
X98452500Y-24482500D01*
X101572500Y-23832501D02*
X101572500Y-23182500D01*
X101572500Y-23832501D02*
X101572500Y-24482500D01*
%TO.C,U33*%
X241327500Y-42882501D02*
X241327500Y-41207500D01*
X241327500Y-42882501D02*
X241327500Y-43532500D01*
X244447500Y-42882501D02*
X244447500Y-42232500D01*
X244447500Y-42882501D02*
X244447500Y-43532500D01*
D12*
%TO.C,J10*%
X196780000Y-91062500D02*
X196780000Y-93722500D01*
X196780000Y-91062500D02*
X204460000Y-91062500D01*
X196780000Y-93722500D02*
X204460000Y-93722500D01*
X204460000Y-91062500D02*
X204460000Y-93722500D01*
X207060000Y-92392500D02*
X207060000Y-93722500D01*
X207060000Y-93722500D02*
X205730000Y-93722500D01*
%TO.C,C71*%
X127600000Y-76698750D02*
X127600000Y-76298750D01*
X128450000Y-76698750D02*
X128450000Y-76298750D01*
D11*
%TO.C,U51*%
X34158750Y-80982501D02*
X34158750Y-79307500D01*
X34158750Y-80982501D02*
X34158750Y-81632500D01*
X37278750Y-80982501D02*
X37278750Y-80332500D01*
X37278750Y-80982501D02*
X37278750Y-81632500D01*
D13*
X22812500Y-70707500D02*
G75*
G02*
X24811449Y-70706975I1000000J-2000020D01*
G01*
X46625000Y-70707500D02*
G75*
G02*
X48623949Y-70706975I1000000J-1999998D01*
G01*
X25562500Y-87947500D02*
G75*
G02*
X22062500Y-87947500I-1750000J0D01*
G01*
X22062500Y-87947500D02*
G75*
G02*
X25562500Y-87947500I1750000J0D01*
G01*
X49375000Y-87947500D02*
G75*
G02*
X45875000Y-87947500I-1750000J0D01*
G01*
X45875000Y-87947500D02*
G75*
G02*
X49375000Y-87947500I1750000J0D01*
G01*
D12*
%TO.C,C65*%
X70450000Y-76692500D02*
X70450000Y-76292500D01*
X71300000Y-76692500D02*
X71300000Y-76292500D01*
%TO.C,C64*%
X78275000Y-99462500D02*
X78275000Y-99062500D01*
X79125000Y-99462500D02*
X79125000Y-99062500D01*
D11*
%TO.C,U18*%
X250852500Y-23832501D02*
X250852500Y-22157500D01*
X250852500Y-23832501D02*
X250852500Y-24482500D01*
X253972500Y-23832501D02*
X253972500Y-23182500D01*
X253972500Y-23832501D02*
X253972500Y-24482500D01*
D12*
%TO.C,C1*%
X25887500Y-23262500D02*
X25887500Y-22862500D01*
X26737500Y-23262500D02*
X26737500Y-22862500D01*
D11*
%TO.C,U7*%
X41302500Y-23832501D02*
X41302500Y-22157500D01*
X41302500Y-23832501D02*
X41302500Y-24482500D01*
X44422500Y-23832501D02*
X44422500Y-23182500D01*
X44422500Y-23832501D02*
X44422500Y-24482500D01*
D12*
%TO.C,C148*%
X82800000Y-80412500D02*
X82800000Y-80012500D01*
X83650000Y-80412500D02*
X83650000Y-80012500D01*
D11*
%TO.C,U64*%
X262758750Y-79307500D02*
X262758750Y-80982500D01*
X262758750Y-81632500D02*
X262758750Y-80982500D01*
X265878750Y-80332500D02*
X265878750Y-80982500D01*
X265878750Y-81632500D02*
X265878750Y-80982500D01*
%TO.C,U15*%
X193702500Y-23832501D02*
X193702500Y-22157500D01*
X193702500Y-23832501D02*
X193702500Y-24482500D01*
X196822500Y-23832501D02*
X196822500Y-23182500D01*
X196822500Y-23832501D02*
X196822500Y-24482500D01*
D12*
%TO.C,C85*%
X262055000Y-51343750D02*
X261655000Y-51343750D01*
X262055000Y-52193750D02*
X261655000Y-52193750D01*
%TO.C,C46*%
X37793750Y-80412500D02*
X37793750Y-80012500D01*
X38643750Y-80412500D02*
X38643750Y-80012500D01*
%TO.C,U2*%
X63565000Y-70708750D02*
X64115000Y-70708750D01*
X63565000Y-71258750D02*
X63565000Y-70708750D01*
X63565000Y-76928750D02*
X64115000Y-76928750D01*
X69785000Y-70708750D02*
X69235000Y-70708750D01*
X69785000Y-71258750D02*
X69785000Y-70708750D01*
X69785000Y-76378750D02*
X69785000Y-76928750D01*
X69785000Y-76928750D02*
X69235000Y-76928750D01*
%TO.C,C175*%
X79421875Y-45871875D02*
X80121875Y-45871875D01*
X80121875Y-47071875D02*
X79421875Y-47071875D01*
D11*
%TO.C,U43*%
X150840000Y-61932501D02*
X150840000Y-60257500D01*
X150840000Y-61932501D02*
X150840000Y-62582500D01*
X153960000Y-61932501D02*
X153960000Y-61282500D01*
X153960000Y-61932501D02*
X153960000Y-62582500D01*
D12*
%TO.C,C14*%
X273537500Y-23262500D02*
X273537500Y-22862500D01*
X274387500Y-23262500D02*
X274387500Y-22862500D01*
D11*
%TO.C,U29*%
X165127500Y-42882501D02*
X165127500Y-41207500D01*
X165127500Y-42882501D02*
X165127500Y-43532500D01*
X168247500Y-42882501D02*
X168247500Y-42232500D01*
X168247500Y-42882501D02*
X168247500Y-43532500D01*
%TO.C,U45*%
X188940000Y-61932501D02*
X188940000Y-60257500D01*
X188940000Y-61932501D02*
X188940000Y-62582500D01*
X192060000Y-61932501D02*
X192060000Y-61282500D01*
X192060000Y-61932501D02*
X192060000Y-62582500D01*
D12*
%TO.C,C89*%
X41383750Y-50217500D02*
X41383750Y-50617500D01*
X42233750Y-50217500D02*
X42233750Y-50617500D01*
D11*
%TO.C,U36*%
X29396250Y-60257500D02*
X29396250Y-61932500D01*
X29396250Y-62582500D02*
X29396250Y-61932500D01*
X32516250Y-61282500D02*
X32516250Y-61932500D01*
X32516250Y-62582500D02*
X32516250Y-61932500D01*
D12*
%TO.C,C121*%
X106612500Y-42312500D02*
X106612500Y-41912500D01*
X107462500Y-42312500D02*
X107462500Y-41912500D01*
%TO.C,C40*%
X192575000Y-61362500D02*
X192575000Y-60962500D01*
X193425000Y-61362500D02*
X193425000Y-60962500D01*
%TO.C,C87*%
X262550000Y-54908750D02*
X262550000Y-55308750D01*
X263400000Y-54908750D02*
X263400000Y-55308750D01*
D11*
%TO.C,U19*%
X269902500Y-23832501D02*
X269902500Y-22157500D01*
X269902500Y-23832501D02*
X269902500Y-24482500D01*
X273022500Y-23832501D02*
X273022500Y-23182500D01*
X273022500Y-23832501D02*
X273022500Y-24482500D01*
D12*
%TO.C,C130*%
X282825000Y-42312500D02*
X282825000Y-41912500D01*
X283675000Y-42312500D02*
X283675000Y-41912500D01*
%TO.C,C12*%
X235437500Y-23262500D02*
X235437500Y-22862500D01*
X236287500Y-23262500D02*
X236287500Y-22862500D01*
%TO.C,J3*%
X35351250Y-43913750D02*
X36681250Y-43913750D01*
X35351250Y-45243750D02*
X35351250Y-43913750D01*
X37951250Y-46573750D02*
X37951250Y-43913750D01*
X45631250Y-43913750D02*
X37951250Y-43913750D01*
X45631250Y-46573750D02*
X37951250Y-46573750D01*
X45631250Y-46573750D02*
X45631250Y-43913750D01*
D11*
%TO.C,U54*%
X65115000Y-80982501D02*
X65115000Y-79307500D01*
X65115000Y-80982501D02*
X65115000Y-81632500D01*
X68235000Y-80982501D02*
X68235000Y-80332500D01*
X68235000Y-80982501D02*
X68235000Y-81632500D01*
D12*
%TO.C,C107*%
X135187500Y-23262500D02*
X135187500Y-22862500D01*
X136037500Y-23262500D02*
X136037500Y-22862500D01*
%TO.C,C38*%
X154475000Y-61362500D02*
X154475000Y-60962500D01*
X155325000Y-61362500D02*
X155325000Y-60962500D01*
D11*
%TO.C,U31*%
X203227500Y-42882501D02*
X203227500Y-41207500D01*
X203227500Y-42882501D02*
X203227500Y-43532500D01*
X206347500Y-42882501D02*
X206347500Y-42232500D01*
X206347500Y-42882501D02*
X206347500Y-43532500D01*
%TO.C,U26*%
X107977500Y-42882501D02*
X107977500Y-41207500D01*
X107977500Y-42882501D02*
X107977500Y-43532500D01*
X111097500Y-42882501D02*
X111097500Y-42232500D01*
X111097500Y-42882501D02*
X111097500Y-43532500D01*
%TO.C,U6*%
X22252500Y-23832501D02*
X22252500Y-22157500D01*
X22252500Y-23832501D02*
X22252500Y-24482500D01*
X25372500Y-23832501D02*
X25372500Y-23182500D01*
X25372500Y-23832501D02*
X25372500Y-24482500D01*
D12*
%TO.C,C119*%
X68512500Y-42312500D02*
X68512500Y-41912500D01*
X69362500Y-42312500D02*
X69362500Y-41912500D01*
D11*
%TO.C,U55*%
X84165000Y-80982501D02*
X84165000Y-79307500D01*
X84165000Y-80982501D02*
X84165000Y-81632500D01*
X87285000Y-80982501D02*
X87285000Y-80332500D01*
X87285000Y-80982501D02*
X87285000Y-81632500D01*
D12*
%TO.C,C42*%
X230675000Y-61362500D02*
X230675000Y-60962500D01*
X231525000Y-61362500D02*
X231525000Y-60962500D01*
%TO.C,J8*%
X63430000Y-91062500D02*
X63430000Y-93722500D01*
X63430000Y-91062500D02*
X71110000Y-91062500D01*
X63430000Y-93722500D02*
X71110000Y-93722500D01*
X71110000Y-91062500D02*
X71110000Y-93722500D01*
X73710000Y-92392500D02*
X73710000Y-93722500D01*
X73710000Y-93722500D02*
X72380000Y-93722500D01*
%TO.C,C110*%
X192337500Y-23262500D02*
X192337500Y-22862500D01*
X193187500Y-23262500D02*
X193187500Y-22862500D01*
%TO.C,R1*%
X36008750Y-51392500D02*
X36408750Y-51392500D01*
X36008750Y-52242500D02*
X36408750Y-52242500D01*
%TO.C,C157*%
X261393750Y-80412500D02*
X261393750Y-80012500D01*
X262243750Y-80412500D02*
X262243750Y-80012500D01*
%TO.C,C88*%
X261550000Y-54908750D02*
X261550000Y-55308750D01*
X262400000Y-54908750D02*
X262400000Y-55308750D01*
%TO.C,C132*%
X54225000Y-61362500D02*
X54225000Y-60962500D01*
X55075000Y-61362500D02*
X55075000Y-60962500D01*
%TO.C,J7*%
X227455000Y-50688750D02*
X227455000Y-53348750D01*
X227455000Y-50688750D02*
X235135000Y-50688750D01*
X227455000Y-53348750D02*
X235135000Y-53348750D01*
X235135000Y-50688750D02*
X235135000Y-53348750D01*
X237735000Y-52018750D02*
X237735000Y-53348750D01*
X237735000Y-53348750D02*
X236405000Y-53348750D01*
%TO.C,C55*%
X202100000Y-80412500D02*
X202100000Y-80012500D01*
X202950000Y-80412500D02*
X202950000Y-80012500D01*
%TO.C,C172*%
X78846875Y-39371875D02*
X78846875Y-38971875D01*
X79696875Y-39371875D02*
X79696875Y-38971875D01*
%TO.C,C150*%
X120900000Y-80412500D02*
X120900000Y-80012500D01*
X121750000Y-80412500D02*
X121750000Y-80012500D01*
%TO.C,C51*%
X125900000Y-80412500D02*
X125900000Y-80012500D01*
X126750000Y-80412500D02*
X126750000Y-80012500D01*
%TO.C,C152*%
X159000000Y-80412500D02*
X159000000Y-80012500D01*
X159850000Y-80412500D02*
X159850000Y-80012500D01*
%TO.C,U4*%
X196915000Y-70708750D02*
X197465000Y-70708750D01*
X196915000Y-71258750D02*
X196915000Y-70708750D01*
X196915000Y-76928750D02*
X197465000Y-76928750D01*
X203135000Y-70708750D02*
X202585000Y-70708750D01*
X203135000Y-71258750D02*
X203135000Y-70708750D01*
X203135000Y-76378750D02*
X203135000Y-76928750D01*
X203135000Y-76928750D02*
X202585000Y-76928750D01*
%TO.C,C174*%
X79421875Y-44471875D02*
X80121875Y-44471875D01*
X80121875Y-45671875D02*
X79421875Y-45671875D01*
D11*
%TO.C,U16*%
X212752500Y-23832501D02*
X212752500Y-22157500D01*
X212752500Y-23832501D02*
X212752500Y-24482500D01*
X215872500Y-23832501D02*
X215872500Y-23182500D01*
X215872500Y-23832501D02*
X215872500Y-24482500D01*
%TO.C,U77*%
X50827500Y-100032501D02*
X50827500Y-98357500D01*
X50827500Y-100032501D02*
X50827500Y-100682500D01*
X53947500Y-100032501D02*
X53947500Y-99382500D01*
X53947500Y-100032501D02*
X53947500Y-100682500D01*
D12*
%TO.C,J6*%
X196780000Y-88522500D02*
X196780000Y-91182500D01*
X196780000Y-88522500D02*
X204460000Y-88522500D01*
X196780000Y-91182500D02*
X204460000Y-91182500D01*
X204460000Y-88522500D02*
X204460000Y-91182500D01*
X207060000Y-89852500D02*
X207060000Y-91182500D01*
X207060000Y-91182500D02*
X205730000Y-91182500D01*
%TO.C,C66*%
X61795000Y-75393750D02*
X62195000Y-75393750D01*
X61795000Y-76243750D02*
X62195000Y-76243750D01*
%TO.C,C32*%
X33031250Y-61362500D02*
X33031250Y-60962500D01*
X33881250Y-61362500D02*
X33881250Y-60962500D01*
D11*
%TO.C,U81*%
X236565000Y-98357500D02*
X236565000Y-100032500D01*
X236565000Y-100682500D02*
X236565000Y-100032500D01*
X239685000Y-99382500D02*
X239685000Y-100032500D01*
X239685000Y-100682500D02*
X239685000Y-100032500D01*
%TO.C,U27*%
X127027500Y-42882501D02*
X127027500Y-41207500D01*
X127027500Y-42882501D02*
X127027500Y-43532500D01*
X130147500Y-42882501D02*
X130147500Y-42232500D01*
X130147500Y-42882501D02*
X130147500Y-43532500D01*
D12*
%TO.C,C52*%
X144950000Y-80412500D02*
X144950000Y-80012500D01*
X145800000Y-80412500D02*
X145800000Y-80012500D01*
%TO.C,C10*%
X197337500Y-23262500D02*
X197337500Y-22862500D01*
X198187500Y-23262500D02*
X198187500Y-22862500D01*
D11*
%TO.C,U56*%
X103215000Y-80982501D02*
X103215000Y-79307500D01*
X103215000Y-80982501D02*
X103215000Y-81632500D01*
X106335000Y-80982501D02*
X106335000Y-80332500D01*
X106335000Y-80982501D02*
X106335000Y-81632500D01*
D12*
%TO.C,C73*%
X118945000Y-76393750D02*
X119345000Y-76393750D01*
X118945000Y-77243750D02*
X119345000Y-77243750D01*
%TO.C,C105*%
X97087500Y-23262500D02*
X97087500Y-22862500D01*
X97937500Y-23262500D02*
X97937500Y-22862500D01*
%TO.C,C171*%
X76971875Y-40246875D02*
X77371875Y-40246875D01*
X76971875Y-41096875D02*
X77371875Y-41096875D01*
%TO.C,C166*%
X259012500Y-99462500D02*
X259012500Y-99062500D01*
X259862500Y-99462500D02*
X259862500Y-99062500D01*
%TO.C,C122*%
X125662500Y-42312500D02*
X125662500Y-41912500D01*
X126512500Y-42312500D02*
X126512500Y-41912500D01*
%TO.C,C9*%
X178287500Y-23262500D02*
X178287500Y-22862500D01*
X179137500Y-23262500D02*
X179137500Y-22862500D01*
D11*
%TO.C,U63*%
X236565000Y-80982501D02*
X236565000Y-79307500D01*
X236565000Y-80982501D02*
X236565000Y-81632500D01*
X239685000Y-80982501D02*
X239685000Y-80332500D01*
X239685000Y-80982501D02*
X239685000Y-81632500D01*
D12*
%TO.C,R3*%
X80971875Y-39246875D02*
X80571875Y-39246875D01*
X80971875Y-40096875D02*
X80571875Y-40096875D01*
%TO.C,C112*%
X230437500Y-23262500D02*
X230437500Y-22862500D01*
X231287500Y-23262500D02*
X231287500Y-22862500D01*
%TO.C,C56*%
X221150000Y-80412500D02*
X221150000Y-80012500D01*
X222000000Y-80412500D02*
X222000000Y-80012500D01*
%TO.C,C75*%
X117600000Y-73678750D02*
X117600000Y-73278750D01*
X118450000Y-73678750D02*
X118450000Y-73278750D01*
%TO.C,C154*%
X197100000Y-80412500D02*
X197100000Y-80012500D01*
X197950000Y-80412500D02*
X197950000Y-80012500D01*
%TO.C,C28*%
X244962500Y-42312500D02*
X244962500Y-41912500D01*
X245812500Y-42312500D02*
X245812500Y-41912500D01*
D11*
%TO.C,U48*%
X246090000Y-61932501D02*
X246090000Y-60257500D01*
X246090000Y-61932501D02*
X246090000Y-62582500D01*
X249210000Y-61932501D02*
X249210000Y-61282500D01*
X249210000Y-61932501D02*
X249210000Y-62582500D01*
D12*
%TO.C,C7*%
X140187500Y-23262500D02*
X140187500Y-22862500D01*
X141037500Y-23262500D02*
X141037500Y-22862500D01*
D11*
%TO.C,U40*%
X93690000Y-61932501D02*
X93690000Y-60257500D01*
X93690000Y-61932501D02*
X93690000Y-62582500D01*
X96810000Y-61932501D02*
X96810000Y-61282500D01*
X96810000Y-61932501D02*
X96810000Y-62582500D01*
%TO.C,U35*%
X284190000Y-41207500D02*
X284190000Y-42882500D01*
X284190000Y-43532500D02*
X284190000Y-42882500D01*
X287310000Y-42232500D02*
X287310000Y-42882500D01*
X287310000Y-43532500D02*
X287310000Y-42882500D01*
D12*
%TO.C,C26*%
X206862500Y-42312500D02*
X206862500Y-41912500D01*
X207712500Y-42312500D02*
X207712500Y-41912500D01*
D11*
%TO.C,U59*%
X160365000Y-80982501D02*
X160365000Y-79307500D01*
X160365000Y-80982501D02*
X160365000Y-81632500D01*
X163485000Y-80982501D02*
X163485000Y-80332500D01*
X163485000Y-80982501D02*
X163485000Y-81632500D01*
%TO.C,U49*%
X277046250Y-60257500D02*
X277046250Y-61932500D01*
X277046250Y-62582500D02*
X277046250Y-61932500D01*
X280166250Y-61282500D02*
X280166250Y-61932500D01*
X280166250Y-62582500D02*
X280166250Y-61932500D01*
D13*
X267700000Y-72167500D02*
G75*
G02*
X265701051Y-72168025I-1000000J2000000D01*
G01*
X291512500Y-72167500D02*
G75*
G02*
X289513551Y-72168025I-1000000J1999998D01*
G01*
X268450000Y-54927500D02*
G75*
G02*
X264950000Y-54927500I-1750000J0D01*
G01*
X264950000Y-54927500D02*
G75*
G02*
X268450000Y-54927500I1750000J0D01*
G01*
X292262500Y-54927500D02*
G75*
G02*
X288762500Y-54927500I-1750000J0D01*
G01*
X288762500Y-54927500D02*
G75*
G02*
X292262500Y-54927500I1750000J0D01*
G01*
D12*
%TO.C,C33*%
X59225000Y-61362500D02*
X59225000Y-60962500D01*
X60075000Y-61362500D02*
X60075000Y-60962500D01*
%TO.C,C118*%
X49462500Y-42312500D02*
X49462500Y-41912500D01*
X50312500Y-42312500D02*
X50312500Y-41912500D01*
%TO.C,C21*%
X111612500Y-42312500D02*
X111612500Y-41912500D01*
X112462500Y-42312500D02*
X112462500Y-41912500D01*
D11*
%TO.C,U24*%
X69877500Y-42882501D02*
X69877500Y-41207500D01*
X69877500Y-42882501D02*
X69877500Y-43532500D01*
X72997500Y-42882501D02*
X72997500Y-42232500D01*
X72997500Y-42882501D02*
X72997500Y-43532500D01*
D12*
%TO.C,C50*%
X106850000Y-80412500D02*
X106850000Y-80012500D01*
X107700000Y-80412500D02*
X107700000Y-80012500D01*
D11*
%TO.C,U47*%
X227040000Y-61932501D02*
X227040000Y-60257500D01*
X227040000Y-61932501D02*
X227040000Y-62582500D01*
X230160000Y-61932501D02*
X230160000Y-61282500D01*
X230160000Y-61932501D02*
X230160000Y-62582500D01*
%TO.C,U39*%
X74640000Y-61932501D02*
X74640000Y-60257500D01*
X74640000Y-61932501D02*
X74640000Y-62582500D01*
X77760000Y-61932501D02*
X77760000Y-61282500D01*
X77760000Y-61932501D02*
X77760000Y-62582500D01*
D12*
%TO.C,C22*%
X130662500Y-42312500D02*
X130662500Y-41912500D01*
X131512500Y-42312500D02*
X131512500Y-41912500D01*
%TO.C,C143*%
X275681250Y-61362500D02*
X275681250Y-60962500D01*
X276531250Y-61362500D02*
X276531250Y-60962500D01*
%TO.C,C134*%
X92325000Y-61362500D02*
X92325000Y-60962500D01*
X93175000Y-61362500D02*
X93175000Y-60962500D01*
%TO.C,C11*%
X216387500Y-23262500D02*
X216387500Y-22862500D01*
X217237500Y-23262500D02*
X217237500Y-22862500D01*
%TO.C,C53*%
X164000000Y-80412500D02*
X164000000Y-80012500D01*
X164850000Y-80412500D02*
X164850000Y-80012500D01*
%TO.C,C149*%
X101850000Y-80412500D02*
X101850000Y-80012500D01*
X102700000Y-80412500D02*
X102700000Y-80012500D01*
D11*
%TO.C,U23*%
X50827500Y-42882501D02*
X50827500Y-41207500D01*
X50827500Y-42882501D02*
X50827500Y-43532500D01*
X53947500Y-42882501D02*
X53947500Y-42232500D01*
X53947500Y-42882501D02*
X53947500Y-43532500D01*
D12*
%TO.C,C72*%
X118945000Y-75393750D02*
X119345000Y-75393750D01*
X118945000Y-76243750D02*
X119345000Y-76243750D01*
%TO.C,C78*%
X195145000Y-75393750D02*
X195545000Y-75393750D01*
X195145000Y-76243750D02*
X195545000Y-76243750D01*
%TO.C,C70*%
X61450000Y-73678750D02*
X61450000Y-73278750D01*
X62300000Y-73678750D02*
X62300000Y-73278750D01*
%TO.C,C138*%
X168525000Y-61362500D02*
X168525000Y-60962500D01*
X169375000Y-61362500D02*
X169375000Y-60962500D01*
%TO.C,C133*%
X73275000Y-61362500D02*
X73275000Y-60962500D01*
X74125000Y-61362500D02*
X74125000Y-60962500D01*
D11*
%TO.C,U34*%
X260377500Y-42882501D02*
X260377500Y-41207500D01*
X260377500Y-42882501D02*
X260377500Y-43532500D01*
X263497500Y-42882501D02*
X263497500Y-42232500D01*
X263497500Y-42882501D02*
X263497500Y-43532500D01*
D12*
%TO.C,C23*%
X149712500Y-42312500D02*
X149712500Y-41912500D01*
X150562500Y-42312500D02*
X150562500Y-41912500D01*
D14*
%TO.C,J1*%
X38900913Y-28816426D02*
X41300913Y-28816426D01*
X38900913Y-29816426D02*
X38900913Y-28816426D01*
X38900913Y-34816426D02*
X38900913Y-33816426D01*
X41300913Y-34816426D02*
X38900913Y-34816426D01*
X43100913Y-29816426D02*
X43100913Y-33816426D01*
D11*
%TO.C,U14*%
X174652500Y-23832501D02*
X174652500Y-22157500D01*
X174652500Y-23832501D02*
X174652500Y-24482500D01*
X177772500Y-23832501D02*
X177772500Y-23182500D01*
X177772500Y-23832501D02*
X177772500Y-24482500D01*
D12*
%TO.C,C126*%
X201862500Y-42312500D02*
X201862500Y-41912500D01*
X202712500Y-42312500D02*
X202712500Y-41912500D01*
%TO.C,C129*%
X259012500Y-42312500D02*
X259012500Y-41912500D01*
X259862500Y-42312500D02*
X259862500Y-41912500D01*
%TO.C,C113*%
X249487500Y-23262500D02*
X249487500Y-22862500D01*
X250337500Y-23262500D02*
X250337500Y-22862500D01*
%TO.C,C111*%
X211387500Y-23262500D02*
X211387500Y-22862500D01*
X212237500Y-23262500D02*
X212237500Y-22862500D01*
D11*
%TO.C,U17*%
X231802500Y-23832501D02*
X231802500Y-22157500D01*
X231802500Y-23832501D02*
X231802500Y-24482500D01*
X234922500Y-23832501D02*
X234922500Y-23182500D01*
X234922500Y-23832501D02*
X234922500Y-24482500D01*
D12*
%TO.C,L1*%
X81461875Y-44371875D02*
X81461875Y-41871875D01*
X83681875Y-41871875D02*
X83681875Y-44371875D01*
D11*
%TO.C,U13*%
X155602500Y-23832501D02*
X155602500Y-22157500D01*
X155602500Y-23832501D02*
X155602500Y-24482500D01*
X158722500Y-23832501D02*
X158722500Y-23182500D01*
X158722500Y-23832501D02*
X158722500Y-24482500D01*
D12*
%TO.C,C2*%
X44937500Y-23262500D02*
X44937500Y-22862500D01*
X45787500Y-23262500D02*
X45787500Y-22862500D01*
%TO.C,C80*%
X203425000Y-69193750D02*
X203025000Y-69193750D01*
X203425000Y-70043750D02*
X203025000Y-70043750D01*
%TO.C,C57*%
X240200000Y-80412500D02*
X240200000Y-80012500D01*
X241050000Y-80412500D02*
X241050000Y-80012500D01*
%TO.C,C4*%
X83037500Y-23262500D02*
X83037500Y-22862500D01*
X83887500Y-23262500D02*
X83887500Y-22862500D01*
%TO.C,U87*%
X37708750Y-50117500D02*
X37708750Y-49117500D01*
X37708750Y-50117500D02*
X39508750Y-50117500D01*
X38508750Y-48317500D02*
X39508750Y-48317500D01*
X39508750Y-50117500D02*
X39508750Y-48317500D01*
%TO.C,C136*%
X130425000Y-61362500D02*
X130425000Y-60962500D01*
X131275000Y-61362500D02*
X131275000Y-60962500D01*
%TO.C,C163*%
X154237500Y-99462500D02*
X154237500Y-99062500D01*
X155087500Y-99462500D02*
X155087500Y-99062500D01*
%TO.C,C44*%
X280681250Y-61362500D02*
X280681250Y-60962500D01*
X281531250Y-61362500D02*
X281531250Y-60962500D01*
%TO.C,C173*%
X79421875Y-43071875D02*
X80121875Y-43071875D01*
X80121875Y-44271875D02*
X79421875Y-44271875D01*
%TO.C,C158*%
X287587500Y-80412500D02*
X287587500Y-80012500D01*
X288437500Y-80412500D02*
X288437500Y-80012500D01*
%TO.C,U1*%
X37698750Y-51907500D02*
X38048750Y-51907500D01*
X37698750Y-52257500D02*
X37698750Y-51907500D01*
X37698750Y-55777500D02*
X37698750Y-56127500D01*
X37698750Y-56127500D02*
X38048750Y-56127500D01*
X41918750Y-51907500D02*
X41568750Y-51907500D01*
X41918750Y-55777500D02*
X41918750Y-56127500D01*
X41918750Y-56127500D02*
X41568750Y-56127500D01*
%TO.C,C103*%
X58987500Y-23262500D02*
X58987500Y-22862500D01*
X59837500Y-23262500D02*
X59837500Y-22862500D01*
%TO.C,C102*%
X39937500Y-23262500D02*
X39937500Y-22862500D01*
X40787500Y-23262500D02*
X40787500Y-22862500D01*
%TO.C,C30*%
X287825000Y-42312500D02*
X287825000Y-41912500D01*
X288675000Y-42312500D02*
X288675000Y-41912500D01*
%TO.C,C135*%
X111375000Y-61362500D02*
X111375000Y-60962500D01*
X112225000Y-61362500D02*
X112225000Y-60962500D01*
%TO.C,C19*%
X73512500Y-42312500D02*
X73512500Y-41912500D01*
X74362500Y-42312500D02*
X74362500Y-41912500D01*
%TO.C,C74*%
X127225000Y-69193750D02*
X126825000Y-69193750D01*
X127225000Y-70043750D02*
X126825000Y-70043750D01*
%TO.C,C169*%
X76821875Y-37471875D02*
X77521875Y-37471875D01*
X77521875Y-38671875D02*
X76821875Y-38671875D01*
D11*
%TO.C,U61*%
X198465000Y-80982501D02*
X198465000Y-79307500D01*
X198465000Y-80982501D02*
X198465000Y-81632500D01*
X201585000Y-80982501D02*
X201585000Y-80332500D01*
X201585000Y-80982501D02*
X201585000Y-81632500D01*
%TO.C,U12*%
X136552500Y-23832501D02*
X136552500Y-22157500D01*
X136552500Y-23832501D02*
X136552500Y-24482500D01*
X139672500Y-23832501D02*
X139672500Y-23182500D01*
X139672500Y-23832501D02*
X139672500Y-24482500D01*
D12*
%TO.C,C27*%
X225912500Y-42312500D02*
X225912500Y-41912500D01*
X226762500Y-42312500D02*
X226762500Y-41912500D01*
%TO.C,C90*%
X36008750Y-53592500D02*
X36408750Y-53592500D01*
X36008750Y-54442500D02*
X36408750Y-54442500D01*
%TO.C,C94*%
X240200000Y-99462500D02*
X240200000Y-99062500D01*
X241050000Y-99462500D02*
X241050000Y-99062500D01*
%TO.C,C114*%
X268537500Y-23262500D02*
X268537500Y-22862500D01*
X269387500Y-23262500D02*
X269387500Y-22862500D01*
D11*
%TO.C,U82*%
X260377500Y-100032501D02*
X260377500Y-98357500D01*
X260377500Y-100032501D02*
X260377500Y-100682500D01*
X263497500Y-100032501D02*
X263497500Y-99382500D01*
X263497500Y-100032501D02*
X263497500Y-100682500D01*
D12*
%TO.C,C37*%
X135425000Y-61362500D02*
X135425000Y-60962500D01*
X136275000Y-61362500D02*
X136275000Y-60962500D01*
%TO.C,C20*%
X92562500Y-42312500D02*
X92562500Y-41912500D01*
X93412500Y-42312500D02*
X93412500Y-41912500D01*
D11*
%TO.C,U78*%
X74640000Y-98357500D02*
X74640000Y-100032500D01*
X74640000Y-100682500D02*
X74640000Y-100032500D01*
X77760000Y-99382500D02*
X77760000Y-100032500D01*
X77760000Y-100682500D02*
X77760000Y-100032500D01*
D12*
%TO.C,C48*%
X68750000Y-80412500D02*
X68750000Y-80012500D01*
X69600000Y-80412500D02*
X69600000Y-80012500D01*
%TO.C,C39*%
X173525000Y-61362500D02*
X173525000Y-60962500D01*
X174375000Y-61362500D02*
X174375000Y-60962500D01*
%TO.C,C161*%
X73275000Y-99462500D02*
X73275000Y-99062500D01*
X74125000Y-99462500D02*
X74125000Y-99062500D01*
D11*
%TO.C,U25*%
X88927500Y-42882501D02*
X88927500Y-41207500D01*
X88927500Y-42882501D02*
X88927500Y-43532500D01*
X92047500Y-42882501D02*
X92047500Y-42232500D01*
X92047500Y-42882501D02*
X92047500Y-43532500D01*
D12*
%TO.C,R58*%
X36408750Y-55192500D02*
X36008750Y-55192500D01*
X36408750Y-56042500D02*
X36008750Y-56042500D01*
%TO.C,C117*%
X25650000Y-42312500D02*
X25650000Y-41912500D01*
X26500000Y-42312500D02*
X26500000Y-41912500D01*
%TO.C,C8*%
X159237500Y-23262500D02*
X159237500Y-22862500D01*
X160087500Y-23262500D02*
X160087500Y-22862500D01*
%TO.C,J11*%
X238895000Y-50688750D02*
X240225000Y-50688750D01*
X238895000Y-52018750D02*
X238895000Y-50688750D01*
X241495000Y-53348750D02*
X241495000Y-50688750D01*
X249175000Y-50688750D02*
X241495000Y-50688750D01*
X249175000Y-53348750D02*
X241495000Y-53348750D01*
X249175000Y-53348750D02*
X249175000Y-50688750D01*
%TO.C,J5*%
X120580000Y-88522500D02*
X120580000Y-91182500D01*
X120580000Y-88522500D02*
X128260000Y-88522500D01*
X120580000Y-91182500D02*
X128260000Y-91182500D01*
X128260000Y-88522500D02*
X128260000Y-91182500D01*
X130860000Y-89852500D02*
X130860000Y-91182500D01*
X130860000Y-91182500D02*
X129530000Y-91182500D01*
%TO.C,C5*%
X102087500Y-23262500D02*
X102087500Y-22862500D01*
X102937500Y-23262500D02*
X102937500Y-22862500D01*
%TD*%
%LPC*%
D15*
%TO.C,H8*%
X166687500Y-23812500D03*
%TD*%
%TO.C,H4*%
X85725000Y-61912500D03*
%TD*%
%TO.C,H5*%
X71437500Y-23812500D03*
%TD*%
%TO.C,H13*%
X238125000Y-61912500D03*
%TD*%
%TO.C,H10*%
X185737500Y-23812500D03*
%TD*%
%TO.C,H7*%
X161925000Y-61912500D03*
%TD*%
%TO.C,H13*%
X57150000Y-80962500D03*
%TD*%
%TO.C,H9*%
X128587500Y-23812500D03*
%TD*%
%TO.C,H12*%
X19050000Y-33337500D03*
%TD*%
%TO.C,H13*%
X280987500Y-80962500D03*
%TD*%
%TO.C,H18*%
X280987500Y-33337500D03*
%TD*%
%TO.C,H14*%
X88106250Y-100012500D03*
%TD*%
%TO.C,H11*%
X242887500Y-23812500D03*
%TD*%
%TO.C,H15*%
X226218750Y-100012500D03*
%TD*%
%TO.C,H5*%
X90487500Y-23812500D03*
%TD*%
D16*
%TO.C,U42*%
X138429999Y-61912500D03*
X128270001Y-61912500D03*
D17*
X132400000Y-60757500D03*
X133350000Y-63107500D03*
X134300000Y-60757500D03*
%TD*%
D18*
%TO.C,C140*%
X207050000Y-60682500D03*
X207050000Y-61642500D03*
%TD*%
%TO.C,C160*%
X49887500Y-98782500D03*
X49887500Y-99742500D03*
%TD*%
%TO.C,C141*%
X226100000Y-60682500D03*
X226100000Y-61642500D03*
%TD*%
D16*
%TO.C,U58*%
X147954999Y-80962500D03*
X137795001Y-80962500D03*
D17*
X141925000Y-79807500D03*
X142875000Y-82157500D03*
X143825000Y-79807500D03*
%TD*%
D19*
%TO.C,C168*%
X37048750Y-50817500D03*
X38008750Y-50817500D03*
%TD*%
D18*
%TO.C,C162*%
X116562500Y-98782500D03*
X116562500Y-99742500D03*
%TD*%
%TO.C,C29*%
X264437500Y-41632500D03*
X264437500Y-42592500D03*
%TD*%
%TO.C,C120*%
X87987500Y-41632500D03*
X87987500Y-42592500D03*
%TD*%
%TO.C,C128*%
X240387500Y-41632500D03*
X240387500Y-42592500D03*
%TD*%
%TO.C,C147*%
X64175000Y-79732500D03*
X64175000Y-80692500D03*
%TD*%
%TO.C,C108*%
X154662500Y-22582500D03*
X154662500Y-23542500D03*
%TD*%
D16*
%TO.C,U11*%
X124142499Y-23812500D03*
X113982501Y-23812500D03*
D17*
X118112500Y-22657500D03*
X119062500Y-25007500D03*
X120012500Y-22657500D03*
%TD*%
D19*
%TO.C,C67*%
X62475000Y-76818750D03*
X61515000Y-76818750D03*
%TD*%
D20*
%TO.C,C170*%
X77921875Y-39471875D03*
X76421875Y-39471875D03*
%TD*%
D18*
%TO.C,C101*%
X21312500Y-22582500D03*
X21312500Y-23542500D03*
%TD*%
%TO.C,C25*%
X188237500Y-41632500D03*
X188237500Y-42592500D03*
%TD*%
%TO.C,C43*%
X250150000Y-60682500D03*
X250150000Y-61642500D03*
%TD*%
%TO.C,C165*%
X235625000Y-98782500D03*
X235625000Y-99742500D03*
%TD*%
%TO.C,C104*%
X78462500Y-22582500D03*
X78462500Y-23542500D03*
%TD*%
%TO.C,C151*%
X140375000Y-79732500D03*
X140375000Y-80692500D03*
%TD*%
D21*
%TO.C,U80*%
X214312500Y-106997500D03*
D22*
X214312500Y-91757500D03*
D16*
X200342500Y-100012500D03*
X190182500Y-100012500D03*
D21*
X176212500Y-106997500D03*
D22*
X176212500Y-91757500D03*
D17*
X194312500Y-98857500D03*
X195262500Y-101207500D03*
X196212500Y-98857500D03*
%TD*%
D23*
%TO.C,J2*%
X25620000Y-51112500D03*
D24*
X28160000Y-51112500D03*
X30700000Y-51112500D03*
X33240000Y-51112500D03*
%TD*%
D16*
%TO.C,U32*%
X228917499Y-42862500D03*
X218757501Y-42862500D03*
D17*
X222887500Y-41707500D03*
X223837500Y-44057500D03*
X224787500Y-41707500D03*
%TD*%
D25*
%TO.C,Y1*%
X43408750Y-52017500D03*
X44608750Y-52017500D03*
X45808750Y-52017500D03*
%TD*%
D18*
%TO.C,C3*%
X64412500Y-22582500D03*
X64412500Y-23542500D03*
%TD*%
D19*
%TO.C,C79*%
X195825000Y-76818750D03*
X194865000Y-76818750D03*
%TD*%
D16*
%TO.C,U41*%
X119379999Y-61912500D03*
X109220001Y-61912500D03*
D17*
X113350000Y-60757500D03*
X114300000Y-63107500D03*
X115250000Y-60757500D03*
%TD*%
D18*
%TO.C,C36*%
X116800000Y-60682500D03*
X116800000Y-61642500D03*
%TD*%
D23*
%TO.C,J9*%
X129530000Y-92392500D03*
D24*
X126990000Y-92392500D03*
X124450000Y-92392500D03*
X121910000Y-92392500D03*
%TD*%
D18*
%TO.C,C49*%
X88225000Y-79732500D03*
X88225000Y-80692500D03*
%TD*%
D19*
%TO.C,R2*%
X80291875Y-38671875D03*
X81251875Y-38671875D03*
%TD*%
D18*
%TO.C,C137*%
X149900000Y-60682500D03*
X149900000Y-61642500D03*
%TD*%
%TO.C,C77*%
X204225000Y-76018750D03*
X204225000Y-76978750D03*
%TD*%
D16*
%TO.C,U30*%
X190817499Y-42862500D03*
X180657501Y-42862500D03*
D17*
X184787500Y-41707500D03*
X185737500Y-44057500D03*
X186687500Y-41707500D03*
%TD*%
D18*
%TO.C,C123*%
X145137500Y-41632500D03*
X145137500Y-42592500D03*
%TD*%
D16*
%TO.C,U38*%
X62229999Y-61912500D03*
X52070001Y-61912500D03*
D17*
X56200000Y-60757500D03*
X57150000Y-63107500D03*
X58100000Y-60757500D03*
%TD*%
D18*
%TO.C,C153*%
X178475000Y-79732500D03*
X178475000Y-80692500D03*
%TD*%
D21*
%TO.C,U79*%
X138112500Y-106997500D03*
D22*
X138112500Y-91757500D03*
D16*
X124142500Y-100012500D03*
X113982500Y-100012500D03*
D21*
X100012500Y-106997500D03*
D22*
X100012500Y-91757500D03*
D17*
X118112500Y-98857500D03*
X119062500Y-101207500D03*
X120012500Y-98857500D03*
%TD*%
D18*
%TO.C,C145*%
X33218750Y-79732500D03*
X33218750Y-80692500D03*
%TD*%
%TO.C,C13*%
X254912500Y-22582500D03*
X254912500Y-23542500D03*
%TD*%
%TO.C,C58*%
X266818750Y-79732500D03*
X266818750Y-80692500D03*
%TD*%
%TO.C,C124*%
X164187500Y-41632500D03*
X164187500Y-42592500D03*
%TD*%
D16*
%TO.C,U8*%
X66992499Y-23812500D03*
X56832501Y-23812500D03*
D17*
X60962500Y-22657500D03*
X61912500Y-25007500D03*
X62862500Y-22657500D03*
%TD*%
D18*
%TO.C,C142*%
X245150000Y-60682500D03*
X245150000Y-61642500D03*
%TD*%
D16*
%TO.C,U65*%
X295592499Y-80962500D03*
X285432501Y-80962500D03*
D17*
X289562500Y-79807500D03*
X290512500Y-82157500D03*
X291462500Y-79807500D03*
%TD*%
D16*
%TO.C,U57*%
X128904999Y-80962500D03*
X118745001Y-80962500D03*
D17*
X122875000Y-79807500D03*
X123825000Y-82157500D03*
X124775000Y-79807500D03*
%TD*%
D16*
%TO.C,U84*%
X162242499Y-100012500D03*
X152082501Y-100012500D03*
D17*
X156212500Y-98857500D03*
X157162500Y-101207500D03*
X158112500Y-98857500D03*
%TD*%
D18*
%TO.C,C91*%
X121562500Y-98782500D03*
X121562500Y-99742500D03*
%TD*%
D16*
%TO.C,U60*%
X186054999Y-80962500D03*
X175895001Y-80962500D03*
D17*
X180025000Y-79807500D03*
X180975000Y-82157500D03*
X181925000Y-79807500D03*
%TD*%
D18*
%TO.C,C115*%
X278487500Y-22582500D03*
X278487500Y-23542500D03*
%TD*%
%TO.C,C15*%
X293012500Y-22582500D03*
X293012500Y-23542500D03*
%TD*%
%TO.C,C82*%
X195225000Y-72998750D03*
X195225000Y-73958750D03*
%TD*%
%TO.C,C95*%
X264437500Y-98782500D03*
X264437500Y-99742500D03*
%TD*%
%TO.C,C59*%
X293012500Y-79732500D03*
X293012500Y-80692500D03*
%TD*%
%TO.C,C76*%
X119025000Y-72998750D03*
X119025000Y-73958750D03*
%TD*%
%TO.C,C83*%
X254095000Y-50568750D03*
X254095000Y-49608750D03*
%TD*%
%TO.C,C69*%
X60875000Y-72998750D03*
X60875000Y-73958750D03*
%TD*%
%TO.C,C125*%
X183237500Y-41632500D03*
X183237500Y-42592500D03*
%TD*%
%TO.C,C116*%
X288012500Y-22582500D03*
X288012500Y-23542500D03*
%TD*%
%TO.C,C81*%
X194225000Y-72998750D03*
X194225000Y-73958750D03*
%TD*%
%TO.C,C17*%
X31075000Y-41632500D03*
X31075000Y-42592500D03*
%TD*%
D16*
%TO.C,U62*%
X224154999Y-80962500D03*
X213995001Y-80962500D03*
D17*
X218125000Y-79807500D03*
X219075000Y-82157500D03*
X220025000Y-79807500D03*
%TD*%
D19*
%TO.C,C84*%
X261375000Y-52768750D03*
X262335000Y-52768750D03*
%TD*%
D18*
%TO.C,C35*%
X97750000Y-60682500D03*
X97750000Y-61642500D03*
%TD*%
%TO.C,C131*%
X28456250Y-60682500D03*
X28456250Y-61642500D03*
%TD*%
%TO.C,C34*%
X78700000Y-60682500D03*
X78700000Y-61642500D03*
%TD*%
D23*
%TO.C,J4*%
X72380000Y-89852500D03*
D24*
X69840000Y-89852500D03*
X67300000Y-89852500D03*
X64760000Y-89852500D03*
%TD*%
D18*
%TO.C,C155*%
X216575000Y-79732500D03*
X216575000Y-80692500D03*
%TD*%
D26*
%TO.C,U5*%
X260125000Y-52568750D03*
X260125000Y-52968750D03*
X260125000Y-53368750D03*
X260125000Y-53768750D03*
X260125000Y-54168750D03*
X260125000Y-54568750D03*
X260125000Y-54968750D03*
X260125000Y-55368750D03*
X260125000Y-55768750D03*
X260125000Y-56168750D03*
X260125000Y-56568750D03*
X260125000Y-56968750D03*
D27*
X259375000Y-57718750D03*
X258975000Y-57718750D03*
X258575000Y-57718750D03*
X258175000Y-57718750D03*
X257775000Y-57718750D03*
X257375000Y-57718750D03*
X256975000Y-57718750D03*
X256575000Y-57718750D03*
X256175000Y-57718750D03*
X255775000Y-57718750D03*
X255375000Y-57718750D03*
X254975000Y-57718750D03*
D26*
X254225000Y-56968750D03*
X254225000Y-56568750D03*
X254225000Y-56168750D03*
X254225000Y-55768750D03*
X254225000Y-55368750D03*
X254225000Y-54968750D03*
X254225000Y-54568750D03*
X254225000Y-54168750D03*
X254225000Y-53768750D03*
X254225000Y-53368750D03*
X254225000Y-52968750D03*
X254225000Y-52568750D03*
D27*
X254975000Y-51818750D03*
X255375000Y-51818750D03*
X255775000Y-51818750D03*
X256175000Y-51818750D03*
X256575000Y-51818750D03*
X256975000Y-51818750D03*
X257375000Y-51818750D03*
X257775000Y-51818750D03*
X258175000Y-51818750D03*
X258575000Y-51818750D03*
X258975000Y-51818750D03*
X259375000Y-51818750D03*
D28*
X257175000Y-54768750D03*
%TD*%
D18*
%TO.C,C24*%
X169187500Y-41632500D03*
X169187500Y-42592500D03*
%TD*%
%TO.C,C106*%
X116562500Y-22582500D03*
X116562500Y-23542500D03*
%TD*%
%TO.C,C63*%
X54887500Y-98782500D03*
X54887500Y-99742500D03*
%TD*%
%TO.C,C93*%
X197762500Y-98782500D03*
X197762500Y-99742500D03*
%TD*%
%TO.C,C156*%
X235625000Y-79732500D03*
X235625000Y-80692500D03*
%TD*%
%TO.C,C127*%
X221337500Y-41632500D03*
X221337500Y-42592500D03*
%TD*%
D29*
%TO.C,U88*%
X80646875Y-41421875D03*
D30*
X80471875Y-41921875D03*
D29*
X80646875Y-42421875D03*
D30*
X79071875Y-42421875D03*
D29*
X78896875Y-41921875D03*
D30*
X79071875Y-41421875D03*
D31*
X79021875Y-40746875D03*
X79521875Y-40746875D03*
X80021875Y-40746875D03*
X80521875Y-40746875D03*
%TD*%
D18*
%TO.C,C6*%
X121562500Y-22582500D03*
X121562500Y-23542500D03*
%TD*%
D32*
%TO.C,U3*%
X120875000Y-76018750D03*
X120875000Y-75618750D03*
X120875000Y-75218750D03*
X120875000Y-74818750D03*
X120875000Y-74418750D03*
X120875000Y-74018750D03*
X120875000Y-73618750D03*
X120875000Y-73218750D03*
X120875000Y-72818750D03*
X120875000Y-72418750D03*
X120875000Y-72018750D03*
X120875000Y-71618750D03*
D33*
X121625000Y-70868750D03*
X122025000Y-70868750D03*
X122425000Y-70868750D03*
X122825000Y-70868750D03*
X123225000Y-70868750D03*
X123625000Y-70868750D03*
X124025000Y-70868750D03*
X124425000Y-70868750D03*
X124825000Y-70868750D03*
X125225000Y-70868750D03*
X125625000Y-70868750D03*
X126025000Y-70868750D03*
D32*
X126775000Y-71618750D03*
X126775000Y-72018750D03*
X126775000Y-72418750D03*
X126775000Y-72818750D03*
X126775000Y-73218750D03*
X126775000Y-73618750D03*
X126775000Y-74018750D03*
X126775000Y-74418750D03*
X126775000Y-74818750D03*
X126775000Y-75218750D03*
X126775000Y-75618750D03*
X126775000Y-76018750D03*
D33*
X126025000Y-76768750D03*
X125625000Y-76768750D03*
X125225000Y-76768750D03*
X124825000Y-76768750D03*
X124425000Y-76768750D03*
X124025000Y-76768750D03*
X123625000Y-76768750D03*
X123225000Y-76768750D03*
X122825000Y-76768750D03*
X122425000Y-76768750D03*
X122025000Y-76768750D03*
X121625000Y-76768750D03*
D28*
X123825000Y-73818750D03*
%TD*%
D19*
%TO.C,C68*%
X69395000Y-69618750D03*
X70355000Y-69618750D03*
%TD*%
D18*
%TO.C,C18*%
X54887500Y-41632500D03*
X54887500Y-42592500D03*
%TD*%
D19*
%TO.C,C86*%
X254455000Y-58968750D03*
X253495000Y-58968750D03*
%TD*%
D18*
%TO.C,C54*%
X183475000Y-79732500D03*
X183475000Y-80692500D03*
%TD*%
D16*
%TO.C,U20*%
X295592499Y-23812500D03*
X285432501Y-23812500D03*
D17*
X289562500Y-22657500D03*
X290512500Y-25007500D03*
X291462500Y-22657500D03*
%TD*%
D18*
%TO.C,C164*%
X192762500Y-98782500D03*
X192762500Y-99742500D03*
%TD*%
D16*
%TO.C,U44*%
X176529999Y-61912500D03*
X166370001Y-61912500D03*
D17*
X170500000Y-60757500D03*
X171450000Y-63107500D03*
X172400000Y-60757500D03*
%TD*%
D18*
%TO.C,C41*%
X212050000Y-60682500D03*
X212050000Y-61642500D03*
%TD*%
D16*
%TO.C,U28*%
X152717499Y-42862500D03*
X142557501Y-42862500D03*
D17*
X146687500Y-41707500D03*
X147637500Y-44057500D03*
X148587500Y-41707500D03*
%TD*%
D16*
%TO.C,U46*%
X214629999Y-61912500D03*
X204470001Y-61912500D03*
D17*
X208600000Y-60757500D03*
X209550000Y-63107500D03*
X210500000Y-60757500D03*
%TD*%
D18*
%TO.C,C92*%
X159662500Y-98782500D03*
X159662500Y-99742500D03*
%TD*%
%TO.C,C109*%
X173712500Y-22582500D03*
X173712500Y-23542500D03*
%TD*%
%TO.C,C139*%
X188000000Y-60682500D03*
X188000000Y-61642500D03*
%TD*%
D16*
%TO.C,U9*%
X86042499Y-23812500D03*
X75882501Y-23812500D03*
D17*
X80012500Y-22657500D03*
X80962500Y-25007500D03*
X81912500Y-22657500D03*
%TD*%
D16*
%TO.C,U22*%
X33655000Y-42862500D03*
X23495000Y-42862500D03*
D17*
X27625000Y-41707500D03*
X28575000Y-44057500D03*
X29525000Y-41707500D03*
%TD*%
D16*
%TO.C,U10*%
X105092499Y-23812500D03*
X94932501Y-23812500D03*
D17*
X99062500Y-22657500D03*
X100012500Y-25007500D03*
X100962500Y-22657500D03*
%TD*%
D16*
%TO.C,U33*%
X247967499Y-42862500D03*
X237807501Y-42862500D03*
D17*
X241937500Y-41707500D03*
X242887500Y-44057500D03*
X243837500Y-41707500D03*
%TD*%
D23*
%TO.C,J10*%
X205730000Y-92392500D03*
D24*
X203190000Y-92392500D03*
X200650000Y-92392500D03*
X198110000Y-92392500D03*
%TD*%
D18*
%TO.C,C71*%
X128025000Y-76018750D03*
X128025000Y-76978750D03*
%TD*%
D22*
%TO.C,U51*%
X47625001Y-72707500D03*
D21*
X47625000Y-87947500D03*
D16*
X40798749Y-80962500D03*
X30638751Y-80962500D03*
D21*
X23812500Y-87947500D03*
D22*
X23812499Y-72707500D03*
D17*
X34768750Y-79807500D03*
X35718750Y-82157500D03*
X36668750Y-79807500D03*
%TD*%
D18*
%TO.C,C65*%
X70875000Y-76012500D03*
X70875000Y-76972500D03*
%TD*%
%TO.C,C64*%
X78700000Y-98782500D03*
X78700000Y-99742500D03*
%TD*%
D16*
%TO.C,U18*%
X257492499Y-23812500D03*
X247332501Y-23812500D03*
D17*
X251462500Y-22657500D03*
X252412500Y-25007500D03*
X253362500Y-22657500D03*
%TD*%
D18*
%TO.C,C1*%
X26312500Y-22582500D03*
X26312500Y-23542500D03*
%TD*%
D16*
%TO.C,U7*%
X47942499Y-23812500D03*
X37782501Y-23812500D03*
D17*
X41912500Y-22657500D03*
X42862500Y-25007500D03*
X43812500Y-22657500D03*
%TD*%
D18*
%TO.C,C148*%
X83225000Y-79732500D03*
X83225000Y-80692500D03*
%TD*%
D16*
%TO.C,U64*%
X269398750Y-80962500D03*
X259238750Y-80962500D03*
D17*
X263368750Y-79807500D03*
X264318750Y-82157500D03*
X265268750Y-79807500D03*
%TD*%
D16*
%TO.C,U15*%
X200342499Y-23812500D03*
X190182501Y-23812500D03*
D17*
X194312500Y-22657500D03*
X195262500Y-25007500D03*
X196212500Y-22657500D03*
%TD*%
D19*
%TO.C,C85*%
X261375000Y-51768750D03*
X262335000Y-51768750D03*
%TD*%
D18*
%TO.C,C46*%
X38218750Y-79732500D03*
X38218750Y-80692500D03*
%TD*%
D32*
%TO.C,U2*%
X63725000Y-76018750D03*
X63725000Y-75618750D03*
X63725000Y-75218750D03*
X63725000Y-74818750D03*
X63725000Y-74418750D03*
X63725000Y-74018750D03*
X63725000Y-73618750D03*
X63725000Y-73218750D03*
X63725000Y-72818750D03*
X63725000Y-72418750D03*
X63725000Y-72018750D03*
X63725000Y-71618750D03*
D33*
X64475000Y-70868750D03*
X64875000Y-70868750D03*
X65275000Y-70868750D03*
X65675000Y-70868750D03*
X66075000Y-70868750D03*
X66475000Y-70868750D03*
X66875000Y-70868750D03*
X67275000Y-70868750D03*
X67675000Y-70868750D03*
X68075000Y-70868750D03*
X68475000Y-70868750D03*
X68875000Y-70868750D03*
D32*
X69625000Y-71618750D03*
X69625000Y-72018750D03*
X69625000Y-72418750D03*
X69625000Y-72818750D03*
X69625000Y-73218750D03*
X69625000Y-73618750D03*
X69625000Y-74018750D03*
X69625000Y-74418750D03*
X69625000Y-74818750D03*
X69625000Y-75218750D03*
X69625000Y-75618750D03*
X69625000Y-76018750D03*
D33*
X68875000Y-76768750D03*
X68475000Y-76768750D03*
X68075000Y-76768750D03*
X67675000Y-76768750D03*
X67275000Y-76768750D03*
X66875000Y-76768750D03*
X66475000Y-76768750D03*
X66075000Y-76768750D03*
X65675000Y-76768750D03*
X65275000Y-76768750D03*
X64875000Y-76768750D03*
X64475000Y-76768750D03*
D28*
X66675000Y-73818750D03*
%TD*%
D20*
%TO.C,C175*%
X80521875Y-46471875D03*
X79021875Y-46471875D03*
%TD*%
D16*
%TO.C,U43*%
X157479999Y-61912500D03*
X147320001Y-61912500D03*
D17*
X151450000Y-60757500D03*
X152400000Y-63107500D03*
X153350000Y-60757500D03*
%TD*%
D18*
%TO.C,C14*%
X273962500Y-22582500D03*
X273962500Y-23542500D03*
%TD*%
D16*
%TO.C,U29*%
X171767499Y-42862500D03*
X161607501Y-42862500D03*
D17*
X165737500Y-41707500D03*
X166687500Y-44057500D03*
X167637500Y-41707500D03*
%TD*%
D16*
%TO.C,U45*%
X195579999Y-61912500D03*
X185420001Y-61912500D03*
D17*
X189550000Y-60757500D03*
X190500000Y-63107500D03*
X191450000Y-60757500D03*
%TD*%
D18*
%TO.C,C89*%
X41808750Y-50897500D03*
X41808750Y-49937500D03*
%TD*%
D16*
%TO.C,U36*%
X36036250Y-61912500D03*
X25876250Y-61912500D03*
D17*
X30006250Y-60757500D03*
X30956250Y-63107500D03*
X31906250Y-60757500D03*
%TD*%
D18*
%TO.C,C121*%
X107037500Y-41632500D03*
X107037500Y-42592500D03*
%TD*%
%TO.C,C40*%
X193000000Y-60682500D03*
X193000000Y-61642500D03*
%TD*%
%TO.C,C87*%
X262975000Y-55588750D03*
X262975000Y-54628750D03*
%TD*%
D16*
%TO.C,U19*%
X276542499Y-23812500D03*
X266382501Y-23812500D03*
D17*
X270512500Y-22657500D03*
X271462500Y-25007500D03*
X272412500Y-22657500D03*
%TD*%
D18*
%TO.C,C130*%
X283250000Y-41632500D03*
X283250000Y-42592500D03*
%TD*%
%TO.C,C12*%
X235862500Y-22582500D03*
X235862500Y-23542500D03*
%TD*%
D23*
%TO.C,J3*%
X36681250Y-45243750D03*
D24*
X39221250Y-45243750D03*
X41761250Y-45243750D03*
X44301250Y-45243750D03*
%TD*%
D16*
%TO.C,U54*%
X71754999Y-80962500D03*
X61595001Y-80962500D03*
D17*
X65725000Y-79807500D03*
X66675000Y-82157500D03*
X67625000Y-79807500D03*
%TD*%
D18*
%TO.C,C107*%
X135612500Y-22582500D03*
X135612500Y-23542500D03*
%TD*%
%TO.C,C38*%
X154900000Y-60682500D03*
X154900000Y-61642500D03*
%TD*%
D16*
%TO.C,U31*%
X209867499Y-42862500D03*
X199707501Y-42862500D03*
D17*
X203837500Y-41707500D03*
X204787500Y-44057500D03*
X205737500Y-41707500D03*
%TD*%
D16*
%TO.C,U26*%
X114617499Y-42862500D03*
X104457501Y-42862500D03*
D17*
X108587500Y-41707500D03*
X109537500Y-44057500D03*
X110487500Y-41707500D03*
%TD*%
D16*
%TO.C,U6*%
X28892499Y-23812500D03*
X18732501Y-23812500D03*
D17*
X22862500Y-22657500D03*
X23812500Y-25007500D03*
X24762500Y-22657500D03*
%TD*%
D18*
%TO.C,C119*%
X68937500Y-41632500D03*
X68937500Y-42592500D03*
%TD*%
D16*
%TO.C,U55*%
X90804999Y-80962500D03*
X80645001Y-80962500D03*
D17*
X84775000Y-79807500D03*
X85725000Y-82157500D03*
X86675000Y-79807500D03*
%TD*%
D18*
%TO.C,C42*%
X231100000Y-60682500D03*
X231100000Y-61642500D03*
%TD*%
D23*
%TO.C,J8*%
X72380000Y-92392500D03*
D24*
X69840000Y-92392500D03*
X67300000Y-92392500D03*
X64760000Y-92392500D03*
%TD*%
D18*
%TO.C,C110*%
X192762500Y-22582500D03*
X192762500Y-23542500D03*
%TD*%
D19*
%TO.C,R1*%
X36688750Y-51817500D03*
X35728750Y-51817500D03*
%TD*%
D18*
%TO.C,C157*%
X261818750Y-79732500D03*
X261818750Y-80692500D03*
%TD*%
%TO.C,C88*%
X261975000Y-55588750D03*
X261975000Y-54628750D03*
%TD*%
%TO.C,C132*%
X54650000Y-60682500D03*
X54650000Y-61642500D03*
%TD*%
D23*
%TO.C,J7*%
X236405000Y-52018750D03*
D24*
X233865000Y-52018750D03*
X231325000Y-52018750D03*
X228785000Y-52018750D03*
%TD*%
D18*
%TO.C,C55*%
X202525000Y-79732500D03*
X202525000Y-80692500D03*
%TD*%
%TO.C,C172*%
X79271875Y-38691875D03*
X79271875Y-39651875D03*
%TD*%
%TO.C,C150*%
X121325000Y-79732500D03*
X121325000Y-80692500D03*
%TD*%
%TO.C,C51*%
X126325000Y-79732500D03*
X126325000Y-80692500D03*
%TD*%
%TO.C,C152*%
X159425000Y-79732500D03*
X159425000Y-80692500D03*
%TD*%
D32*
%TO.C,U4*%
X197075000Y-76018750D03*
X197075000Y-75618750D03*
X197075000Y-75218750D03*
X197075000Y-74818750D03*
X197075000Y-74418750D03*
X197075000Y-74018750D03*
X197075000Y-73618750D03*
X197075000Y-73218750D03*
X197075000Y-72818750D03*
X197075000Y-72418750D03*
X197075000Y-72018750D03*
X197075000Y-71618750D03*
D33*
X197825000Y-70868750D03*
X198225000Y-70868750D03*
X198625000Y-70868750D03*
X199025000Y-70868750D03*
X199425000Y-70868750D03*
X199825000Y-70868750D03*
X200225000Y-70868750D03*
X200625000Y-70868750D03*
X201025000Y-70868750D03*
X201425000Y-70868750D03*
X201825000Y-70868750D03*
X202225000Y-70868750D03*
D32*
X202975000Y-71618750D03*
X202975000Y-72018750D03*
X202975000Y-72418750D03*
X202975000Y-72818750D03*
X202975000Y-73218750D03*
X202975000Y-73618750D03*
X202975000Y-74018750D03*
X202975000Y-74418750D03*
X202975000Y-74818750D03*
X202975000Y-75218750D03*
X202975000Y-75618750D03*
X202975000Y-76018750D03*
D33*
X202225000Y-76768750D03*
X201825000Y-76768750D03*
X201425000Y-76768750D03*
X201025000Y-76768750D03*
X200625000Y-76768750D03*
X200225000Y-76768750D03*
X199825000Y-76768750D03*
X199425000Y-76768750D03*
X199025000Y-76768750D03*
X198625000Y-76768750D03*
X198225000Y-76768750D03*
X197825000Y-76768750D03*
D28*
X200025000Y-73818750D03*
%TD*%
D20*
%TO.C,C174*%
X80521875Y-45071875D03*
X79021875Y-45071875D03*
%TD*%
D16*
%TO.C,U16*%
X219392499Y-23812500D03*
X209232501Y-23812500D03*
D17*
X213362500Y-22657500D03*
X214312500Y-25007500D03*
X215262500Y-22657500D03*
%TD*%
D16*
%TO.C,U77*%
X57467499Y-100012500D03*
X47307501Y-100012500D03*
D17*
X51437500Y-98857500D03*
X52387500Y-101207500D03*
X53337500Y-98857500D03*
%TD*%
D23*
%TO.C,J6*%
X205730000Y-89852500D03*
D24*
X203190000Y-89852500D03*
X200650000Y-89852500D03*
X198110000Y-89852500D03*
%TD*%
D19*
%TO.C,C66*%
X62475000Y-75818750D03*
X61515000Y-75818750D03*
%TD*%
D18*
%TO.C,C32*%
X33456250Y-60682500D03*
X33456250Y-61642500D03*
%TD*%
D16*
%TO.C,U81*%
X243205000Y-100012500D03*
X233045000Y-100012500D03*
D17*
X237175000Y-98857500D03*
X238125000Y-101207500D03*
X239075000Y-98857500D03*
%TD*%
D16*
%TO.C,U27*%
X133667499Y-42862500D03*
X123507501Y-42862500D03*
D17*
X127637500Y-41707500D03*
X128587500Y-44057500D03*
X129537500Y-41707500D03*
%TD*%
D18*
%TO.C,C52*%
X145375000Y-79732500D03*
X145375000Y-80692500D03*
%TD*%
%TO.C,C10*%
X197762500Y-22582500D03*
X197762500Y-23542500D03*
%TD*%
D16*
%TO.C,U56*%
X109854999Y-80962500D03*
X99695001Y-80962500D03*
D17*
X103825000Y-79807500D03*
X104775000Y-82157500D03*
X105725000Y-79807500D03*
%TD*%
D19*
%TO.C,C73*%
X119625000Y-76818750D03*
X118665000Y-76818750D03*
%TD*%
D18*
%TO.C,C105*%
X97512500Y-22582500D03*
X97512500Y-23542500D03*
%TD*%
D19*
%TO.C,C171*%
X77651875Y-40671875D03*
X76691875Y-40671875D03*
%TD*%
D18*
%TO.C,C166*%
X259437500Y-98782500D03*
X259437500Y-99742500D03*
%TD*%
%TO.C,C122*%
X126087500Y-41632500D03*
X126087500Y-42592500D03*
%TD*%
%TO.C,C9*%
X178712500Y-22582500D03*
X178712500Y-23542500D03*
%TD*%
D16*
%TO.C,U63*%
X243204999Y-80962500D03*
X233045001Y-80962500D03*
D17*
X237175000Y-79807500D03*
X238125000Y-82157500D03*
X239075000Y-79807500D03*
%TD*%
D19*
%TO.C,R3*%
X80291875Y-39671875D03*
X81251875Y-39671875D03*
%TD*%
D18*
%TO.C,C112*%
X230862500Y-22582500D03*
X230862500Y-23542500D03*
%TD*%
%TO.C,C56*%
X221575000Y-79732500D03*
X221575000Y-80692500D03*
%TD*%
%TO.C,C75*%
X118025000Y-72998750D03*
X118025000Y-73958750D03*
%TD*%
%TO.C,C154*%
X197525000Y-79732500D03*
X197525000Y-80692500D03*
%TD*%
%TO.C,C28*%
X245387500Y-41632500D03*
X245387500Y-42592500D03*
%TD*%
D16*
%TO.C,U48*%
X252729999Y-61912500D03*
X242570001Y-61912500D03*
D17*
X246700000Y-60757500D03*
X247650000Y-63107500D03*
X248600000Y-60757500D03*
%TD*%
D18*
%TO.C,C7*%
X140612500Y-22582500D03*
X140612500Y-23542500D03*
%TD*%
D16*
%TO.C,U40*%
X100329999Y-61912500D03*
X90170001Y-61912500D03*
D17*
X94300000Y-60757500D03*
X95250000Y-63107500D03*
X96200000Y-60757500D03*
%TD*%
D16*
%TO.C,U35*%
X290830000Y-42862500D03*
X280670000Y-42862500D03*
D17*
X284800000Y-41707500D03*
X285750000Y-44057500D03*
X286700000Y-41707500D03*
%TD*%
D18*
%TO.C,C26*%
X207287500Y-41632500D03*
X207287500Y-42592500D03*
%TD*%
D16*
%TO.C,U59*%
X167004999Y-80962500D03*
X156845001Y-80962500D03*
D17*
X160975000Y-79807500D03*
X161925000Y-82157500D03*
X162875000Y-79807500D03*
%TD*%
D22*
%TO.C,U49*%
X290512500Y-70167500D03*
D21*
X290512500Y-54927500D03*
D16*
X283686250Y-61912500D03*
X273526250Y-61912500D03*
D22*
X266700000Y-70167500D03*
D21*
X266700000Y-54927500D03*
D17*
X277656250Y-60757500D03*
X278606250Y-63107500D03*
X279556250Y-60757500D03*
%TD*%
D18*
%TO.C,C33*%
X59650000Y-60682500D03*
X59650000Y-61642500D03*
%TD*%
%TO.C,C118*%
X49887500Y-41632500D03*
X49887500Y-42592500D03*
%TD*%
%TO.C,C21*%
X112037500Y-41632500D03*
X112037500Y-42592500D03*
%TD*%
D16*
%TO.C,U24*%
X76517499Y-42862500D03*
X66357501Y-42862500D03*
D17*
X70487500Y-41707500D03*
X71437500Y-44057500D03*
X72387500Y-41707500D03*
%TD*%
D18*
%TO.C,C50*%
X107275000Y-79732500D03*
X107275000Y-80692500D03*
%TD*%
D16*
%TO.C,U47*%
X233679999Y-61912500D03*
X223520001Y-61912500D03*
D17*
X227650000Y-60757500D03*
X228600000Y-63107500D03*
X229550000Y-60757500D03*
%TD*%
D16*
%TO.C,U39*%
X81279999Y-61912500D03*
X71120001Y-61912500D03*
D17*
X75250000Y-60757500D03*
X76200000Y-63107500D03*
X77150000Y-60757500D03*
%TD*%
D18*
%TO.C,C22*%
X131087500Y-41632500D03*
X131087500Y-42592500D03*
%TD*%
%TO.C,C143*%
X276106250Y-60682500D03*
X276106250Y-61642500D03*
%TD*%
%TO.C,C134*%
X92750000Y-60682500D03*
X92750000Y-61642500D03*
%TD*%
%TO.C,C11*%
X216812500Y-22582500D03*
X216812500Y-23542500D03*
%TD*%
%TO.C,C53*%
X164425000Y-79732500D03*
X164425000Y-80692500D03*
%TD*%
%TO.C,C149*%
X102275000Y-79732500D03*
X102275000Y-80692500D03*
%TD*%
D16*
%TO.C,U23*%
X57467499Y-42862500D03*
X47307501Y-42862500D03*
D17*
X51437500Y-41707500D03*
X52387500Y-44057500D03*
X53337500Y-41707500D03*
%TD*%
D19*
%TO.C,C72*%
X119625000Y-75818750D03*
X118665000Y-75818750D03*
%TD*%
%TO.C,C78*%
X195825000Y-75818750D03*
X194865000Y-75818750D03*
%TD*%
D18*
%TO.C,C70*%
X61875000Y-72998750D03*
X61875000Y-73958750D03*
%TD*%
%TO.C,C138*%
X168950000Y-60682500D03*
X168950000Y-61642500D03*
%TD*%
%TO.C,C133*%
X73700000Y-60682500D03*
X73700000Y-61642500D03*
%TD*%
D16*
%TO.C,U34*%
X267017499Y-42862500D03*
X256857501Y-42862500D03*
D17*
X260987500Y-41707500D03*
X261937500Y-44057500D03*
X262887500Y-41707500D03*
%TD*%
D18*
%TO.C,C23*%
X150137500Y-41632500D03*
X150137500Y-42592500D03*
%TD*%
D34*
%TO.C,J1*%
X42400913Y-29016426D03*
X42400913Y-34616426D03*
D35*
X38525913Y-30316426D03*
X38525913Y-31316426D03*
X38525913Y-32316426D03*
X38525913Y-33316426D03*
%TD*%
D16*
%TO.C,U14*%
X181292499Y-23812500D03*
X171132501Y-23812500D03*
D17*
X175262500Y-22657500D03*
X176212500Y-25007500D03*
X177162500Y-22657500D03*
%TD*%
D18*
%TO.C,C126*%
X202287500Y-41632500D03*
X202287500Y-42592500D03*
%TD*%
%TO.C,C129*%
X259437500Y-41632500D03*
X259437500Y-42592500D03*
%TD*%
%TO.C,C113*%
X249912500Y-22582500D03*
X249912500Y-23542500D03*
%TD*%
%TO.C,C111*%
X211812500Y-22582500D03*
X211812500Y-23542500D03*
%TD*%
D16*
%TO.C,U17*%
X238442499Y-23812500D03*
X228282501Y-23812500D03*
D17*
X232412500Y-22657500D03*
X233362500Y-25007500D03*
X234312500Y-22657500D03*
%TD*%
D36*
%TO.C,L1*%
X82571875Y-41871875D03*
X82571875Y-44371875D03*
%TD*%
D16*
%TO.C,U13*%
X162242499Y-23812500D03*
X152082501Y-23812500D03*
D17*
X156212500Y-22657500D03*
X157162500Y-25007500D03*
X158112500Y-22657500D03*
%TD*%
D18*
%TO.C,C2*%
X45362500Y-22582500D03*
X45362500Y-23542500D03*
%TD*%
D19*
%TO.C,C80*%
X202745000Y-69618750D03*
X203705000Y-69618750D03*
%TD*%
D18*
%TO.C,C57*%
X240625000Y-79732500D03*
X240625000Y-80692500D03*
%TD*%
%TO.C,C4*%
X83462500Y-22582500D03*
X83462500Y-23542500D03*
%TD*%
D37*
%TO.C,U87*%
X38008750Y-48592500D03*
X38408750Y-48592500D03*
X38808750Y-48592500D03*
X39208750Y-48592500D03*
D38*
X38608750Y-49217500D03*
D37*
X39208750Y-49842500D03*
X38808750Y-49842500D03*
X38408750Y-49842500D03*
X38008750Y-49842500D03*
%TD*%
D18*
%TO.C,C136*%
X130850000Y-60682500D03*
X130850000Y-61642500D03*
%TD*%
%TO.C,C163*%
X154662500Y-98782500D03*
X154662500Y-99742500D03*
%TD*%
%TO.C,C44*%
X281106250Y-60682500D03*
X281106250Y-61642500D03*
%TD*%
D20*
%TO.C,C173*%
X80521875Y-43671875D03*
X79021875Y-43671875D03*
%TD*%
D18*
%TO.C,C158*%
X288012500Y-79732500D03*
X288012500Y-80692500D03*
%TD*%
D39*
%TO.C,U1*%
X41758750Y-52617500D03*
D40*
X41758750Y-53017500D03*
X41758750Y-53417500D03*
X41758750Y-53817500D03*
X41758750Y-54217500D03*
X41758750Y-54617500D03*
X41758750Y-55017500D03*
D41*
X41758750Y-55417500D03*
D42*
X41208750Y-55967500D03*
D43*
X40808750Y-55967500D03*
X40408750Y-55967500D03*
X40008750Y-55967500D03*
X39608750Y-55967500D03*
X39208750Y-55967500D03*
X38808750Y-55967500D03*
D44*
X38408750Y-55967500D03*
D45*
X37858750Y-55417500D03*
D40*
X37858750Y-55017500D03*
X37858750Y-54617500D03*
X37858750Y-54217500D03*
X37858750Y-53817500D03*
X37858750Y-53417500D03*
X37858750Y-53017500D03*
D46*
X37858750Y-52617500D03*
D47*
X38408750Y-52067500D03*
D43*
X38808750Y-52067500D03*
X39208750Y-52067500D03*
X39608750Y-52067500D03*
X40008750Y-52067500D03*
X40408750Y-52067500D03*
X40808750Y-52067500D03*
D48*
X41208750Y-52067500D03*
D49*
X39808750Y-54017500D03*
%TD*%
D18*
%TO.C,C103*%
X59412500Y-22582500D03*
X59412500Y-23542500D03*
%TD*%
%TO.C,C102*%
X40362500Y-22582500D03*
X40362500Y-23542500D03*
%TD*%
%TO.C,C30*%
X288250000Y-41632500D03*
X288250000Y-42592500D03*
%TD*%
%TO.C,C135*%
X111800000Y-60682500D03*
X111800000Y-61642500D03*
%TD*%
%TO.C,C19*%
X73937500Y-41632500D03*
X73937500Y-42592500D03*
%TD*%
D19*
%TO.C,C74*%
X126545000Y-69618750D03*
X127505000Y-69618750D03*
%TD*%
D20*
%TO.C,C169*%
X77921875Y-38071875D03*
X76421875Y-38071875D03*
%TD*%
D16*
%TO.C,U61*%
X205104999Y-80962500D03*
X194945001Y-80962500D03*
D17*
X199075000Y-79807500D03*
X200025000Y-82157500D03*
X200975000Y-79807500D03*
%TD*%
D16*
%TO.C,U12*%
X143192499Y-23812500D03*
X133032501Y-23812500D03*
D17*
X137162500Y-22657500D03*
X138112500Y-25007500D03*
X139062500Y-22657500D03*
%TD*%
D18*
%TO.C,C27*%
X226337500Y-41632500D03*
X226337500Y-42592500D03*
%TD*%
D19*
%TO.C,C90*%
X36688750Y-54017500D03*
X35728750Y-54017500D03*
%TD*%
D18*
%TO.C,C94*%
X240625000Y-98782500D03*
X240625000Y-99742500D03*
%TD*%
%TO.C,C114*%
X268962500Y-22582500D03*
X268962500Y-23542500D03*
%TD*%
D16*
%TO.C,U82*%
X267017499Y-100012500D03*
X256857501Y-100012500D03*
D17*
X260987500Y-98857500D03*
X261937500Y-101207500D03*
X262887500Y-98857500D03*
%TD*%
D18*
%TO.C,C37*%
X135850000Y-60682500D03*
X135850000Y-61642500D03*
%TD*%
%TO.C,C20*%
X92987500Y-41632500D03*
X92987500Y-42592500D03*
%TD*%
D16*
%TO.C,U78*%
X81280000Y-100012500D03*
X71120000Y-100012500D03*
D17*
X75250000Y-98857500D03*
X76200000Y-101207500D03*
X77150000Y-98857500D03*
%TD*%
D18*
%TO.C,C48*%
X69175000Y-79732500D03*
X69175000Y-80692500D03*
%TD*%
%TO.C,C39*%
X173950000Y-60682500D03*
X173950000Y-61642500D03*
%TD*%
%TO.C,C161*%
X73700000Y-98782500D03*
X73700000Y-99742500D03*
%TD*%
D16*
%TO.C,U25*%
X95567499Y-42862500D03*
X85407501Y-42862500D03*
D17*
X89537500Y-41707500D03*
X90487500Y-44057500D03*
X91437500Y-41707500D03*
%TD*%
D19*
%TO.C,R58*%
X35728750Y-55617500D03*
X36688750Y-55617500D03*
%TD*%
D18*
%TO.C,C117*%
X26075000Y-41632500D03*
X26075000Y-42592500D03*
%TD*%
%TO.C,C8*%
X159662500Y-22582500D03*
X159662500Y-23542500D03*
%TD*%
D23*
%TO.C,J11*%
X240225000Y-52018750D03*
D24*
X242765000Y-52018750D03*
X245305000Y-52018750D03*
X247845000Y-52018750D03*
%TD*%
D23*
%TO.C,J5*%
X129530000Y-89852500D03*
D24*
X126990000Y-89852500D03*
X124450000Y-89852500D03*
X121910000Y-89852500D03*
%TD*%
D18*
%TO.C,C5*%
X102512500Y-22582500D03*
X102512500Y-23542500D03*
%TD*%
%LPD*%
M02*
