M48
; DRILL file {KiCad 8.0.9} date 2025-07-01T01:33:13+0700
; FORMAT={-:-/ absolute / inch / decimal}
; #@! TF.CreationDate,2025-07-01T01:33:13+07:00
; #@! TF.GenerationSoftware,Kicad,Pcbnew,8.0.9
; #@! TF.FileFunction,NonPlated,1,6,NPTH
FMAT,2
INCH
; #@! TA.AperFunction,NonPlated,NPTH,ComponentDrill
T1C0.0689
; #@! TA.AperFunction,NonPlated,NPTH,ComponentDrill
T2C0.1200
; #@! TA.AperFunction,NonPlated,NPTH,ComponentDrill
T3C0.1570
%
G90
G05
T1
X0.7375Y-0.9375
X0.925Y-1.6875
X1.0188Y-2.4375
X1.1375Y-0.9375
X1.2063Y-3.1875
X1.325Y-1.6875
X1.4187Y-2.4375
X1.4875Y-0.9375
X1.6062Y-3.1875
X1.8625Y-1.6875
X1.8625Y-3.9375
X1.8875Y-0.9375
X2.05Y-2.4375
X2.2375Y-0.9375
X2.2625Y-1.6875
X2.2625Y-3.9375
X2.425Y-3.1875
X2.45Y-2.4375
X2.6125Y-1.6875
X2.6375Y-0.9375
X2.8Y-3.9375
X2.8Y-2.4375
X2.825Y-3.1875
X2.9875Y-0.9375
X3.0125Y-1.6875
X3.175Y-3.1875
X3.2Y-2.4375
X3.2Y-3.9375
X3.3625Y-1.6875
X3.3875Y-0.9375
X3.55Y-2.4375
X3.575Y-3.1875
X3.7375Y-0.9375
X3.7625Y-1.6875
X3.925Y-3.1875
X3.95Y-2.4375
X4.1125Y-1.6875
X4.1375Y-0.9375
X4.3Y-2.4375
X4.325Y-3.1875
X4.4875Y-3.9375
X4.4875Y-0.9375
X4.5125Y-1.6875
X4.675Y-3.1875
X4.7Y-2.4375
X4.8625Y-1.6875
X4.8875Y-0.9375
X4.8875Y-3.9375
X5.05Y-2.4375
X5.075Y-3.1875
X5.2375Y-0.9375
X5.2625Y-1.6875
X5.425Y-3.1875
X5.45Y-2.4375
X5.6125Y-1.6875
X5.6375Y-0.9375
X5.8Y-2.4375
X5.825Y-3.1875
X5.9875Y-0.9375
X5.9875Y-3.9375
X6.0125Y-1.6875
X6.175Y-3.1875
X6.2Y-2.4375
X6.3625Y-1.6875
X6.3875Y-0.9375
X6.3875Y-3.9375
X6.55Y-2.4375
X6.575Y-3.1875
X6.7375Y-0.9375
X6.7625Y-1.6875
X6.925Y-3.1875
X6.95Y-2.4375
X7.1125Y-1.6875
X7.1375Y-0.9375
X7.3Y-2.4375
X7.325Y-3.1875
X7.4875Y-3.9375
X7.4875Y-0.9375
X7.5125Y-1.6875
X7.675Y-3.1875
X7.7Y-2.4375
X7.8625Y-1.6875
X7.8875Y-0.9375
X7.8875Y-3.9375
X8.05Y-2.4375
X8.075Y-3.1875
X8.2375Y-0.9375
X8.2625Y-1.6875
X8.425Y-3.1875
X8.45Y-2.4375
X8.6125Y-1.6875
X8.6375Y-0.9375
X8.8Y-2.4375
X8.825Y-3.1875
X8.9875Y-0.9375
X9.0125Y-1.6875
X9.175Y-3.9375
X9.175Y-3.1875
X9.2Y-2.4375
X9.3625Y-1.6875
X9.3875Y-0.9375
X9.55Y-2.4375
X9.575Y-3.1875
X9.575Y-3.9375
X9.7375Y-0.9375
X9.7625Y-1.6875
X9.95Y-2.4375
X10.1125Y-1.6875
X10.1125Y-3.9375
X10.1375Y-0.9375
X10.2062Y-3.1875
X10.4875Y-0.9375
X10.5125Y-1.6875
X10.5125Y-3.9375
X10.6062Y-3.1875
X10.7688Y-2.4375
X10.8875Y-0.9375
X11.05Y-1.6875
X11.1687Y-2.4375
X11.2375Y-0.9375
X11.2375Y-3.1875
X11.45Y-1.6875
X11.6375Y-0.9375
X11.6375Y-3.1875
T2
X0.9375Y-3.4625
X1.875Y-3.4625
X3.9375Y-4.2125
X5.4375Y-4.2125
X6.9375Y-4.2125
X8.4375Y-4.2125
X10.5Y-2.7125
X11.4375Y-2.7125
T3
X0.9375Y-2.8625
X1.875Y-2.8625
X3.9375Y-3.6125
X5.4375Y-3.6125
X6.9375Y-3.6125
X8.4375Y-3.6125
X10.5Y-2.1125
X11.4375Y-2.1125
M30
