%TF.GenerationSoftware,KiCad,Pcbnew,8.0.9*%
%TF.CreationDate,2025-07-07T03:51:00+07:00*%
%TF.ProjectId,Agar HE,41676172-2048-4452-9e6b-696361645f70,rev?*%
%TF.SameCoordinates,Original*%
%TF.FileFunction,Soldermask,Bot*%
%TF.FilePolarity,Negative*%
%FSLAX46Y46*%
G04 Gerber Fmt 4.6, Leading zero omitted, Abs format (unit mm)*
G04 Created by KiCad (PCBNEW 8.0.9) date 2025-07-07 03:51:00*
%MOMM*%
%LPD*%
G01*
G04 APERTURE LIST*
G04 Aperture macros list*
%AMRoundRect*
0 Rectangle with rounded corners*
0 $1 Rounding radius*
0 $2 $3 $4 $5 $6 $7 $8 $9 X,Y pos of 4 corners*
0 Add a 4 corners polygon primitive as box body*
4,1,4,$2,$3,$4,$5,$6,$7,$8,$9,$2,$3,0*
0 Add four circle primitives for the rounded corners*
1,1,$1+$1,$2,$3*
1,1,$1+$1,$4,$5*
1,1,$1+$1,$6,$7*
1,1,$1+$1,$8,$9*
0 Add four rect primitives between the rounded corners*
20,1,$1+$1,$2,$3,$4,$5,0*
20,1,$1+$1,$4,$5,$6,$7,0*
20,1,$1+$1,$6,$7,$8,$9,0*
20,1,$1+$1,$8,$9,$2,$3,0*%
%AMFreePoly0*
4,1,14,0.385355,0.085355,0.400000,0.050000,0.400000,0.020711,0.385355,-0.014644,0.314644,-0.085355,0.279289,-0.100000,-0.350000,-0.100000,-0.385355,-0.085355,-0.400000,-0.050000,-0.400000,0.050000,-0.385355,0.085355,-0.350000,0.100000,0.350000,0.100000,0.385355,0.085355,0.385355,0.085355,$1*%
%AMFreePoly1*
4,1,14,0.314644,0.085355,0.385355,0.014644,0.400000,-0.020711,0.400000,-0.050000,0.385355,-0.085355,0.350000,-0.100000,-0.350000,-0.100000,-0.385355,-0.085355,-0.400000,-0.050000,-0.400000,0.050000,-0.385355,0.085355,-0.350000,0.100000,0.279289,0.100000,0.314644,0.085355,0.314644,0.085355,$1*%
%AMFreePoly2*
4,1,14,0.085355,0.385355,0.100000,0.350000,0.100000,-0.350000,0.085355,-0.385355,0.050000,-0.400000,0.020711,-0.400000,-0.014644,-0.385355,-0.085355,-0.314644,-0.100000,-0.279289,-0.100000,0.350000,-0.085355,0.385355,-0.050000,0.400000,0.050000,0.400000,0.085355,0.385355,0.085355,0.385355,$1*%
%AMFreePoly3*
4,1,14,0.085355,0.385355,0.100000,0.350000,0.100000,-0.279289,0.085355,-0.314644,0.014644,-0.385355,-0.020711,-0.400000,-0.050000,-0.400000,-0.085355,-0.385355,-0.100000,-0.350000,-0.100000,0.350000,-0.085355,0.385355,-0.050000,0.400000,0.050000,0.400000,0.085355,0.385355,0.085355,0.385355,$1*%
%AMFreePoly4*
4,1,14,0.385355,0.085355,0.400000,0.050000,0.400000,-0.050000,0.385355,-0.085355,0.350000,-0.100000,-0.350000,-0.100000,-0.385355,-0.085355,-0.400000,-0.050000,-0.400000,-0.020711,-0.385355,0.014644,-0.314644,0.085355,-0.279289,0.100000,0.350000,0.100000,0.385355,0.085355,0.385355,0.085355,$1*%
%AMFreePoly5*
4,1,14,0.385355,0.085355,0.400000,0.050000,0.400000,-0.050000,0.385355,-0.085355,0.350000,-0.100000,-0.279289,-0.100000,-0.314644,-0.085355,-0.385355,-0.014644,-0.400000,0.020711,-0.400000,0.050000,-0.385355,0.085355,-0.350000,0.100000,0.350000,0.100000,0.385355,0.085355,0.385355,0.085355,$1*%
%AMFreePoly6*
4,1,14,0.014644,0.385355,0.085355,0.314644,0.100000,0.279289,0.100000,-0.350000,0.085355,-0.385355,0.050000,-0.400000,-0.050000,-0.400000,-0.085355,-0.385355,-0.100000,-0.350000,-0.100000,0.350000,-0.085355,0.385355,-0.050000,0.400000,-0.020711,0.400000,0.014644,0.385355,0.014644,0.385355,$1*%
%AMFreePoly7*
4,1,14,0.085355,0.385355,0.100000,0.350000,0.100000,-0.350000,0.085355,-0.385355,0.050000,-0.400000,-0.050000,-0.400000,-0.085355,-0.385355,-0.100000,-0.350000,-0.100000,0.279289,-0.085355,0.314644,-0.014644,0.385355,0.020711,0.400000,0.050000,0.400000,0.085355,0.385355,0.085355,0.385355,$1*%
G04 Aperture macros list end*
%ADD10C,3.800000*%
%ADD11C,1.750000*%
%ADD12RoundRect,0.150000X-0.150000X0.350000X-0.150000X-0.350000X0.150000X-0.350000X0.150000X0.350000X0*%
%ADD13R,0.620000X0.560000*%
%ADD14R,0.560000X0.620000*%
%ADD15R,0.800000X0.750000*%
%ADD16C,3.048000*%
%ADD17C,3.987800*%
%ADD18R,1.700000X1.700000*%
%ADD19O,1.700000X1.700000*%
%ADD20R,0.400000X1.900000*%
%ADD21RoundRect,0.050000X0.375000X0.050000X-0.375000X0.050000X-0.375000X-0.050000X0.375000X-0.050000X0*%
%ADD22RoundRect,0.050000X0.050000X0.375000X-0.050000X0.375000X-0.050000X-0.375000X0.050000X-0.375000X0*%
%ADD23R,4.200000X4.200000*%
%ADD24RoundRect,0.050000X0.275000X0.050000X-0.275000X0.050000X-0.275000X-0.050000X0.275000X-0.050000X0*%
%ADD25RoundRect,0.050000X0.450000X0.050000X-0.450000X0.050000X-0.450000X-0.050000X0.450000X-0.050000X0*%
%ADD26RoundRect,0.062500X0.062500X0.212500X-0.062500X0.212500X-0.062500X-0.212500X0.062500X-0.212500X0*%
%ADD27RoundRect,0.050000X-0.375000X-0.050000X0.375000X-0.050000X0.375000X0.050000X-0.375000X0.050000X0*%
%ADD28RoundRect,0.050000X-0.050000X-0.375000X0.050000X-0.375000X0.050000X0.375000X-0.050000X0.375000X0*%
%ADD29R,1.800000X1.200000*%
%ADD30R,1.550000X0.600000*%
%ADD31R,1.500000X1.000000*%
%ADD32RoundRect,0.062500X-0.062500X0.062500X-0.062500X-0.062500X0.062500X-0.062500X0.062500X0.062500X0*%
%ADD33RoundRect,0.175000X-0.475000X0.175000X-0.475000X-0.175000X0.475000X-0.175000X0.475000X0.175000X0*%
%ADD34FreePoly0,180.000000*%
%ADD35RoundRect,0.050000X0.350000X0.050000X-0.350000X0.050000X-0.350000X-0.050000X0.350000X-0.050000X0*%
%ADD36FreePoly1,180.000000*%
%ADD37FreePoly2,180.000000*%
%ADD38RoundRect,0.050000X0.050000X0.350000X-0.050000X0.350000X-0.050000X-0.350000X0.050000X-0.350000X0*%
%ADD39FreePoly3,180.000000*%
%ADD40FreePoly4,180.000000*%
%ADD41FreePoly5,180.000000*%
%ADD42FreePoly6,180.000000*%
%ADD43FreePoly7,180.000000*%
%ADD44R,2.650000X2.650000*%
G04 APERTURE END LIST*
D10*
%TO.C,H8*%
X166687500Y-23812500D03*
%TD*%
%TO.C,H4*%
X85725000Y-61912500D03*
%TD*%
%TO.C,H5*%
X71437500Y-23812500D03*
%TD*%
%TO.C,H13*%
X238125000Y-61912500D03*
%TD*%
%TO.C,H10*%
X185737500Y-23812500D03*
%TD*%
%TO.C,H7*%
X161925000Y-61912500D03*
%TD*%
%TO.C,H13*%
X57150000Y-80962500D03*
%TD*%
%TO.C,H9*%
X128587500Y-23812500D03*
%TD*%
%TO.C,H12*%
X19050000Y-33337500D03*
%TD*%
%TO.C,H13*%
X280987500Y-80962500D03*
%TD*%
%TO.C,H18*%
X280987500Y-33337500D03*
%TD*%
%TO.C,H14*%
X88106250Y-100012500D03*
%TD*%
%TO.C,H11*%
X242887500Y-23812500D03*
%TD*%
%TO.C,H15*%
X226218750Y-100012500D03*
%TD*%
%TO.C,H5*%
X90487500Y-23812500D03*
%TD*%
D11*
%TO.C,U42*%
X138429999Y-61912500D03*
X128270001Y-61912500D03*
D12*
X132400000Y-60757500D03*
X133350000Y-63107500D03*
X134300000Y-60757500D03*
%TD*%
D13*
%TO.C,C140*%
X207050000Y-60682500D03*
X207050000Y-61642500D03*
%TD*%
%TO.C,C160*%
X49887500Y-98782500D03*
X49887500Y-99742500D03*
%TD*%
%TO.C,C141*%
X226100000Y-60682500D03*
X226100000Y-61642500D03*
%TD*%
D11*
%TO.C,U58*%
X147954999Y-80962500D03*
X137795001Y-80962500D03*
D12*
X141925000Y-79807500D03*
X142875000Y-82157500D03*
X143825000Y-79807500D03*
%TD*%
D14*
%TO.C,C168*%
X37048750Y-50817500D03*
X38008750Y-50817500D03*
%TD*%
D13*
%TO.C,C162*%
X116562500Y-98782500D03*
X116562500Y-99742500D03*
%TD*%
%TO.C,C29*%
X264437500Y-41632500D03*
X264437500Y-42592500D03*
%TD*%
%TO.C,C120*%
X87987500Y-41632500D03*
X87987500Y-42592500D03*
%TD*%
%TO.C,C128*%
X240387500Y-41632500D03*
X240387500Y-42592500D03*
%TD*%
%TO.C,C147*%
X64175000Y-79732500D03*
X64175000Y-80692500D03*
%TD*%
%TO.C,C108*%
X154662500Y-22582500D03*
X154662500Y-23542500D03*
%TD*%
D11*
%TO.C,U11*%
X124142499Y-23812500D03*
X113982501Y-23812500D03*
D12*
X118112500Y-22657500D03*
X119062500Y-25007500D03*
X120012500Y-22657500D03*
%TD*%
D14*
%TO.C,C67*%
X62475000Y-76818750D03*
X61515000Y-76818750D03*
%TD*%
D15*
%TO.C,C170*%
X77921875Y-39471875D03*
X76421875Y-39471875D03*
%TD*%
D13*
%TO.C,C101*%
X21312500Y-22582500D03*
X21312500Y-23542500D03*
%TD*%
%TO.C,C25*%
X188237500Y-41632500D03*
X188237500Y-42592500D03*
%TD*%
%TO.C,C43*%
X250150000Y-60682500D03*
X250150000Y-61642500D03*
%TD*%
%TO.C,C165*%
X235625000Y-98782500D03*
X235625000Y-99742500D03*
%TD*%
%TO.C,C104*%
X78462500Y-22582500D03*
X78462500Y-23542500D03*
%TD*%
%TO.C,C151*%
X140375000Y-79732500D03*
X140375000Y-80692500D03*
%TD*%
D16*
%TO.C,U80*%
X214312500Y-106997500D03*
D17*
X214312500Y-91757500D03*
D11*
X200342500Y-100012500D03*
X190182500Y-100012500D03*
D16*
X176212500Y-106997500D03*
D17*
X176212500Y-91757500D03*
D12*
X194312500Y-98857500D03*
X195262500Y-101207500D03*
X196212500Y-98857500D03*
%TD*%
D18*
%TO.C,J2*%
X25620000Y-51112500D03*
D19*
X28160000Y-51112500D03*
X30700000Y-51112500D03*
X33240000Y-51112500D03*
%TD*%
D11*
%TO.C,U32*%
X228917499Y-42862500D03*
X218757501Y-42862500D03*
D12*
X222887500Y-41707500D03*
X223837500Y-44057500D03*
X224787500Y-41707500D03*
%TD*%
D20*
%TO.C,Y1*%
X43408750Y-52017500D03*
X44608750Y-52017500D03*
X45808750Y-52017500D03*
%TD*%
D13*
%TO.C,C3*%
X64412500Y-22582500D03*
X64412500Y-23542500D03*
%TD*%
D14*
%TO.C,C79*%
X195825000Y-76818750D03*
X194865000Y-76818750D03*
%TD*%
D11*
%TO.C,U41*%
X119379999Y-61912500D03*
X109220001Y-61912500D03*
D12*
X113350000Y-60757500D03*
X114300000Y-63107500D03*
X115250000Y-60757500D03*
%TD*%
D13*
%TO.C,C36*%
X116800000Y-60682500D03*
X116800000Y-61642500D03*
%TD*%
D18*
%TO.C,J9*%
X129530000Y-92392500D03*
D19*
X126990000Y-92392500D03*
X124450000Y-92392500D03*
X121910000Y-92392500D03*
%TD*%
D13*
%TO.C,C49*%
X88225000Y-79732500D03*
X88225000Y-80692500D03*
%TD*%
D14*
%TO.C,R2*%
X80291875Y-38671875D03*
X81251875Y-38671875D03*
%TD*%
D13*
%TO.C,C137*%
X149900000Y-60682500D03*
X149900000Y-61642500D03*
%TD*%
%TO.C,C77*%
X204225000Y-76018750D03*
X204225000Y-76978750D03*
%TD*%
D11*
%TO.C,U30*%
X190817499Y-42862500D03*
X180657501Y-42862500D03*
D12*
X184787500Y-41707500D03*
X185737500Y-44057500D03*
X186687500Y-41707500D03*
%TD*%
D13*
%TO.C,C123*%
X145137500Y-41632500D03*
X145137500Y-42592500D03*
%TD*%
D11*
%TO.C,U38*%
X62229999Y-61912500D03*
X52070001Y-61912500D03*
D12*
X56200000Y-60757500D03*
X57150000Y-63107500D03*
X58100000Y-60757500D03*
%TD*%
D13*
%TO.C,C153*%
X178475000Y-79732500D03*
X178475000Y-80692500D03*
%TD*%
D16*
%TO.C,U79*%
X138112500Y-106997500D03*
D17*
X138112500Y-91757500D03*
D11*
X124142500Y-100012500D03*
X113982500Y-100012500D03*
D16*
X100012500Y-106997500D03*
D17*
X100012500Y-91757500D03*
D12*
X118112500Y-98857500D03*
X119062500Y-101207500D03*
X120012500Y-98857500D03*
%TD*%
D13*
%TO.C,C145*%
X33218750Y-79732500D03*
X33218750Y-80692500D03*
%TD*%
%TO.C,C13*%
X254912500Y-22582500D03*
X254912500Y-23542500D03*
%TD*%
%TO.C,C58*%
X266818750Y-79732500D03*
X266818750Y-80692500D03*
%TD*%
%TO.C,C124*%
X164187500Y-41632500D03*
X164187500Y-42592500D03*
%TD*%
D11*
%TO.C,U8*%
X66992499Y-23812500D03*
X56832501Y-23812500D03*
D12*
X60962500Y-22657500D03*
X61912500Y-25007500D03*
X62862500Y-22657500D03*
%TD*%
D13*
%TO.C,C142*%
X245150000Y-60682500D03*
X245150000Y-61642500D03*
%TD*%
D11*
%TO.C,U65*%
X295592499Y-80962500D03*
X285432501Y-80962500D03*
D12*
X289562500Y-79807500D03*
X290512500Y-82157500D03*
X291462500Y-79807500D03*
%TD*%
D11*
%TO.C,U57*%
X128904999Y-80962500D03*
X118745001Y-80962500D03*
D12*
X122875000Y-79807500D03*
X123825000Y-82157500D03*
X124775000Y-79807500D03*
%TD*%
D11*
%TO.C,U84*%
X162242499Y-100012500D03*
X152082501Y-100012500D03*
D12*
X156212500Y-98857500D03*
X157162500Y-101207500D03*
X158112500Y-98857500D03*
%TD*%
D13*
%TO.C,C91*%
X121562500Y-98782500D03*
X121562500Y-99742500D03*
%TD*%
D11*
%TO.C,U60*%
X186054999Y-80962500D03*
X175895001Y-80962500D03*
D12*
X180025000Y-79807500D03*
X180975000Y-82157500D03*
X181925000Y-79807500D03*
%TD*%
D13*
%TO.C,C115*%
X278487500Y-22582500D03*
X278487500Y-23542500D03*
%TD*%
%TO.C,C15*%
X293012500Y-22582500D03*
X293012500Y-23542500D03*
%TD*%
%TO.C,C82*%
X195225000Y-72998750D03*
X195225000Y-73958750D03*
%TD*%
%TO.C,C95*%
X264437500Y-98782500D03*
X264437500Y-99742500D03*
%TD*%
%TO.C,C59*%
X293012500Y-79732500D03*
X293012500Y-80692500D03*
%TD*%
%TO.C,C76*%
X119025000Y-72998750D03*
X119025000Y-73958750D03*
%TD*%
%TO.C,C83*%
X254095000Y-50568750D03*
X254095000Y-49608750D03*
%TD*%
%TO.C,C69*%
X60875000Y-72998750D03*
X60875000Y-73958750D03*
%TD*%
%TO.C,C125*%
X183237500Y-41632500D03*
X183237500Y-42592500D03*
%TD*%
%TO.C,C116*%
X288012500Y-22582500D03*
X288012500Y-23542500D03*
%TD*%
%TO.C,C81*%
X194225000Y-72998750D03*
X194225000Y-73958750D03*
%TD*%
%TO.C,C17*%
X31075000Y-41632500D03*
X31075000Y-42592500D03*
%TD*%
D11*
%TO.C,U62*%
X224154999Y-80962500D03*
X213995001Y-80962500D03*
D12*
X218125000Y-79807500D03*
X219075000Y-82157500D03*
X220025000Y-79807500D03*
%TD*%
D14*
%TO.C,C84*%
X261375000Y-52768750D03*
X262335000Y-52768750D03*
%TD*%
D13*
%TO.C,C35*%
X97750000Y-60682500D03*
X97750000Y-61642500D03*
%TD*%
%TO.C,C131*%
X28456250Y-60682500D03*
X28456250Y-61642500D03*
%TD*%
%TO.C,C34*%
X78700000Y-60682500D03*
X78700000Y-61642500D03*
%TD*%
D18*
%TO.C,J4*%
X72380000Y-89852500D03*
D19*
X69840000Y-89852500D03*
X67300000Y-89852500D03*
X64760000Y-89852500D03*
%TD*%
D13*
%TO.C,C155*%
X216575000Y-79732500D03*
X216575000Y-80692500D03*
%TD*%
D21*
%TO.C,U5*%
X260125000Y-52568750D03*
X260125000Y-52968750D03*
X260125000Y-53368750D03*
X260125000Y-53768750D03*
X260125000Y-54168750D03*
X260125000Y-54568750D03*
X260125000Y-54968750D03*
X260125000Y-55368750D03*
X260125000Y-55768750D03*
X260125000Y-56168750D03*
X260125000Y-56568750D03*
X260125000Y-56968750D03*
D22*
X259375000Y-57718750D03*
X258975000Y-57718750D03*
X258575000Y-57718750D03*
X258175000Y-57718750D03*
X257775000Y-57718750D03*
X257375000Y-57718750D03*
X256975000Y-57718750D03*
X256575000Y-57718750D03*
X256175000Y-57718750D03*
X255775000Y-57718750D03*
X255375000Y-57718750D03*
X254975000Y-57718750D03*
D21*
X254225000Y-56968750D03*
X254225000Y-56568750D03*
X254225000Y-56168750D03*
X254225000Y-55768750D03*
X254225000Y-55368750D03*
X254225000Y-54968750D03*
X254225000Y-54568750D03*
X254225000Y-54168750D03*
X254225000Y-53768750D03*
X254225000Y-53368750D03*
X254225000Y-52968750D03*
X254225000Y-52568750D03*
D22*
X254975000Y-51818750D03*
X255375000Y-51818750D03*
X255775000Y-51818750D03*
X256175000Y-51818750D03*
X256575000Y-51818750D03*
X256975000Y-51818750D03*
X257375000Y-51818750D03*
X257775000Y-51818750D03*
X258175000Y-51818750D03*
X258575000Y-51818750D03*
X258975000Y-51818750D03*
X259375000Y-51818750D03*
D23*
X257175000Y-54768750D03*
%TD*%
D13*
%TO.C,C24*%
X169187500Y-41632500D03*
X169187500Y-42592500D03*
%TD*%
%TO.C,C106*%
X116562500Y-22582500D03*
X116562500Y-23542500D03*
%TD*%
%TO.C,C63*%
X54887500Y-98782500D03*
X54887500Y-99742500D03*
%TD*%
%TO.C,C93*%
X197762500Y-98782500D03*
X197762500Y-99742500D03*
%TD*%
%TO.C,C156*%
X235625000Y-79732500D03*
X235625000Y-80692500D03*
%TD*%
%TO.C,C127*%
X221337500Y-41632500D03*
X221337500Y-42592500D03*
%TD*%
D24*
%TO.C,U88*%
X80646875Y-41421875D03*
D25*
X80471875Y-41921875D03*
D24*
X80646875Y-42421875D03*
D25*
X79071875Y-42421875D03*
D24*
X78896875Y-41921875D03*
D25*
X79071875Y-41421875D03*
D26*
X79021875Y-40746875D03*
X79521875Y-40746875D03*
X80021875Y-40746875D03*
X80521875Y-40746875D03*
%TD*%
D13*
%TO.C,C6*%
X121562500Y-22582500D03*
X121562500Y-23542500D03*
%TD*%
D27*
%TO.C,U3*%
X120875000Y-76018750D03*
X120875000Y-75618750D03*
X120875000Y-75218750D03*
X120875000Y-74818750D03*
X120875000Y-74418750D03*
X120875000Y-74018750D03*
X120875000Y-73618750D03*
X120875000Y-73218750D03*
X120875000Y-72818750D03*
X120875000Y-72418750D03*
X120875000Y-72018750D03*
X120875000Y-71618750D03*
D28*
X121625000Y-70868750D03*
X122025000Y-70868750D03*
X122425000Y-70868750D03*
X122825000Y-70868750D03*
X123225000Y-70868750D03*
X123625000Y-70868750D03*
X124025000Y-70868750D03*
X124425000Y-70868750D03*
X124825000Y-70868750D03*
X125225000Y-70868750D03*
X125625000Y-70868750D03*
X126025000Y-70868750D03*
D27*
X126775000Y-71618750D03*
X126775000Y-72018750D03*
X126775000Y-72418750D03*
X126775000Y-72818750D03*
X126775000Y-73218750D03*
X126775000Y-73618750D03*
X126775000Y-74018750D03*
X126775000Y-74418750D03*
X126775000Y-74818750D03*
X126775000Y-75218750D03*
X126775000Y-75618750D03*
X126775000Y-76018750D03*
D28*
X126025000Y-76768750D03*
X125625000Y-76768750D03*
X125225000Y-76768750D03*
X124825000Y-76768750D03*
X124425000Y-76768750D03*
X124025000Y-76768750D03*
X123625000Y-76768750D03*
X123225000Y-76768750D03*
X122825000Y-76768750D03*
X122425000Y-76768750D03*
X122025000Y-76768750D03*
X121625000Y-76768750D03*
D23*
X123825000Y-73818750D03*
%TD*%
D14*
%TO.C,C68*%
X69395000Y-69618750D03*
X70355000Y-69618750D03*
%TD*%
D13*
%TO.C,C18*%
X54887500Y-41632500D03*
X54887500Y-42592500D03*
%TD*%
D14*
%TO.C,C86*%
X254455000Y-58968750D03*
X253495000Y-58968750D03*
%TD*%
D13*
%TO.C,C54*%
X183475000Y-79732500D03*
X183475000Y-80692500D03*
%TD*%
D11*
%TO.C,U20*%
X295592499Y-23812500D03*
X285432501Y-23812500D03*
D12*
X289562500Y-22657500D03*
X290512500Y-25007500D03*
X291462500Y-22657500D03*
%TD*%
D13*
%TO.C,C164*%
X192762500Y-98782500D03*
X192762500Y-99742500D03*
%TD*%
D11*
%TO.C,U44*%
X176529999Y-61912500D03*
X166370001Y-61912500D03*
D12*
X170500000Y-60757500D03*
X171450000Y-63107500D03*
X172400000Y-60757500D03*
%TD*%
D13*
%TO.C,C41*%
X212050000Y-60682500D03*
X212050000Y-61642500D03*
%TD*%
D11*
%TO.C,U28*%
X152717499Y-42862500D03*
X142557501Y-42862500D03*
D12*
X146687500Y-41707500D03*
X147637500Y-44057500D03*
X148587500Y-41707500D03*
%TD*%
D11*
%TO.C,U46*%
X214629999Y-61912500D03*
X204470001Y-61912500D03*
D12*
X208600000Y-60757500D03*
X209550000Y-63107500D03*
X210500000Y-60757500D03*
%TD*%
D13*
%TO.C,C92*%
X159662500Y-98782500D03*
X159662500Y-99742500D03*
%TD*%
%TO.C,C109*%
X173712500Y-22582500D03*
X173712500Y-23542500D03*
%TD*%
%TO.C,C139*%
X188000000Y-60682500D03*
X188000000Y-61642500D03*
%TD*%
D11*
%TO.C,U9*%
X86042499Y-23812500D03*
X75882501Y-23812500D03*
D12*
X80012500Y-22657500D03*
X80962500Y-25007500D03*
X81912500Y-22657500D03*
%TD*%
D11*
%TO.C,U22*%
X33655000Y-42862500D03*
X23495000Y-42862500D03*
D12*
X27625000Y-41707500D03*
X28575000Y-44057500D03*
X29525000Y-41707500D03*
%TD*%
D11*
%TO.C,U10*%
X105092499Y-23812500D03*
X94932501Y-23812500D03*
D12*
X99062500Y-22657500D03*
X100012500Y-25007500D03*
X100962500Y-22657500D03*
%TD*%
D11*
%TO.C,U33*%
X247967499Y-42862500D03*
X237807501Y-42862500D03*
D12*
X241937500Y-41707500D03*
X242887500Y-44057500D03*
X243837500Y-41707500D03*
%TD*%
D18*
%TO.C,J10*%
X205730000Y-92392500D03*
D19*
X203190000Y-92392500D03*
X200650000Y-92392500D03*
X198110000Y-92392500D03*
%TD*%
D13*
%TO.C,C71*%
X128025000Y-76018750D03*
X128025000Y-76978750D03*
%TD*%
D17*
%TO.C,U51*%
X47625001Y-72707500D03*
D16*
X47625000Y-87947500D03*
D11*
X40798749Y-80962500D03*
X30638751Y-80962500D03*
D16*
X23812500Y-87947500D03*
D17*
X23812499Y-72707500D03*
D12*
X34768750Y-79807500D03*
X35718750Y-82157500D03*
X36668750Y-79807500D03*
%TD*%
D13*
%TO.C,C65*%
X70875000Y-76012500D03*
X70875000Y-76972500D03*
%TD*%
%TO.C,C64*%
X78700000Y-98782500D03*
X78700000Y-99742500D03*
%TD*%
D11*
%TO.C,U18*%
X257492499Y-23812500D03*
X247332501Y-23812500D03*
D12*
X251462500Y-22657500D03*
X252412500Y-25007500D03*
X253362500Y-22657500D03*
%TD*%
D13*
%TO.C,C1*%
X26312500Y-22582500D03*
X26312500Y-23542500D03*
%TD*%
D11*
%TO.C,U7*%
X47942499Y-23812500D03*
X37782501Y-23812500D03*
D12*
X41912500Y-22657500D03*
X42862500Y-25007500D03*
X43812500Y-22657500D03*
%TD*%
D13*
%TO.C,C148*%
X83225000Y-79732500D03*
X83225000Y-80692500D03*
%TD*%
D11*
%TO.C,U64*%
X269398750Y-80962500D03*
X259238750Y-80962500D03*
D12*
X263368750Y-79807500D03*
X264318750Y-82157500D03*
X265268750Y-79807500D03*
%TD*%
D11*
%TO.C,U15*%
X200342499Y-23812500D03*
X190182501Y-23812500D03*
D12*
X194312500Y-22657500D03*
X195262500Y-25007500D03*
X196212500Y-22657500D03*
%TD*%
D14*
%TO.C,C85*%
X261375000Y-51768750D03*
X262335000Y-51768750D03*
%TD*%
D13*
%TO.C,C46*%
X38218750Y-79732500D03*
X38218750Y-80692500D03*
%TD*%
D27*
%TO.C,U2*%
X63725000Y-76018750D03*
X63725000Y-75618750D03*
X63725000Y-75218750D03*
X63725000Y-74818750D03*
X63725000Y-74418750D03*
X63725000Y-74018750D03*
X63725000Y-73618750D03*
X63725000Y-73218750D03*
X63725000Y-72818750D03*
X63725000Y-72418750D03*
X63725000Y-72018750D03*
X63725000Y-71618750D03*
D28*
X64475000Y-70868750D03*
X64875000Y-70868750D03*
X65275000Y-70868750D03*
X65675000Y-70868750D03*
X66075000Y-70868750D03*
X66475000Y-70868750D03*
X66875000Y-70868750D03*
X67275000Y-70868750D03*
X67675000Y-70868750D03*
X68075000Y-70868750D03*
X68475000Y-70868750D03*
X68875000Y-70868750D03*
D27*
X69625000Y-71618750D03*
X69625000Y-72018750D03*
X69625000Y-72418750D03*
X69625000Y-72818750D03*
X69625000Y-73218750D03*
X69625000Y-73618750D03*
X69625000Y-74018750D03*
X69625000Y-74418750D03*
X69625000Y-74818750D03*
X69625000Y-75218750D03*
X69625000Y-75618750D03*
X69625000Y-76018750D03*
D28*
X68875000Y-76768750D03*
X68475000Y-76768750D03*
X68075000Y-76768750D03*
X67675000Y-76768750D03*
X67275000Y-76768750D03*
X66875000Y-76768750D03*
X66475000Y-76768750D03*
X66075000Y-76768750D03*
X65675000Y-76768750D03*
X65275000Y-76768750D03*
X64875000Y-76768750D03*
X64475000Y-76768750D03*
D23*
X66675000Y-73818750D03*
%TD*%
D15*
%TO.C,C175*%
X80521875Y-46471875D03*
X79021875Y-46471875D03*
%TD*%
D11*
%TO.C,U43*%
X157479999Y-61912500D03*
X147320001Y-61912500D03*
D12*
X151450000Y-60757500D03*
X152400000Y-63107500D03*
X153350000Y-60757500D03*
%TD*%
D13*
%TO.C,C14*%
X273962500Y-22582500D03*
X273962500Y-23542500D03*
%TD*%
D11*
%TO.C,U29*%
X171767499Y-42862500D03*
X161607501Y-42862500D03*
D12*
X165737500Y-41707500D03*
X166687500Y-44057500D03*
X167637500Y-41707500D03*
%TD*%
D11*
%TO.C,U45*%
X195579999Y-61912500D03*
X185420001Y-61912500D03*
D12*
X189550000Y-60757500D03*
X190500000Y-63107500D03*
X191450000Y-60757500D03*
%TD*%
D13*
%TO.C,C89*%
X41808750Y-50897500D03*
X41808750Y-49937500D03*
%TD*%
D11*
%TO.C,U36*%
X36036250Y-61912500D03*
X25876250Y-61912500D03*
D12*
X30006250Y-60757500D03*
X30956250Y-63107500D03*
X31906250Y-60757500D03*
%TD*%
D13*
%TO.C,C121*%
X107037500Y-41632500D03*
X107037500Y-42592500D03*
%TD*%
%TO.C,C40*%
X193000000Y-60682500D03*
X193000000Y-61642500D03*
%TD*%
%TO.C,C87*%
X262975000Y-55588750D03*
X262975000Y-54628750D03*
%TD*%
D11*
%TO.C,U19*%
X276542499Y-23812500D03*
X266382501Y-23812500D03*
D12*
X270512500Y-22657500D03*
X271462500Y-25007500D03*
X272412500Y-22657500D03*
%TD*%
D13*
%TO.C,C130*%
X283250000Y-41632500D03*
X283250000Y-42592500D03*
%TD*%
%TO.C,C12*%
X235862500Y-22582500D03*
X235862500Y-23542500D03*
%TD*%
D18*
%TO.C,J3*%
X36681250Y-45243750D03*
D19*
X39221250Y-45243750D03*
X41761250Y-45243750D03*
X44301250Y-45243750D03*
%TD*%
D11*
%TO.C,U54*%
X71754999Y-80962500D03*
X61595001Y-80962500D03*
D12*
X65725000Y-79807500D03*
X66675000Y-82157500D03*
X67625000Y-79807500D03*
%TD*%
D13*
%TO.C,C107*%
X135612500Y-22582500D03*
X135612500Y-23542500D03*
%TD*%
%TO.C,C38*%
X154900000Y-60682500D03*
X154900000Y-61642500D03*
%TD*%
D11*
%TO.C,U31*%
X209867499Y-42862500D03*
X199707501Y-42862500D03*
D12*
X203837500Y-41707500D03*
X204787500Y-44057500D03*
X205737500Y-41707500D03*
%TD*%
D11*
%TO.C,U26*%
X114617499Y-42862500D03*
X104457501Y-42862500D03*
D12*
X108587500Y-41707500D03*
X109537500Y-44057500D03*
X110487500Y-41707500D03*
%TD*%
D11*
%TO.C,U6*%
X28892499Y-23812500D03*
X18732501Y-23812500D03*
D12*
X22862500Y-22657500D03*
X23812500Y-25007500D03*
X24762500Y-22657500D03*
%TD*%
D13*
%TO.C,C119*%
X68937500Y-41632500D03*
X68937500Y-42592500D03*
%TD*%
D11*
%TO.C,U55*%
X90804999Y-80962500D03*
X80645001Y-80962500D03*
D12*
X84775000Y-79807500D03*
X85725000Y-82157500D03*
X86675000Y-79807500D03*
%TD*%
D13*
%TO.C,C42*%
X231100000Y-60682500D03*
X231100000Y-61642500D03*
%TD*%
D18*
%TO.C,J8*%
X72380000Y-92392500D03*
D19*
X69840000Y-92392500D03*
X67300000Y-92392500D03*
X64760000Y-92392500D03*
%TD*%
D13*
%TO.C,C110*%
X192762500Y-22582500D03*
X192762500Y-23542500D03*
%TD*%
D14*
%TO.C,R1*%
X36688750Y-51817500D03*
X35728750Y-51817500D03*
%TD*%
D13*
%TO.C,C157*%
X261818750Y-79732500D03*
X261818750Y-80692500D03*
%TD*%
%TO.C,C88*%
X261975000Y-55588750D03*
X261975000Y-54628750D03*
%TD*%
%TO.C,C132*%
X54650000Y-60682500D03*
X54650000Y-61642500D03*
%TD*%
D18*
%TO.C,J7*%
X236405000Y-52018750D03*
D19*
X233865000Y-52018750D03*
X231325000Y-52018750D03*
X228785000Y-52018750D03*
%TD*%
D13*
%TO.C,C55*%
X202525000Y-79732500D03*
X202525000Y-80692500D03*
%TD*%
%TO.C,C172*%
X79271875Y-38691875D03*
X79271875Y-39651875D03*
%TD*%
%TO.C,C150*%
X121325000Y-79732500D03*
X121325000Y-80692500D03*
%TD*%
%TO.C,C51*%
X126325000Y-79732500D03*
X126325000Y-80692500D03*
%TD*%
%TO.C,C152*%
X159425000Y-79732500D03*
X159425000Y-80692500D03*
%TD*%
D27*
%TO.C,U4*%
X197075000Y-76018750D03*
X197075000Y-75618750D03*
X197075000Y-75218750D03*
X197075000Y-74818750D03*
X197075000Y-74418750D03*
X197075000Y-74018750D03*
X197075000Y-73618750D03*
X197075000Y-73218750D03*
X197075000Y-72818750D03*
X197075000Y-72418750D03*
X197075000Y-72018750D03*
X197075000Y-71618750D03*
D28*
X197825000Y-70868750D03*
X198225000Y-70868750D03*
X198625000Y-70868750D03*
X199025000Y-70868750D03*
X199425000Y-70868750D03*
X199825000Y-70868750D03*
X200225000Y-70868750D03*
X200625000Y-70868750D03*
X201025000Y-70868750D03*
X201425000Y-70868750D03*
X201825000Y-70868750D03*
X202225000Y-70868750D03*
D27*
X202975000Y-71618750D03*
X202975000Y-72018750D03*
X202975000Y-72418750D03*
X202975000Y-72818750D03*
X202975000Y-73218750D03*
X202975000Y-73618750D03*
X202975000Y-74018750D03*
X202975000Y-74418750D03*
X202975000Y-74818750D03*
X202975000Y-75218750D03*
X202975000Y-75618750D03*
X202975000Y-76018750D03*
D28*
X202225000Y-76768750D03*
X201825000Y-76768750D03*
X201425000Y-76768750D03*
X201025000Y-76768750D03*
X200625000Y-76768750D03*
X200225000Y-76768750D03*
X199825000Y-76768750D03*
X199425000Y-76768750D03*
X199025000Y-76768750D03*
X198625000Y-76768750D03*
X198225000Y-76768750D03*
X197825000Y-76768750D03*
D23*
X200025000Y-73818750D03*
%TD*%
D15*
%TO.C,C174*%
X80521875Y-45071875D03*
X79021875Y-45071875D03*
%TD*%
D11*
%TO.C,U16*%
X219392499Y-23812500D03*
X209232501Y-23812500D03*
D12*
X213362500Y-22657500D03*
X214312500Y-25007500D03*
X215262500Y-22657500D03*
%TD*%
D11*
%TO.C,U77*%
X57467499Y-100012500D03*
X47307501Y-100012500D03*
D12*
X51437500Y-98857500D03*
X52387500Y-101207500D03*
X53337500Y-98857500D03*
%TD*%
D18*
%TO.C,J6*%
X205730000Y-89852500D03*
D19*
X203190000Y-89852500D03*
X200650000Y-89852500D03*
X198110000Y-89852500D03*
%TD*%
D14*
%TO.C,C66*%
X62475000Y-75818750D03*
X61515000Y-75818750D03*
%TD*%
D13*
%TO.C,C32*%
X33456250Y-60682500D03*
X33456250Y-61642500D03*
%TD*%
D11*
%TO.C,U81*%
X243205000Y-100012500D03*
X233045000Y-100012500D03*
D12*
X237175000Y-98857500D03*
X238125000Y-101207500D03*
X239075000Y-98857500D03*
%TD*%
D11*
%TO.C,U27*%
X133667499Y-42862500D03*
X123507501Y-42862500D03*
D12*
X127637500Y-41707500D03*
X128587500Y-44057500D03*
X129537500Y-41707500D03*
%TD*%
D13*
%TO.C,C52*%
X145375000Y-79732500D03*
X145375000Y-80692500D03*
%TD*%
%TO.C,C10*%
X197762500Y-22582500D03*
X197762500Y-23542500D03*
%TD*%
D11*
%TO.C,U56*%
X109854999Y-80962500D03*
X99695001Y-80962500D03*
D12*
X103825000Y-79807500D03*
X104775000Y-82157500D03*
X105725000Y-79807500D03*
%TD*%
D14*
%TO.C,C73*%
X119625000Y-76818750D03*
X118665000Y-76818750D03*
%TD*%
D13*
%TO.C,C105*%
X97512500Y-22582500D03*
X97512500Y-23542500D03*
%TD*%
D14*
%TO.C,C171*%
X77651875Y-40671875D03*
X76691875Y-40671875D03*
%TD*%
D13*
%TO.C,C166*%
X259437500Y-98782500D03*
X259437500Y-99742500D03*
%TD*%
%TO.C,C122*%
X126087500Y-41632500D03*
X126087500Y-42592500D03*
%TD*%
%TO.C,C9*%
X178712500Y-22582500D03*
X178712500Y-23542500D03*
%TD*%
D11*
%TO.C,U63*%
X243204999Y-80962500D03*
X233045001Y-80962500D03*
D12*
X237175000Y-79807500D03*
X238125000Y-82157500D03*
X239075000Y-79807500D03*
%TD*%
D14*
%TO.C,R3*%
X80291875Y-39671875D03*
X81251875Y-39671875D03*
%TD*%
D13*
%TO.C,C112*%
X230862500Y-22582500D03*
X230862500Y-23542500D03*
%TD*%
%TO.C,C56*%
X221575000Y-79732500D03*
X221575000Y-80692500D03*
%TD*%
%TO.C,C75*%
X118025000Y-72998750D03*
X118025000Y-73958750D03*
%TD*%
%TO.C,C154*%
X197525000Y-79732500D03*
X197525000Y-80692500D03*
%TD*%
%TO.C,C28*%
X245387500Y-41632500D03*
X245387500Y-42592500D03*
%TD*%
D11*
%TO.C,U48*%
X252729999Y-61912500D03*
X242570001Y-61912500D03*
D12*
X246700000Y-60757500D03*
X247650000Y-63107500D03*
X248600000Y-60757500D03*
%TD*%
D13*
%TO.C,C7*%
X140612500Y-22582500D03*
X140612500Y-23542500D03*
%TD*%
D11*
%TO.C,U40*%
X100329999Y-61912500D03*
X90170001Y-61912500D03*
D12*
X94300000Y-60757500D03*
X95250000Y-63107500D03*
X96200000Y-60757500D03*
%TD*%
D11*
%TO.C,U35*%
X290830000Y-42862500D03*
X280670000Y-42862500D03*
D12*
X284800000Y-41707500D03*
X285750000Y-44057500D03*
X286700000Y-41707500D03*
%TD*%
D13*
%TO.C,C26*%
X207287500Y-41632500D03*
X207287500Y-42592500D03*
%TD*%
D11*
%TO.C,U59*%
X167004999Y-80962500D03*
X156845001Y-80962500D03*
D12*
X160975000Y-79807500D03*
X161925000Y-82157500D03*
X162875000Y-79807500D03*
%TD*%
D17*
%TO.C,U49*%
X290512500Y-70167500D03*
D16*
X290512500Y-54927500D03*
D11*
X283686250Y-61912500D03*
X273526250Y-61912500D03*
D17*
X266700000Y-70167500D03*
D16*
X266700000Y-54927500D03*
D12*
X277656250Y-60757500D03*
X278606250Y-63107500D03*
X279556250Y-60757500D03*
%TD*%
D13*
%TO.C,C33*%
X59650000Y-60682500D03*
X59650000Y-61642500D03*
%TD*%
%TO.C,C118*%
X49887500Y-41632500D03*
X49887500Y-42592500D03*
%TD*%
%TO.C,C21*%
X112037500Y-41632500D03*
X112037500Y-42592500D03*
%TD*%
D11*
%TO.C,U24*%
X76517499Y-42862500D03*
X66357501Y-42862500D03*
D12*
X70487500Y-41707500D03*
X71437500Y-44057500D03*
X72387500Y-41707500D03*
%TD*%
D13*
%TO.C,C50*%
X107275000Y-79732500D03*
X107275000Y-80692500D03*
%TD*%
D11*
%TO.C,U47*%
X233679999Y-61912500D03*
X223520001Y-61912500D03*
D12*
X227650000Y-60757500D03*
X228600000Y-63107500D03*
X229550000Y-60757500D03*
%TD*%
D11*
%TO.C,U39*%
X81279999Y-61912500D03*
X71120001Y-61912500D03*
D12*
X75250000Y-60757500D03*
X76200000Y-63107500D03*
X77150000Y-60757500D03*
%TD*%
D13*
%TO.C,C22*%
X131087500Y-41632500D03*
X131087500Y-42592500D03*
%TD*%
%TO.C,C143*%
X276106250Y-60682500D03*
X276106250Y-61642500D03*
%TD*%
%TO.C,C134*%
X92750000Y-60682500D03*
X92750000Y-61642500D03*
%TD*%
%TO.C,C11*%
X216812500Y-22582500D03*
X216812500Y-23542500D03*
%TD*%
%TO.C,C53*%
X164425000Y-79732500D03*
X164425000Y-80692500D03*
%TD*%
%TO.C,C149*%
X102275000Y-79732500D03*
X102275000Y-80692500D03*
%TD*%
D11*
%TO.C,U23*%
X57467499Y-42862500D03*
X47307501Y-42862500D03*
D12*
X51437500Y-41707500D03*
X52387500Y-44057500D03*
X53337500Y-41707500D03*
%TD*%
D14*
%TO.C,C72*%
X119625000Y-75818750D03*
X118665000Y-75818750D03*
%TD*%
%TO.C,C78*%
X195825000Y-75818750D03*
X194865000Y-75818750D03*
%TD*%
D13*
%TO.C,C70*%
X61875000Y-72998750D03*
X61875000Y-73958750D03*
%TD*%
%TO.C,C138*%
X168950000Y-60682500D03*
X168950000Y-61642500D03*
%TD*%
%TO.C,C133*%
X73700000Y-60682500D03*
X73700000Y-61642500D03*
%TD*%
D11*
%TO.C,U34*%
X267017499Y-42862500D03*
X256857501Y-42862500D03*
D12*
X260987500Y-41707500D03*
X261937500Y-44057500D03*
X262887500Y-41707500D03*
%TD*%
D13*
%TO.C,C23*%
X150137500Y-41632500D03*
X150137500Y-42592500D03*
%TD*%
D29*
%TO.C,J1*%
X42400913Y-29016426D03*
X42400913Y-34616426D03*
D30*
X38525913Y-30316426D03*
X38525913Y-31316426D03*
X38525913Y-32316426D03*
X38525913Y-33316426D03*
%TD*%
D11*
%TO.C,U14*%
X181292499Y-23812500D03*
X171132501Y-23812500D03*
D12*
X175262500Y-22657500D03*
X176212500Y-25007500D03*
X177162500Y-22657500D03*
%TD*%
D13*
%TO.C,C126*%
X202287500Y-41632500D03*
X202287500Y-42592500D03*
%TD*%
%TO.C,C129*%
X259437500Y-41632500D03*
X259437500Y-42592500D03*
%TD*%
%TO.C,C113*%
X249912500Y-22582500D03*
X249912500Y-23542500D03*
%TD*%
%TO.C,C111*%
X211812500Y-22582500D03*
X211812500Y-23542500D03*
%TD*%
D11*
%TO.C,U17*%
X238442499Y-23812500D03*
X228282501Y-23812500D03*
D12*
X232412500Y-22657500D03*
X233362500Y-25007500D03*
X234312500Y-22657500D03*
%TD*%
D31*
%TO.C,L1*%
X82571875Y-41871875D03*
X82571875Y-44371875D03*
%TD*%
D11*
%TO.C,U13*%
X162242499Y-23812500D03*
X152082501Y-23812500D03*
D12*
X156212500Y-22657500D03*
X157162500Y-25007500D03*
X158112500Y-22657500D03*
%TD*%
D13*
%TO.C,C2*%
X45362500Y-22582500D03*
X45362500Y-23542500D03*
%TD*%
D14*
%TO.C,C80*%
X202745000Y-69618750D03*
X203705000Y-69618750D03*
%TD*%
D13*
%TO.C,C57*%
X240625000Y-79732500D03*
X240625000Y-80692500D03*
%TD*%
%TO.C,C4*%
X83462500Y-22582500D03*
X83462500Y-23542500D03*
%TD*%
D32*
%TO.C,U87*%
X38008750Y-48592500D03*
X38408750Y-48592500D03*
X38808750Y-48592500D03*
X39208750Y-48592500D03*
D33*
X38608750Y-49217500D03*
D32*
X39208750Y-49842500D03*
X38808750Y-49842500D03*
X38408750Y-49842500D03*
X38008750Y-49842500D03*
%TD*%
D13*
%TO.C,C136*%
X130850000Y-60682500D03*
X130850000Y-61642500D03*
%TD*%
%TO.C,C163*%
X154662500Y-98782500D03*
X154662500Y-99742500D03*
%TD*%
%TO.C,C44*%
X281106250Y-60682500D03*
X281106250Y-61642500D03*
%TD*%
D15*
%TO.C,C173*%
X80521875Y-43671875D03*
X79021875Y-43671875D03*
%TD*%
D13*
%TO.C,C158*%
X288012500Y-79732500D03*
X288012500Y-80692500D03*
%TD*%
D34*
%TO.C,U1*%
X41758750Y-52617500D03*
D35*
X41758750Y-53017500D03*
X41758750Y-53417500D03*
X41758750Y-53817500D03*
X41758750Y-54217500D03*
X41758750Y-54617500D03*
X41758750Y-55017500D03*
D36*
X41758750Y-55417500D03*
D37*
X41208750Y-55967500D03*
D38*
X40808750Y-55967500D03*
X40408750Y-55967500D03*
X40008750Y-55967500D03*
X39608750Y-55967500D03*
X39208750Y-55967500D03*
X38808750Y-55967500D03*
D39*
X38408750Y-55967500D03*
D40*
X37858750Y-55417500D03*
D35*
X37858750Y-55017500D03*
X37858750Y-54617500D03*
X37858750Y-54217500D03*
X37858750Y-53817500D03*
X37858750Y-53417500D03*
X37858750Y-53017500D03*
D41*
X37858750Y-52617500D03*
D42*
X38408750Y-52067500D03*
D38*
X38808750Y-52067500D03*
X39208750Y-52067500D03*
X39608750Y-52067500D03*
X40008750Y-52067500D03*
X40408750Y-52067500D03*
X40808750Y-52067500D03*
D43*
X41208750Y-52067500D03*
D44*
X39808750Y-54017500D03*
%TD*%
D13*
%TO.C,C103*%
X59412500Y-22582500D03*
X59412500Y-23542500D03*
%TD*%
%TO.C,C102*%
X40362500Y-22582500D03*
X40362500Y-23542500D03*
%TD*%
%TO.C,C30*%
X288250000Y-41632500D03*
X288250000Y-42592500D03*
%TD*%
%TO.C,C135*%
X111800000Y-60682500D03*
X111800000Y-61642500D03*
%TD*%
%TO.C,C19*%
X73937500Y-41632500D03*
X73937500Y-42592500D03*
%TD*%
D14*
%TO.C,C74*%
X126545000Y-69618750D03*
X127505000Y-69618750D03*
%TD*%
D15*
%TO.C,C169*%
X77921875Y-38071875D03*
X76421875Y-38071875D03*
%TD*%
D11*
%TO.C,U61*%
X205104999Y-80962500D03*
X194945001Y-80962500D03*
D12*
X199075000Y-79807500D03*
X200025000Y-82157500D03*
X200975000Y-79807500D03*
%TD*%
D11*
%TO.C,U12*%
X143192499Y-23812500D03*
X133032501Y-23812500D03*
D12*
X137162500Y-22657500D03*
X138112500Y-25007500D03*
X139062500Y-22657500D03*
%TD*%
D13*
%TO.C,C27*%
X226337500Y-41632500D03*
X226337500Y-42592500D03*
%TD*%
D14*
%TO.C,C90*%
X36688750Y-54017500D03*
X35728750Y-54017500D03*
%TD*%
D13*
%TO.C,C94*%
X240625000Y-98782500D03*
X240625000Y-99742500D03*
%TD*%
%TO.C,C114*%
X268962500Y-22582500D03*
X268962500Y-23542500D03*
%TD*%
D11*
%TO.C,U82*%
X267017499Y-100012500D03*
X256857501Y-100012500D03*
D12*
X260987500Y-98857500D03*
X261937500Y-101207500D03*
X262887500Y-98857500D03*
%TD*%
D13*
%TO.C,C37*%
X135850000Y-60682500D03*
X135850000Y-61642500D03*
%TD*%
%TO.C,C20*%
X92987500Y-41632500D03*
X92987500Y-42592500D03*
%TD*%
D11*
%TO.C,U78*%
X81280000Y-100012500D03*
X71120000Y-100012500D03*
D12*
X75250000Y-98857500D03*
X76200000Y-101207500D03*
X77150000Y-98857500D03*
%TD*%
D13*
%TO.C,C48*%
X69175000Y-79732500D03*
X69175000Y-80692500D03*
%TD*%
%TO.C,C39*%
X173950000Y-60682500D03*
X173950000Y-61642500D03*
%TD*%
%TO.C,C161*%
X73700000Y-98782500D03*
X73700000Y-99742500D03*
%TD*%
D11*
%TO.C,U25*%
X95567499Y-42862500D03*
X85407501Y-42862500D03*
D12*
X89537500Y-41707500D03*
X90487500Y-44057500D03*
X91437500Y-41707500D03*
%TD*%
D14*
%TO.C,R58*%
X35728750Y-55617500D03*
X36688750Y-55617500D03*
%TD*%
D13*
%TO.C,C117*%
X26075000Y-41632500D03*
X26075000Y-42592500D03*
%TD*%
%TO.C,C8*%
X159662500Y-22582500D03*
X159662500Y-23542500D03*
%TD*%
D18*
%TO.C,J11*%
X240225000Y-52018750D03*
D19*
X242765000Y-52018750D03*
X245305000Y-52018750D03*
X247845000Y-52018750D03*
%TD*%
D18*
%TO.C,J5*%
X129530000Y-89852500D03*
D19*
X126990000Y-89852500D03*
X124450000Y-89852500D03*
X121910000Y-89852500D03*
%TD*%
D13*
%TO.C,C5*%
X102512500Y-22582500D03*
X102512500Y-23542500D03*
%TD*%
M02*
